<?xml version="1.0" encoding="utf-8" standalone="no"?>
<!DOCTYPE svg PUBLIC "-//W3C//DTD SVG 1.1//EN"
  "http://www.w3.org/Graphics/SVG/1.1/DTD/svg11.dtd">
<!-- Created with matplotlib (https://matplotlib.org/) -->
<svg height="345.6pt" version="1.1" viewBox="0 0 460.8 345.6" width="460.8pt" xmlns="http://www.w3.org/2000/svg" xmlns:xlink="http://www.w3.org/1999/xlink">
 <defs>
  <style type="text/css">
*{stroke-linecap:butt;stroke-linejoin:round;}
  </style>
 </defs>
 <g id="figure_1">
  <g id="patch_1">
   <path d="M 0 345.6 
L 460.8 345.6 
L 460.8 0 
L 0 0 
z
" style="fill:#ffffff;"/>
  </g>
  <g id="axes_1">
   <g id="patch_2">
    <path d="M 57.6 307.584 
L 414.72 307.584 
L 414.72 41.472 
L 57.6 41.472 
z
" style="fill:#ffffff;"/>
   </g>
   <g id="matplotlib.axis_1">
    <g id="xtick_1">
     <g id="line2d_1">
      <defs>
       <path d="M 0 0 
L 0 3.5 
" id="md40141af1b" style="stroke:#000000;stroke-width:0.8;"/>
      </defs>
      <g>
       <use style="stroke:#000000;stroke-width:0.8;" x="73.832727" xlink:href="#md40141af1b" y="307.584"/>
      </g>
     </g>
     <g id="text_1">
      <!-- 0 -->
      <defs>
       <path d="M 31.78125 66.40625 
Q 24.171875 66.40625 20.328125 58.90625 
Q 16.5 51.421875 16.5 36.375 
Q 16.5 21.390625 20.328125 13.890625 
Q 24.171875 6.390625 31.78125 6.390625 
Q 39.453125 6.390625 43.28125 13.890625 
Q 47.125 21.390625 47.125 36.375 
Q 47.125 51.421875 43.28125 58.90625 
Q 39.453125 66.40625 31.78125 66.40625 
z
M 31.78125 74.21875 
Q 44.046875 74.21875 50.515625 64.515625 
Q 56.984375 54.828125 56.984375 36.375 
Q 56.984375 17.96875 50.515625 8.265625 
Q 44.046875 -1.421875 31.78125 -1.421875 
Q 19.53125 -1.421875 13.0625 8.265625 
Q 6.59375 17.96875 6.59375 36.375 
Q 6.59375 54.828125 13.0625 64.515625 
Q 19.53125 74.21875 31.78125 74.21875 
z
" id="DejaVuSans-48"/>
      </defs>
      <g transform="translate(70.651477 322.182437)scale(0.1 -0.1)">
       <use xlink:href="#DejaVuSans-48"/>
      </g>
     </g>
    </g>
    <g id="xtick_2">
     <g id="line2d_2">
      <g>
       <use style="stroke:#000000;stroke-width:0.8;" x="127.959861" xlink:href="#md40141af1b" y="307.584"/>
      </g>
     </g>
     <g id="text_2">
      <!-- 5 -->
      <defs>
       <path d="M 10.796875 72.90625 
L 49.515625 72.90625 
L 49.515625 64.59375 
L 19.828125 64.59375 
L 19.828125 46.734375 
Q 21.96875 47.46875 24.109375 47.828125 
Q 26.265625 48.1875 28.421875 48.1875 
Q 40.625 48.1875 47.75 41.5 
Q 54.890625 34.8125 54.890625 23.390625 
Q 54.890625 11.625 47.5625 5.09375 
Q 40.234375 -1.421875 26.90625 -1.421875 
Q 22.3125 -1.421875 17.546875 -0.640625 
Q 12.796875 0.140625 7.71875 1.703125 
L 7.71875 11.625 
Q 12.109375 9.234375 16.796875 8.0625 
Q 21.484375 6.890625 26.703125 6.890625 
Q 35.15625 6.890625 40.078125 11.328125 
Q 45.015625 15.765625 45.015625 23.390625 
Q 45.015625 31 40.078125 35.4375 
Q 35.15625 39.890625 26.703125 39.890625 
Q 22.75 39.890625 18.8125 39.015625 
Q 14.890625 38.140625 10.796875 36.28125 
z
" id="DejaVuSans-53"/>
      </defs>
      <g transform="translate(124.778611 322.182437)scale(0.1 -0.1)">
       <use xlink:href="#DejaVuSans-53"/>
      </g>
     </g>
    </g>
    <g id="xtick_3">
     <g id="line2d_3">
      <g>
       <use style="stroke:#000000;stroke-width:0.8;" x="182.086994" xlink:href="#md40141af1b" y="307.584"/>
      </g>
     </g>
     <g id="text_3">
      <!-- 10 -->
      <defs>
       <path d="M 12.40625 8.296875 
L 28.515625 8.296875 
L 28.515625 63.921875 
L 10.984375 60.40625 
L 10.984375 69.390625 
L 28.421875 72.90625 
L 38.28125 72.90625 
L 38.28125 8.296875 
L 54.390625 8.296875 
L 54.390625 0 
L 12.40625 0 
z
" id="DejaVuSans-49"/>
      </defs>
      <g transform="translate(175.724494 322.182437)scale(0.1 -0.1)">
       <use xlink:href="#DejaVuSans-49"/>
       <use x="63.623047" xlink:href="#DejaVuSans-48"/>
      </g>
     </g>
    </g>
    <g id="xtick_4">
     <g id="line2d_4">
      <g>
       <use style="stroke:#000000;stroke-width:0.8;" x="236.214127" xlink:href="#md40141af1b" y="307.584"/>
      </g>
     </g>
     <g id="text_4">
      <!-- 15 -->
      <g transform="translate(229.851627 322.182437)scale(0.1 -0.1)">
       <use xlink:href="#DejaVuSans-49"/>
       <use x="63.623047" xlink:href="#DejaVuSans-53"/>
      </g>
     </g>
    </g>
    <g id="xtick_5">
     <g id="line2d_5">
      <g>
       <use style="stroke:#000000;stroke-width:0.8;" x="290.34126" xlink:href="#md40141af1b" y="307.584"/>
      </g>
     </g>
     <g id="text_5">
      <!-- 20 -->
      <defs>
       <path d="M 19.1875 8.296875 
L 53.609375 8.296875 
L 53.609375 0 
L 7.328125 0 
L 7.328125 8.296875 
Q 12.9375 14.109375 22.625 23.890625 
Q 32.328125 33.6875 34.8125 36.53125 
Q 39.546875 41.84375 41.421875 45.53125 
Q 43.3125 49.21875 43.3125 52.78125 
Q 43.3125 58.59375 39.234375 62.25 
Q 35.15625 65.921875 28.609375 65.921875 
Q 23.96875 65.921875 18.8125 64.3125 
Q 13.671875 62.703125 7.8125 59.421875 
L 7.8125 69.390625 
Q 13.765625 71.78125 18.9375 73 
Q 24.125 74.21875 28.421875 74.21875 
Q 39.75 74.21875 46.484375 68.546875 
Q 53.21875 62.890625 53.21875 53.421875 
Q 53.21875 48.921875 51.53125 44.890625 
Q 49.859375 40.875 45.40625 35.40625 
Q 44.1875 33.984375 37.640625 27.21875 
Q 31.109375 20.453125 19.1875 8.296875 
z
" id="DejaVuSans-50"/>
      </defs>
      <g transform="translate(283.97876 322.182437)scale(0.1 -0.1)">
       <use xlink:href="#DejaVuSans-50"/>
       <use x="63.623047" xlink:href="#DejaVuSans-48"/>
      </g>
     </g>
    </g>
    <g id="xtick_6">
     <g id="line2d_6">
      <g>
       <use style="stroke:#000000;stroke-width:0.8;" x="344.468394" xlink:href="#md40141af1b" y="307.584"/>
      </g>
     </g>
     <g id="text_6">
      <!-- 25 -->
      <g transform="translate(338.105894 322.182437)scale(0.1 -0.1)">
       <use xlink:href="#DejaVuSans-50"/>
       <use x="63.623047" xlink:href="#DejaVuSans-53"/>
      </g>
     </g>
    </g>
    <g id="xtick_7">
     <g id="line2d_7">
      <g>
       <use style="stroke:#000000;stroke-width:0.8;" x="398.595527" xlink:href="#md40141af1b" y="307.584"/>
      </g>
     </g>
     <g id="text_7">
      <!-- 30 -->
      <defs>
       <path d="M 40.578125 39.3125 
Q 47.65625 37.796875 51.625 33 
Q 55.609375 28.21875 55.609375 21.1875 
Q 55.609375 10.40625 48.1875 4.484375 
Q 40.765625 -1.421875 27.09375 -1.421875 
Q 22.515625 -1.421875 17.65625 -0.515625 
Q 12.796875 0.390625 7.625 2.203125 
L 7.625 11.71875 
Q 11.71875 9.328125 16.59375 8.109375 
Q 21.484375 6.890625 26.8125 6.890625 
Q 36.078125 6.890625 40.9375 10.546875 
Q 45.796875 14.203125 45.796875 21.1875 
Q 45.796875 27.640625 41.28125 31.265625 
Q 36.765625 34.90625 28.71875 34.90625 
L 20.21875 34.90625 
L 20.21875 43.015625 
L 29.109375 43.015625 
Q 36.375 43.015625 40.234375 45.921875 
Q 44.09375 48.828125 44.09375 54.296875 
Q 44.09375 59.90625 40.109375 62.90625 
Q 36.140625 65.921875 28.71875 65.921875 
Q 24.65625 65.921875 20.015625 65.03125 
Q 15.375 64.15625 9.8125 62.3125 
L 9.8125 71.09375 
Q 15.4375 72.65625 20.34375 73.4375 
Q 25.25 74.21875 29.59375 74.21875 
Q 40.828125 74.21875 47.359375 69.109375 
Q 53.90625 64.015625 53.90625 55.328125 
Q 53.90625 49.265625 50.4375 45.09375 
Q 46.96875 40.921875 40.578125 39.3125 
z
" id="DejaVuSans-51"/>
      </defs>
      <g transform="translate(392.233027 322.182437)scale(0.1 -0.1)">
       <use xlink:href="#DejaVuSans-51"/>
       <use x="63.623047" xlink:href="#DejaVuSans-48"/>
      </g>
     </g>
    </g>
    <g id="text_8">
     <!-- time -->
     <defs>
      <path d="M 18.3125 70.21875 
L 18.3125 54.6875 
L 36.8125 54.6875 
L 36.8125 47.703125 
L 18.3125 47.703125 
L 18.3125 18.015625 
Q 18.3125 11.328125 20.140625 9.421875 
Q 21.96875 7.515625 27.59375 7.515625 
L 36.8125 7.515625 
L 36.8125 0 
L 27.59375 0 
Q 17.1875 0 13.234375 3.875 
Q 9.28125 7.765625 9.28125 18.015625 
L 9.28125 47.703125 
L 2.6875 47.703125 
L 2.6875 54.6875 
L 9.28125 54.6875 
L 9.28125 70.21875 
z
" id="DejaVuSans-116"/>
      <path d="M 9.421875 54.6875 
L 18.40625 54.6875 
L 18.40625 0 
L 9.421875 0 
z
M 9.421875 75.984375 
L 18.40625 75.984375 
L 18.40625 64.59375 
L 9.421875 64.59375 
z
" id="DejaVuSans-105"/>
      <path d="M 52 44.1875 
Q 55.375 50.25 60.0625 53.125 
Q 64.75 56 71.09375 56 
Q 79.640625 56 84.28125 50.015625 
Q 88.921875 44.046875 88.921875 33.015625 
L 88.921875 0 
L 79.890625 0 
L 79.890625 32.71875 
Q 79.890625 40.578125 77.09375 44.375 
Q 74.3125 48.1875 68.609375 48.1875 
Q 61.625 48.1875 57.5625 43.546875 
Q 53.515625 38.921875 53.515625 30.90625 
L 53.515625 0 
L 44.484375 0 
L 44.484375 32.71875 
Q 44.484375 40.625 41.703125 44.40625 
Q 38.921875 48.1875 33.109375 48.1875 
Q 26.21875 48.1875 22.15625 43.53125 
Q 18.109375 38.875 18.109375 30.90625 
L 18.109375 0 
L 9.078125 0 
L 9.078125 54.6875 
L 18.109375 54.6875 
L 18.109375 46.1875 
Q 21.1875 51.21875 25.484375 53.609375 
Q 29.78125 56 35.6875 56 
Q 41.65625 56 45.828125 52.96875 
Q 50 49.953125 52 44.1875 
z
" id="DejaVuSans-109"/>
      <path d="M 56.203125 29.59375 
L 56.203125 25.203125 
L 14.890625 25.203125 
Q 15.484375 15.921875 20.484375 11.0625 
Q 25.484375 6.203125 34.421875 6.203125 
Q 39.59375 6.203125 44.453125 7.46875 
Q 49.3125 8.734375 54.109375 11.28125 
L 54.109375 2.78125 
Q 49.265625 0.734375 44.1875 -0.34375 
Q 39.109375 -1.421875 33.890625 -1.421875 
Q 20.796875 -1.421875 13.15625 6.1875 
Q 5.515625 13.8125 5.515625 26.8125 
Q 5.515625 40.234375 12.765625 48.109375 
Q 20.015625 56 32.328125 56 
Q 43.359375 56 49.78125 48.890625 
Q 56.203125 41.796875 56.203125 29.59375 
z
M 47.21875 32.234375 
Q 47.125 39.59375 43.09375 43.984375 
Q 39.0625 48.390625 32.421875 48.390625 
Q 24.90625 48.390625 20.390625 44.140625 
Q 15.875 39.890625 15.1875 32.171875 
z
" id="DejaVuSans-101"/>
     </defs>
     <g transform="translate(224.863906 335.860562)scale(0.1 -0.1)">
      <use xlink:href="#DejaVuSans-116"/>
      <use x="39.208984" xlink:href="#DejaVuSans-105"/>
      <use x="66.992188" xlink:href="#DejaVuSans-109"/>
      <use x="164.404297" xlink:href="#DejaVuSans-101"/>
     </g>
    </g>
   </g>
   <g id="matplotlib.axis_2">
    <g id="ytick_1">
     <g id="line2d_8">
      <defs>
       <path d="M 0 0 
L -3.5 0 
" id="m59f219a532" style="stroke:#000000;stroke-width:0.8;"/>
      </defs>
      <g>
       <use style="stroke:#000000;stroke-width:0.8;" x="57.6" xlink:href="#m59f219a532" y="271.297455"/>
      </g>
     </g>
     <g id="text_9">
      <!-- −4 -->
      <defs>
       <path d="M 10.59375 35.5 
L 73.1875 35.5 
L 73.1875 27.203125 
L 10.59375 27.203125 
z
" id="DejaVuSans-8722"/>
       <path d="M 37.796875 64.3125 
L 12.890625 25.390625 
L 37.796875 25.390625 
z
M 35.203125 72.90625 
L 47.609375 72.90625 
L 47.609375 25.390625 
L 58.015625 25.390625 
L 58.015625 17.1875 
L 47.609375 17.1875 
L 47.609375 0 
L 37.796875 0 
L 37.796875 17.1875 
L 4.890625 17.1875 
L 4.890625 26.703125 
z
" id="DejaVuSans-52"/>
      </defs>
      <g transform="translate(35.857813 275.096673)scale(0.1 -0.1)">
       <use xlink:href="#DejaVuSans-8722"/>
       <use x="83.789062" xlink:href="#DejaVuSans-52"/>
      </g>
     </g>
    </g>
    <g id="ytick_2">
     <g id="line2d_9">
      <g>
       <use style="stroke:#000000;stroke-width:0.8;" x="57.6" xlink:href="#m59f219a532" y="222.912967"/>
      </g>
     </g>
     <g id="text_10">
      <!-- −2 -->
      <g transform="translate(35.857813 226.712186)scale(0.1 -0.1)">
       <use xlink:href="#DejaVuSans-8722"/>
       <use x="83.789062" xlink:href="#DejaVuSans-50"/>
      </g>
     </g>
    </g>
    <g id="ytick_3">
     <g id="line2d_10">
      <g>
       <use style="stroke:#000000;stroke-width:0.8;" x="57.6" xlink:href="#m59f219a532" y="174.52848"/>
      </g>
     </g>
     <g id="text_11">
      <!-- 0 -->
      <g transform="translate(44.2375 178.327699)scale(0.1 -0.1)">
       <use xlink:href="#DejaVuSans-48"/>
      </g>
     </g>
    </g>
    <g id="ytick_4">
     <g id="line2d_11">
      <g>
       <use style="stroke:#000000;stroke-width:0.8;" x="57.6" xlink:href="#m59f219a532" y="126.143993"/>
      </g>
     </g>
     <g id="text_12">
      <!-- 2 -->
      <g transform="translate(44.2375 129.943212)scale(0.1 -0.1)">
       <use xlink:href="#DejaVuSans-50"/>
      </g>
     </g>
    </g>
    <g id="ytick_5">
     <g id="line2d_12">
      <g>
       <use style="stroke:#000000;stroke-width:0.8;" x="57.6" xlink:href="#m59f219a532" y="77.759506"/>
      </g>
     </g>
     <g id="text_13">
      <!-- 4 -->
      <g transform="translate(44.2375 81.558725)scale(0.1 -0.1)">
       <use xlink:href="#DejaVuSans-52"/>
      </g>
     </g>
    </g>
    <g id="text_14">
     <!-- Amplitude -->
     <defs>
      <path d="M 34.1875 63.1875 
L 20.796875 26.90625 
L 47.609375 26.90625 
z
M 28.609375 72.90625 
L 39.796875 72.90625 
L 67.578125 0 
L 57.328125 0 
L 50.6875 18.703125 
L 17.828125 18.703125 
L 11.1875 0 
L 0.78125 0 
z
" id="DejaVuSans-65"/>
      <path d="M 18.109375 8.203125 
L 18.109375 -20.796875 
L 9.078125 -20.796875 
L 9.078125 54.6875 
L 18.109375 54.6875 
L 18.109375 46.390625 
Q 20.953125 51.265625 25.265625 53.625 
Q 29.59375 56 35.59375 56 
Q 45.5625 56 51.78125 48.09375 
Q 58.015625 40.1875 58.015625 27.296875 
Q 58.015625 14.40625 51.78125 6.484375 
Q 45.5625 -1.421875 35.59375 -1.421875 
Q 29.59375 -1.421875 25.265625 0.953125 
Q 20.953125 3.328125 18.109375 8.203125 
z
M 48.6875 27.296875 
Q 48.6875 37.203125 44.609375 42.84375 
Q 40.53125 48.484375 33.40625 48.484375 
Q 26.265625 48.484375 22.1875 42.84375 
Q 18.109375 37.203125 18.109375 27.296875 
Q 18.109375 17.390625 22.1875 11.75 
Q 26.265625 6.109375 33.40625 6.109375 
Q 40.53125 6.109375 44.609375 11.75 
Q 48.6875 17.390625 48.6875 27.296875 
z
" id="DejaVuSans-112"/>
      <path d="M 9.421875 75.984375 
L 18.40625 75.984375 
L 18.40625 0 
L 9.421875 0 
z
" id="DejaVuSans-108"/>
      <path d="M 8.5 21.578125 
L 8.5 54.6875 
L 17.484375 54.6875 
L 17.484375 21.921875 
Q 17.484375 14.15625 20.5 10.265625 
Q 23.53125 6.390625 29.59375 6.390625 
Q 36.859375 6.390625 41.078125 11.03125 
Q 45.3125 15.671875 45.3125 23.6875 
L 45.3125 54.6875 
L 54.296875 54.6875 
L 54.296875 0 
L 45.3125 0 
L 45.3125 8.40625 
Q 42.046875 3.421875 37.71875 1 
Q 33.40625 -1.421875 27.6875 -1.421875 
Q 18.265625 -1.421875 13.375 4.4375 
Q 8.5 10.296875 8.5 21.578125 
z
M 31.109375 56 
z
" id="DejaVuSans-117"/>
      <path d="M 45.40625 46.390625 
L 45.40625 75.984375 
L 54.390625 75.984375 
L 54.390625 0 
L 45.40625 0 
L 45.40625 8.203125 
Q 42.578125 3.328125 38.25 0.953125 
Q 33.9375 -1.421875 27.875 -1.421875 
Q 17.96875 -1.421875 11.734375 6.484375 
Q 5.515625 14.40625 5.515625 27.296875 
Q 5.515625 40.1875 11.734375 48.09375 
Q 17.96875 56 27.875 56 
Q 33.9375 56 38.25 53.625 
Q 42.578125 51.265625 45.40625 46.390625 
z
M 14.796875 27.296875 
Q 14.796875 17.390625 18.875 11.75 
Q 22.953125 6.109375 30.078125 6.109375 
Q 37.203125 6.109375 41.296875 11.75 
Q 45.40625 17.390625 45.40625 27.296875 
Q 45.40625 37.203125 41.296875 42.84375 
Q 37.203125 48.484375 30.078125 48.484375 
Q 22.953125 48.484375 18.875 42.84375 
Q 14.796875 37.203125 14.796875 27.296875 
z
" id="DejaVuSans-100"/>
     </defs>
     <g transform="translate(29.778125 200.150656)rotate(-90)scale(0.1 -0.1)">
      <use xlink:href="#DejaVuSans-65"/>
      <use x="68.408203" xlink:href="#DejaVuSans-109"/>
      <use x="165.820312" xlink:href="#DejaVuSans-112"/>
      <use x="229.296875" xlink:href="#DejaVuSans-108"/>
      <use x="257.080078" xlink:href="#DejaVuSans-105"/>
      <use x="284.863281" xlink:href="#DejaVuSans-116"/>
      <use x="324.072266" xlink:href="#DejaVuSans-117"/>
      <use x="387.451172" xlink:href="#DejaVuSans-100"/>
      <use x="450.927734" xlink:href="#DejaVuSans-101"/>
     </g>
    </g>
   </g>
   <g id="line2d_13">
    <path clip-path="url(#p97b69cc843)" d="M 73.832727 150.336237 
L 73.940982 150.818471 
L 74.15749 154.56176 
L 74.482253 165.762233 
L 75.240033 195.258542 
L 75.456541 198.47862 
L 75.564796 198.679471 
L 75.67305 197.917498 
L 75.889558 193.663764 
L 76.322575 177.241701 
L 76.972101 153.105776 
L 77.18861 150.419891 
L 77.296864 150.501109 
L 77.513372 153.495804 
L 77.838135 163.919036 
L 78.704169 196.570765 
L 78.920678 198.713298 
L 79.028932 198.350289 
L 79.245441 194.827503 
L 79.570203 183.850676 
L 80.327983 154.11376 
L 80.544492 150.670276 
L 80.652746 150.349915 
L 80.761 150.993478 
L 80.977509 155.032339 
L 81.410526 171.2205 
L 82.060052 195.666138 
L 82.27656 198.579868 
L 82.384814 198.618333 
L 82.601323 195.850858 
L 82.926086 185.673329 
L 83.79212 152.739974 
L 84.008628 150.365936 
L 84.116883 150.609497 
L 84.333391 153.909617 
L 84.658154 164.65606 
L 85.524188 196.893527 
L 85.740697 198.719776 
L 85.848951 198.195019 
L 86.065459 194.37351 
L 86.390222 183.094804 
L 87.148002 153.688845 
L 87.364511 150.54906 
L 87.472765 150.390936 
L 87.581019 151.195099 
L 87.797528 155.524965 
L 88.230545 172.028147 
L 88.771816 193.425599 
L 89.096579 198.653917 
L 89.204833 198.529953 
L 89.421342 195.454526 
L 89.746104 184.945065 
L 90.612139 152.39881 
L 90.828647 150.339305 
L 90.936901 150.744934 
L 91.15341 154.346746 
L 91.478173 165.404247 
L 92.235953 195.057299 
L 92.452461 198.421211 
L 92.560715 198.698898 
L 92.66897 198.012987 
L 92.885478 193.897075 
L 93.318495 177.624209 
L 93.968021 153.287496 
L 94.184529 150.454962 
L 94.292784 150.459252 
L 94.509292 153.308099 
L 94.834055 163.574126 
L 95.375326 186.760383 
L 95.591835 271.500045 
L 95.808343 292.002419 
L 95.916598 295.389504 
L 96.024852 293.958242 
L 96.24136 277.058731 
L 96.566123 222.911191 
L 97.432157 62.299437 
L 97.648666 53.586216 
L 97.75692 56.422409 
L 97.973429 75.919561 
L 98.298192 132.699838 
L 99.055971 279.266362 
L 99.27248 294.562587 
L 99.380734 295.139517 
L 99.488988 290.908066 
L 99.705497 268.879768 
L 100.138514 185.964723 
L 100.679785 79.378089 
L 101.004548 53.826508 
L 101.112802 54.660008 
L 101.329311 70.439598 
L 101.654074 123.413929 
L 102.520108 285.605084 
L 102.736616 295.486671 
L 102.844871 293.245583 
L 103.061379 274.842808 
L 103.386142 219.156264 
L 104.143922 71.321937 
L 104.36043 54.901551 
L 104.468685 53.726594 
L 104.576939 57.367627 
L 104.793448 78.330825 
L 105.226465 160.112306 
L 105.87599 281.241709 
L 106.092499 294.9973 
L 106.200753 294.762074 
L 106.417262 237.878648 
L 106.742024 206.817487 
L 107.608058 108.614896 
L 107.824567 101.988565 
L 107.932821 102.97533 
L 108.14933 113.35359 
L 108.474093 146.088764 
L 109.231872 235.495587 
L 109.448381 246.016267 
L 109.556635 247.079624 
L 109.66489 245.250597 
L 109.881398 233.31946 
L 110.314415 184.960833 
L 110.963941 111.366852 
L 111.180449 102.431454 
L 111.288704 102.213539 
L 111.396958 104.878592 
L 111.613466 118.321915 
L 112.046483 168.306525 
L 112.587755 232.01312 
L 112.804263 244.728366 
L 112.912518 246.988863 
L 113.020772 246.360593 
L 113.23728 236.652109 
L 113.562043 204.613784 
L 114.428077 107.630787 
L 114.644586 101.951864 
L 114.75284 103.424177 
L 114.969349 114.701207 
L 115.294111 148.349938 
L 116.051891 236.785024 
L 116.2684 246.396979 
L 116.376654 246.973812 
L 116.484908 244.662478 
L 116.701417 231.85536 
L 117.134434 185.210541 
L 117.78396 88.757939 
L 118.000468 78.079993 
L 118.108722 78.43918 
L 118.325231 90.482844 
L 118.649994 132.245253 
L 119.516028 262.768322 
L 119.732536 271.271857 
L 119.840791 269.785598 
L 120.057299 255.630931 
L 120.382062 211.658585 
L 121.139842 92.777494 
L 121.35635 79.067347 
L 121.464605 77.820153 
L 121.572859 80.428414 
L 121.789367 96.645812 
L 122.222384 161.466858 
L 122.87191 259.162587 
L 123.088419 270.7524 
L 123.196673 270.87194 
L 123.413181 259.736652 
L 123.737944 218.955239 
L 124.603978 87.299894 
L 124.820487 77.869941 
L 124.928741 78.878462 
L 125.14525 92.143067 
L 125.470012 135.195788 
L 126.336047 264.054058 
L 126.552555 271.29199 
L 126.660809 269.158847 
L 126.877318 253.810163 
L 127.202081 208.632964 
L 127.959861 91.082767 
L 128.176369 78.588202 
L 128.284623 77.990007 
L 128.392878 81.240497 
L 128.609386 98.620913 
L 129.042403 164.698136 
L 129.583675 250.224161 
L 129.908437 271.042841 
L 130.016692 270.512677 
L 130.2332 258.146278 
L 130.557963 216.039613 
L 131.423997 85.940489 
L 131.640506 77.769194 
L 131.74876 79.425908 
L 131.965268 93.896454 
L 132.290031 138.190802 
L 133.047811 256.734571 
L 133.26432 270.126218 
L 133.372574 271.2027 
L 133.480828 268.425085 
L 133.697337 251.899742 
L 134.130354 186.740897 
L 134.779879 89.482403 
L 134.996388 78.217549 
L 135.104642 78.26903 
L 135.321151 89.729631 
L 135.645913 130.864392 
L 136.511948 262.124498 
L 136.728456 271.224142 
L 136.83671 270.044873 
L 137.053219 256.461347 
L 137.377982 213.077045 
L 138.244016 84.681263 
L 138.460524 77.777864 
L 138.568779 80.080899 
L 138.677033 86.149261 
L 138.785287 76.044158 
L 139.11005 132.901514 
L 139.86783 279.373683 
L 140.084338 294.588949 
L 140.192593 295.12299 
L 140.300847 290.849307 
L 140.517355 268.745164 
L 140.950373 185.750803 
L 141.491644 79.245574 
L 141.708152 57.748823 
L 141.816407 53.812638 
L 141.924661 54.689013 
L 142.141169 70.54922 
L 142.465932 123.608748 
L 143.331966 285.68998 
L 143.548475 295.488 
L 143.656729 293.204199 
L 143.873238 274.722585 
L 144.198001 218.956487 
L 144.95578 71.210037 
L 145.172289 54.869914 
L 145.280543 53.737809 
L 145.388797 57.421247 
L 145.605306 78.461238 
L 146.038323 160.325662 
L 146.687849 281.342711 
L 146.904357 295.016478 
L 147.012611 294.738353 
L 147.22912 280.007083 
L 147.553883 228.150978 
L 148.419917 64.582747 
L 148.636425 53.62197 
L 148.74468 55.309376 
L 148.961188 72.686103 
L 149.285951 127.326709 
L 149.610714 184.099589 
L 150.043731 215.219782 
L 150.260239 222.201762 
L 150.368494 222.893551 
L 150.476748 221.657178 
L 150.693257 213.67201 
L 151.126274 181.398318 
L 151.775799 132.37846 
L 151.992308 126.454007 
L 152.100562 126.325889 
L 152.208816 128.119456 
L 152.425325 137.111869 
L 152.858342 170.466146 
L 153.399613 212.903979 
L 153.616122 221.350145 
L 153.724376 222.84019 
L 153.83263 222.4042 
L 154.049139 215.899731 
L 154.373902 194.507104 
L 155.239936 129.89676 
L 155.456444 126.144298 
L 155.564699 127.14291 
L 155.781207 134.692349 
L 156.10597 157.156307 
L 156.86375 216.076952 
L 157.080258 222.452715 
L 157.188513 222.820122 
L 157.296767 221.262294 
L 157.513275 212.693633 
L 157.946292 179.784081 
L 158.595818 131.603482 
L 158.812327 126.297324 
L 158.920581 126.494074 
L 159.137089 132.548328 
L 159.461852 153.464207 
L 160.327886 218.683612 
L 160.544395 271.275657 
L 160.652649 269.755182 
L 160.869158 255.537034 
L 161.19392 211.499792 
L 161.9517 92.685649 
L 162.168209 79.039333 
L 162.276463 77.82639 
L 162.384717 80.468654 
L 162.601226 96.747953 
L 163.034243 161.637198 
L 163.683769 259.245794 
L 163.900277 270.770466 
L 164.008531 270.855686 
L 164.22504 259.655043 
L 164.549803 218.802462 
L 165.415837 87.225608 
L 165.632345 77.861884 
L 165.7406 78.904678 
L 165.957108 92.233368 
L 166.281871 135.352902 
L 167.147905 264.119169 
L 167.364414 271.29001 
L 167.472668 269.12276 
L 167.689176 253.711479 
L 168.013939 208.472048 
L 168.771719 90.995859 
L 168.988228 78.565906 
L 169.096482 78.002017 
L 169.204736 81.286333 
L 169.421245 98.727645 
L 169.854262 164.869154 
L 170.395533 250.331128 
L 170.720296 271.05515 
L 170.82855 270.490679 
L 171.045059 258.059629 
L 171.153313 246.688637 
L 171.369821 184.867429 
L 172.235856 152.364225 
L 172.452364 150.338089 
L 172.560618 150.760815 
L 172.777127 154.394266 
L 173.10189 165.483903 
L 173.85967 195.102642 
L 174.076178 198.434543 
L 174.184432 198.695096 
L 174.292687 197.992202 
L 174.509195 193.845455 
L 174.942212 177.53895 
L 175.591738 153.246493 
L 175.808246 150.446609 
L 175.916501 150.46806 
L 176.133009 153.349504 
L 176.457772 163.650825 
L 177.323806 196.445712 
L 177.540315 198.70403 
L 177.648569 198.400649 
L 177.865077 194.988799 
L 178.18984 184.12619 
L 178.94762 154.275943 
L 179.164129 150.721675 
L 179.272383 150.341701 
L 179.380637 150.925978 
L 179.597146 154.856598 
L 179.921909 166.243448 
L 180.679688 195.518919 
L 180.896197 198.545771 
L 181.004451 198.644 
L 181.112705 197.78082 
L 181.329214 193.344837 
L 181.762231 176.730154 
L 181.97874 167.174547 
L 182.195248 127.282934 
L 182.520011 104.427192 
L 182.628265 102.090882 
L 182.736519 102.64243 
L 182.953028 112.206894 
L 183.277791 144.093629 
L 184.143825 241.276107 
L 184.360333 247.104761 
L 184.468588 245.708857 
L 184.685096 234.57262 
L 185.009859 201.065334 
L 185.767639 112.47047 
L 185.984147 102.714584 
L 186.092402 102.061035 
L 186.200656 104.296534 
L 186.417165 116.966564 
L 186.850182 166.13483 
L 187.499707 238.677418 
L 187.716216 246.832557 
L 187.82447 246.639943 
L 188.040979 237.752436 
L 188.365741 206.586369 
L 189.231775 108.507393 
L 189.448284 101.980811 
L 189.556538 103.018932 
L 189.773047 113.492711 
L 190.09781 146.32616 
L 190.855589 235.635087 
L 191.072098 246.060313 
L 191.180352 247.072321 
L 191.288607 245.192235 
L 191.505115 233.167904 
L 191.938132 184.705608 
L 192.587658 111.240248 
L 192.804166 102.402313 
L 193.020675 151.336158 
L 193.237183 155.84745 
L 193.6702 172.540138 
L 194.211472 193.742372 
L 194.42798 197.950109 
L 194.536235 198.686653 
L 194.644489 198.460087 
L 194.860997 195.19179 
L 195.18576 184.478638 
L 196.051794 152.196062 
L 196.268303 150.33658 
L 196.376557 150.84442 
L 196.593066 154.634836 
L 196.917828 165.882515 
L 197.675608 195.324705 
L 197.892117 198.496473 
L 198.000371 198.671602 
L 198.108625 197.884222 
L 198.325134 193.584612 
L 198.758151 177.113558 
L 199.407676 153.046185 
L 199.624185 150.409522 
L 199.732439 150.516475 
L 199.948948 153.559803 
L 200.273711 164.035047 
L 201.139745 196.623582 
L 201.356253 198.716148 
L 201.464508 198.327477 
L 201.681016 194.75708 
L 202.005779 183.73158 
L 202.763559 154.044875 
L 202.980067 150.649265 
L 203.088322 150.354593 
L 203.196576 151.023658 
L 203.413084 155.108945 
L 203.629593 162.26015 
L 203.737847 143.002957 
L 204.495627 259.328734 
L 204.712136 270.788229 
L 204.82039 270.839128 
L 205.036898 259.573165 
L 205.361661 218.649547 
L 206.227695 87.151598 
L 206.444204 77.854132 
L 206.552458 78.931195 
L 206.768967 92.323929 
L 207.093729 135.51014 
L 207.959764 264.183996 
L 208.176272 271.287725 
L 208.284526 269.086374 
L 208.501035 253.612544 
L 208.825798 208.311024 
L 209.583578 90.909214 
L 209.800086 78.543912 
L 209.90834 78.014331 
L 210.016595 81.332464 
L 210.233103 98.834617 
L 210.66612 165.040203 
L 211.207392 250.437857 
L 211.532154 271.067154 
L 211.640409 270.468378 
L 211.856917 257.972716 
L 212.18168 215.728805 
L 213.047714 85.802706 
L 213.264223 77.76494 
L 213.372477 79.490033 
L 213.588985 94.087044 
L 213.913748 138.509656 
L 214.671528 256.915423 
L 214.888037 270.178941 
L 214.996291 271.18688 
L 215.104545 268.341353 
L 215.321054 251.692776 
L 215.754071 186.399785 
L 216.403596 89.318926 
L 216.620105 78.184747 
L 216.728359 78.30487 
L 216.944868 89.895788 
L 217.26963 131.171464 
L 218.135665 262.270043 
L 218.352173 271.236911 
L 218.460427 269.989135 
L 218.676936 256.277905 
L 219.001699 212.761473 
L 219.759479 93.424439 
L 219.975987 79.270849 
L 220.084241 77.785171 
L 220.192496 80.156344 
L 220.409004 95.941125 
L 220.733767 141.549902 
L 221.491547 258.575563 
L 221.708055 270.618126 
L 221.81631 270.97673 
L 221.924564 267.490247 
L 222.141072 249.685749 
L 222.57409 183.163981 
L 223.115361 98.090851 
L 223.331869 81.015733 
L 223.440124 77.93453 
L 223.548378 78.704222 
L 223.764886 91.521254 
L 224.089649 134.104791 
L 224.955683 263.59267 
L 225.172192 271.297307 
L 225.280446 269.401943 
L 225.496955 214.509565 
L 225.821718 192.139693 
L 226.579497 133.111974 
L 226.796006 126.640197 
L 226.90426 126.221641 
L 227.012514 127.728927 
L 227.229023 136.206277 
L 227.66204 169.018092 
L 228.311566 217.33457 
L 228.528074 222.738565 
L 228.636328 222.592997 
L 228.852837 216.635514 
L 229.1776 195.823265 
L 230.043634 130.478796 
L 230.260142 126.161012 
L 230.368397 126.870208 
L 230.584905 133.884534 
L 230.909668 155.806155 
L 231.667448 215.312525 
L 231.883956 222.230825 
L 231.992211 222.888377 
L 232.100465 221.617973 
L 232.316974 213.570726 
L 232.749991 181.228124 
L 233.399516 132.294323 
L 233.616025 126.434883 
L 233.724279 126.341084 
L 233.940788 131.843876 
L 234.26555 152.163829 
L 235.131584 218.068711 
L 235.348093 222.84931 
L 235.456347 222.379036 
L 235.672856 215.810337 
L 235.997619 194.350424 
L 236.863653 129.830667 
L 237.080161 126.145214 
L 237.188416 127.177957 
L 237.404924 134.790161 
L 237.729687 157.316846 
L 238.487467 216.164776 
L 238.703975 222.476065 
L 238.81223 222.809174 
L 238.920484 221.217484 
L 239.136992 212.587736 
L 239.570009 179.613173 
L 240.219535 131.524433 
L 240.436044 126.283954 
L 240.544298 126.515018 
L 240.760806 132.634057 
L 241.085569 153.619087 
L 241.951603 218.753617 
L 242.168112 222.905412 
L 242.276366 222.110964 
L 242.492875 214.938477 
L 242.817637 192.855167 
L 243.575417 133.515606 
L 243.791926 126.756344 
L 243.90018 126.18413 
L 244.008434 127.539252 
L 244.224943 135.740726 
L 244.65796 168.253239 
L 245.307486 216.969944 
L 245.523994 222.667084 
L 245.632248 222.675373 
L 245.848757 217.00975 
L 246.17352 196.512486 
L 247.039554 130.803172 
L 247.256062 126.187582 
L 247.364317 126.743247 
L 247.580825 133.471614 
L 247.905588 155.097991 
L 248.771622 219.388511 
L 248.988131 222.906808 
L 249.096385 221.789085 
L 249.312893 214.02092 
L 249.637656 191.339187 
L 250.395436 132.675657 
L 250.611945 126.525351 
L 250.720199 126.277715 
L 250.828453 127.953684 
L 251.044962 136.735154 
L 251.477979 169.869881 
L 252.01925 212.536413 
L 252.344013 222.803667 
L 252.452267 222.487127 
L 252.668776 216.20701 
L 252.993538 195.050843 
L 253.859573 130.131357 
L 254.076081 126.145876 
L 254.184335 127.025513 
L 254.400844 134.3556 
L 254.725607 156.598867 
L 255.483387 215.76697 
L 255.699895 222.366665 
L 255.808149 222.853496 
L 255.916404 221.413762 
L 256.132912 213.058704 
L 256.565929 180.378826 
L 257.215455 131.883035 
L 257.431963 126.348641 
L 257.540218 126.425863 
L 257.756726 132.253874 
L 257.973235 159.642298 
L 259.055777 198.063651 
L 259.164032 198.70707 
L 259.272286 198.386564 
L 259.488794 194.942809 
L 259.813557 184.047237 
L 260.571337 154.229061 
L 260.787846 150.706545 
L 260.8961 150.343681 
L 261.004354 150.944988 
L 261.220863 154.906747 
L 261.545626 166.324249 
L 262.303405 195.561516 
L 262.519914 198.555937 
L 262.628168 198.637009 
L 262.736422 197.75695 
L 262.952931 193.290699 
L 263.385948 176.64455 
L 263.927219 155.39275 
L 264.143728 151.139277 
L 264.251982 150.377447 
L 264.360236 150.578444 
L 264.576745 153.798795 
L 264.901508 164.461618 
L 265.767542 196.811296 
L 265.98405 198.720724 
L 266.092305 198.238345 
L 266.308813 194.494789 
L 266.633576 183.294048 
L 267.391356 153.798043 
L 267.607864 150.578238 
L 267.716119 150.377532 
L 267.824373 151.139649 
L 268.040882 155.393643 
L 268.473899 171.815984 
L 268.582153 176.646003 
L 268.906916 235.949313 
L 269.231678 267.443989 
L 269.339933 270.963079 
L 269.448187 270.637626 
L 269.664696 258.657742 
L 269.989458 216.963634 
L 270.855492 86.358137 
L 271.072001 77.789138 
L 271.180255 79.241755 
L 271.396764 93.333976 
L 271.721527 137.242391 
L 272.479306 256.188927 
L 272.695815 269.961781 
L 272.804069 271.242642 
L 272.912324 268.667814 
L 273.128832 252.511317 
L 273.561849 187.757511 
L 274.211375 89.97643 
L 274.427883 78.322617 
L 274.536138 78.169338 
L 274.752646 89.240346 
L 275.077409 129.951675 
L 275.943443 261.683774 
L 276.159951 271.178801 
L 276.268206 270.203975 
L 276.484714 257.002408 
L 276.809477 214.0155 
L 277.675511 85.067183 
L 277.89202 77.763323 
L 278.000274 79.862929 
L 278.216783 95.150031 
L 278.541545 140.265915 
L 279.299325 257.888503 
L 279.407579 265.990679 
L 279.515834 198.507997 
L 279.624088 198.665976 
L 279.732342 197.861669 
L 279.948851 193.531544 
L 280.381868 177.028088 
L 280.923139 155.630906 
L 281.247902 150.402989 
L 281.356156 150.527098 
L 281.572665 153.6028 
L 281.897428 164.112553 
L 282.763462 196.658445 
L 282.97997 198.717667 
L 283.088225 198.311893 
L 283.304733 194.709813 
L 283.629496 183.652038 
L 284.387276 153.999276 
L 284.603784 150.635635 
L 284.712039 150.358093 
L 284.820293 151.044149 
L 285.036801 155.160322 
L 285.469818 171.433475 
L 286.119344 195.769813 
L 286.335853 198.602071 
L 286.444107 198.597635 
L 286.660615 195.748512 
L 286.985378 185.482185 
L 287.851412 152.647461 
L 288.067921 150.356246 
L 288.176175 150.642644 
L 288.392684 154.022817 
L 288.717446 164.852606 
L 289.583481 196.974561 
L 289.799989 198.71692 
L 289.908243 198.149537 
L 290.124752 194.249842 
L 290.233006 191.072998 
L 290.34126 225.360868 
L 291.315549 82.790115 
L 291.532057 78.039872 
L 291.640312 81.425607 
L 291.85682 99.049276 
L 292.289837 165.38239 
L 292.831109 250.650594 
L 293.155871 271.090249 
L 293.264126 270.422867 
L 293.480634 257.7981 
L 293.805397 215.417477 
L 294.671431 85.666042 
L 294.88794 77.761907 
L 294.996194 79.555358 
L 295.212702 94.278648 
L 295.537465 138.828965 
L 296.295245 257.095236 
L 296.511754 270.230456 
L 296.620008 271.16984 
L 296.728262 268.256438 
L 296.944771 251.484836 
L 297.377788 186.058523 
L 298.027313 89.156524 
L 298.243822 78.153161 
L 298.352076 78.341924 
L 298.568585 90.063013 
L 298.893347 131.479083 
L 299.759382 262.41448 
L 299.97589 271.24846 
L 300.084144 269.932193 
L 300.300653 256.093431 
L 300.625416 212.445419 
L 301.058433 137.07845 
L 301.166687 147.313233 
L 301.49145 129.478324 
L 301.707958 126.161089 
L 301.816213 127.38073 
L 302.032721 135.335349 
L 302.465738 167.575022 
L 303.115264 216.636951 
L 303.331772 222.593332 
L 303.440027 222.738317 
L 303.548281 220.961329 
L 303.764789 211.998601 
L 304.197807 178.674997 
L 304.739078 136.204496 
L 304.955586 127.728186 
L 305.063841 126.221476 
L 305.172095 126.640614 
L 305.388603 133.113482 
L 305.713366 154.472939 
L 306.5794 219.127508 
L 306.795909 222.912888 
L 306.904163 221.931057 
L 307.120672 214.412503 
L 307.445435 191.979481 
L 308.203214 133.023368 
L 308.419723 126.615945 
L 308.527977 126.23168 
L 308.636231 127.772857 
L 308.85274 136.311455 
L 309.285757 169.1889 
L 309.935283 217.414426 
L 310.151791 222.752842 
L 310.260045 222.572958 
L 310.476554 216.550576 
L 310.801317 195.668782 
L 311.667351 130.407961 
L 311.883859 126.156759 
L 311.992114 79.271876 
L 312.208622 93.427621 
L 312.533385 137.401069 
L 313.291165 256.281027 
L 313.507673 269.990091 
L 313.615928 271.236705 
L 313.724182 268.627866 
L 313.940691 252.409417 
L 314.373708 187.587212 
L 315.023233 89.89296 
L 315.239742 78.304252 
L 315.347996 78.185293 
L 315.564505 89.321691 
L 315.889267 130.104313 
L 316.755301 261.75833 
L 316.97181 271.187158 
L 317.080064 270.178056 
L 317.296573 256.912363 
L 317.621336 213.858507 
L 318.48737 85.001795 
L 318.703878 77.765002 
L 318.812133 79.898723 
L 319.028641 95.24847 
L 319.353404 140.426726 
L 320.111184 257.97567 
L 320.327692 270.469139 
L 320.435947 271.066752 
L 320.544201 267.815688 
L 320.760709 250.434238 
L 321.193726 184.355923 
L 321.734998 98.830982 
L 322.059761 78.013908 
L 322.168015 78.544654 
L 322.384523 90.91215 
L 322.709286 133.019983 
L 322.925795 172.432938 
L 323.467066 214.072193 
L 323.683575 221.808047 
L 323.791829 222.908144 
L 323.900083 222.079497 
L 324.116592 214.843687 
L 324.441354 192.695968 
L 325.199134 133.424665 
L 325.415643 126.729385 
L 325.523897 126.191435 
L 325.632151 127.580531 
L 325.84866 135.843725 
L 326.281677 168.423719 
L 326.931203 217.052215 
L 327.147711 222.684088 
L 327.255965 222.658056 
L 327.472474 216.927202 
L 327.797237 196.359223 
L 328.663271 130.729851 
L 328.879779 126.180593 
L 328.988034 126.770518 
L 329.204542 133.562823 
L 329.529305 155.255536 
L 330.395339 219.452631 
L 330.611848 222.90376 
L 330.720102 221.751953 
L 330.93661 213.921362 
L 331.261373 191.177897 
L 332.019153 132.589672 
L 332.235662 126.504115 
L 332.343916 126.29079 
L 332.45217 128.00055 
L 332.668679 136.842721 
L 333.101696 170.041003 
L 333.534713 205.961329 
L 333.751221 282.717947 
L 333.96773 295.244554 
L 334.075984 294.367452 
L 334.292493 278.505878 
L 334.617255 225.444905 
L 335.48329 63.365543 
L 335.699798 53.568941 
L 335.808052 55.853467 
L 336.024561 74.336418 
L 336.349324 130.103865 
L 337.107104 277.84882 
L 337.323612 294.187581 
L 337.431866 295.318958 
L 337.540121 291.6348 
L 337.756629 270.593507 
L 338.189646 188.727677 
L 338.839172 67.712539 
L 339.05568 54.04016 
L 339.163935 54.319014 
L 339.380443 69.051662 
L 339.705206 120.909251 
L 340.57124 284.475734 
L 340.787749 295.4351 
L 340.896003 293.746968 
L 341.112511 276.36889 
L 341.437274 221.726895 
L 342.195054 72.798252 
L 342.411563 55.344653 
L 342.519817 53.615906 
L 342.628071 56.70756 
L 342.84458 76.6718 
L 343.277597 157.357496 
L 343.927122 279.905321 
L 344.143631 294.715076 
L 344.251885 295.034643 
L 344.360139 290.55001 
L 344.576648 193.236323 
L 345.009665 176.558921 
L 345.550936 155.340287 
L 345.767445 151.117464 
L 345.875699 150.372585 
L 345.983953 150.590726 
L 346.200462 153.843233 
L 346.525225 164.539833 
L 347.391259 196.844622 
L 347.607767 198.720569 
L 347.716022 198.221118 
L 347.93253 194.446132 
L 348.257293 183.213886 
L 349.015073 153.753871 
L 349.231581 150.566263 
L 349.339836 150.382704 
L 349.44809 151.161762 
L 349.664599 155.446352 
L 350.097616 171.901405 
L 350.747141 195.991316 
L 350.96365 198.644116 
L 351.071904 198.545596 
L 351.288413 195.518194 
L 351.613175 185.05996 
L 352.479209 152.450616 
L 352.695718 150.34167 
L 352.803972 150.721934 
L 353.020481 154.276741 
L 353.345244 165.286326 
L 354.103023 194.989577 
L 354.319532 198.400885 
L 354.427786 198.703976 
L 354.53604 198.043265 
L 354.752549 193.973178 
L 355.185566 177.750578 
L 355.835092 153.348799 
L 356.0516 150.467908 
L 356.159854 150.446748 
L 356.376363 153.247186 
L 356.701126 163.460633 
L 357.56716 196.354513 
L 357.783668 198.695163 
L 357.891923 198.434319 
L 358.108431 195.101875 
L 358.433194 184.321708 
L 359.299228 152.130532 
L 359.515737 150.338107 
L 359.623991 150.880064 
L 359.8405 154.73315 
L 360.165262 166.043271 
L 360.923042 195.412004 
L 361.139551 198.519218 
L 361.247805 198.660045 
L 361.356059 197.838822 
L 361.572568 193.478236 
L 362.005585 176.942586 
L 362.546856 155.577365 
L 362.871619 150.396761 
L 362.979873 150.538025 
L 363.196382 153.646061 
L 363.521145 164.190191 
L 364.387179 196.693028 
L 364.603687 198.718881 
L 364.711942 198.296009 
L 364.92845 194.66229 
L 365.253213 183.572381 
L 366.010993 153.953935 
L 366.227501 54.997608 
L 366.335756 53.695571 
L 366.44401 57.21076 
L 366.660518 77.945799 
L 367.093535 159.479749 
L 367.743061 280.940152 
L 367.95957 294.938184 
L 368.067824 294.830202 
L 368.284332 280.421598 
L 368.609095 228.9135 
L 369.475129 64.940776 
L 369.691638 53.650596 
L 369.799892 55.168228 
L 370.016401 72.228832 
L 370.341163 126.543278 
L 371.098943 275.793161 
L 371.315452 293.563154 
L 371.423706 295.462297 
L 371.53196 292.54019 
L 371.748469 272.885771 
L 372.073232 215.950214 
L 372.831012 69.574474 
L 373.04752 54.44159 
L 373.155774 53.95117 
L 373.264029 58.267786 
L 373.480537 80.448989 
L 373.913554 163.523745 
L 374.454826 269.945843 
L 374.671334 291.364904 
L 374.779588 295.258036 
L 374.887843 294.338062 
L 375.104351 278.395922 
L 375.429114 225.249922 
L 376.295148 63.281005 
L 376.511657 53.568 
L 376.619911 55.895231 
L 376.836419 74.456962 
L 377.052928 148.244202 
L 378.027216 220.060542 
L 378.243725 222.84003 
L 378.351979 221.34941 
L 378.568488 212.902202 
L 379.001505 180.122798 
L 379.65103 131.76184 
L 379.867539 126.325636 
L 379.975793 126.454336 
L 380.192302 132.379892 
L 380.517064 153.157863 
L 381.383099 218.543144 
L 381.599607 222.893634 
L 381.707861 222.201263 
L 381.92437 215.218204 
L 382.249133 193.328683 
L 383.006913 133.789955 
L 383.223421 126.840345 
L 383.331675 126.165964 
L 383.43993 127.419643 
L 383.656438 135.436391 
L 384.089455 167.745173 
L 384.738981 216.721349 
L 384.955489 222.612754 
L 385.063744 222.723421 
L 385.280252 217.252803 
L 385.605015 196.968018 
L 386.471049 131.025164 
L 386.687558 126.212057 
L 386.795812 126.665481 
L 387.01232 133.20262 
L 387.337083 154.629495 
L 387.661846 183.007658 
L 387.986609 242.31912 
L 388.311372 269.470184 
L 388.419626 271.296065 
L 388.52788 269.264128 
L 388.744389 254.101396 
L 389.069152 209.109618 
L 389.826931 91.342091 
L 390.04344 78.656114 
L 390.151694 77.956178 
L 390.259948 81.106275 
L 390.476457 98.305749 
L 390.909474 164.19107 
L 391.559 260.459004 
L 391.775508 271.004541 
L 391.883762 270.576145 
L 392.100271 258.401733 
L 392.425034 216.499584 
L 393.291068 86.146885 
L 393.507576 77.777751 
L 393.615831 79.333019 
L 393.832339 93.615679 
L 394.157102 137.718777 
L 394.914882 256.464451 
L 395.13139 270.045808 
L 395.239645 271.223915 
L 395.347899 268.547079 
L 395.564408 252.204881 
L 395.997425 187.246491 
L 396.64695 89.726821 
L 396.863459 78.268433 
L 396.971713 78.218116 
L 397.188222 89.485187 
L 397.512984 130.41001 
L 398.379018 261.906616 
L 398.487273 268.426496 
L 398.487273 268.426496 
" style="fill:none;stroke:#1f77b4;stroke-linecap:square;stroke-width:1.5;"/>
   </g>
   <g id="patch_3">
    <path d="M 57.6 307.584 
L 57.6 41.472 
" style="fill:none;stroke:#000000;stroke-linecap:square;stroke-linejoin:miter;stroke-width:0.8;"/>
   </g>
   <g id="patch_4">
    <path d="M 414.72 307.584 
L 414.72 41.472 
" style="fill:none;stroke:#000000;stroke-linecap:square;stroke-linejoin:miter;stroke-width:0.8;"/>
   </g>
   <g id="patch_5">
    <path d="M 57.6 307.584 
L 414.72 307.584 
" style="fill:none;stroke:#000000;stroke-linecap:square;stroke-linejoin:miter;stroke-width:0.8;"/>
   </g>
   <g id="patch_6">
    <path d="M 57.6 41.472 
L 414.72 41.472 
" style="fill:none;stroke:#000000;stroke-linecap:square;stroke-linejoin:miter;stroke-width:0.8;"/>
   </g>
   <g id="text_15">
    <!-- Time Domain, Time=(29, 30) -->
    <defs>
     <path d="M -0.296875 72.90625 
L 61.375 72.90625 
L 61.375 64.59375 
L 35.5 64.59375 
L 35.5 0 
L 25.59375 0 
L 25.59375 64.59375 
L -0.296875 64.59375 
z
" id="DejaVuSans-84"/>
     <path id="DejaVuSans-32"/>
     <path d="M 19.671875 64.796875 
L 19.671875 8.109375 
L 31.59375 8.109375 
Q 46.6875 8.109375 53.6875 14.9375 
Q 60.6875 21.78125 60.6875 36.53125 
Q 60.6875 51.171875 53.6875 57.984375 
Q 46.6875 64.796875 31.59375 64.796875 
z
M 9.8125 72.90625 
L 30.078125 72.90625 
Q 51.265625 72.90625 61.171875 64.09375 
Q 71.09375 55.28125 71.09375 36.53125 
Q 71.09375 17.671875 61.125 8.828125 
Q 51.171875 0 30.078125 0 
L 9.8125 0 
z
" id="DejaVuSans-68"/>
     <path d="M 30.609375 48.390625 
Q 23.390625 48.390625 19.1875 42.75 
Q 14.984375 37.109375 14.984375 27.296875 
Q 14.984375 17.484375 19.15625 11.84375 
Q 23.34375 6.203125 30.609375 6.203125 
Q 37.796875 6.203125 41.984375 11.859375 
Q 46.1875 17.53125 46.1875 27.296875 
Q 46.1875 37.015625 41.984375 42.703125 
Q 37.796875 48.390625 30.609375 48.390625 
z
M 30.609375 56 
Q 42.328125 56 49.015625 48.375 
Q 55.71875 40.765625 55.71875 27.296875 
Q 55.71875 13.875 49.015625 6.21875 
Q 42.328125 -1.421875 30.609375 -1.421875 
Q 18.84375 -1.421875 12.171875 6.21875 
Q 5.515625 13.875 5.515625 27.296875 
Q 5.515625 40.765625 12.171875 48.375 
Q 18.84375 56 30.609375 56 
z
" id="DejaVuSans-111"/>
     <path d="M 34.28125 27.484375 
Q 23.390625 27.484375 19.1875 25 
Q 14.984375 22.515625 14.984375 16.5 
Q 14.984375 11.71875 18.140625 8.90625 
Q 21.296875 6.109375 26.703125 6.109375 
Q 34.1875 6.109375 38.703125 11.40625 
Q 43.21875 16.703125 43.21875 25.484375 
L 43.21875 27.484375 
z
M 52.203125 31.203125 
L 52.203125 0 
L 43.21875 0 
L 43.21875 8.296875 
Q 40.140625 3.328125 35.546875 0.953125 
Q 30.953125 -1.421875 24.3125 -1.421875 
Q 15.921875 -1.421875 10.953125 3.296875 
Q 6 8.015625 6 15.921875 
Q 6 25.140625 12.171875 29.828125 
Q 18.359375 34.515625 30.609375 34.515625 
L 43.21875 34.515625 
L 43.21875 35.40625 
Q 43.21875 41.609375 39.140625 45 
Q 35.0625 48.390625 27.6875 48.390625 
Q 23 48.390625 18.546875 47.265625 
Q 14.109375 46.140625 10.015625 43.890625 
L 10.015625 52.203125 
Q 14.9375 54.109375 19.578125 55.046875 
Q 24.21875 56 28.609375 56 
Q 40.484375 56 46.34375 49.84375 
Q 52.203125 43.703125 52.203125 31.203125 
z
" id="DejaVuSans-97"/>
     <path d="M 54.890625 33.015625 
L 54.890625 0 
L 45.90625 0 
L 45.90625 32.71875 
Q 45.90625 40.484375 42.875 44.328125 
Q 39.84375 48.1875 33.796875 48.1875 
Q 26.515625 48.1875 22.3125 43.546875 
Q 18.109375 38.921875 18.109375 30.90625 
L 18.109375 0 
L 9.078125 0 
L 9.078125 54.6875 
L 18.109375 54.6875 
L 18.109375 46.1875 
Q 21.34375 51.125 25.703125 53.5625 
Q 30.078125 56 35.796875 56 
Q 45.21875 56 50.046875 50.171875 
Q 54.890625 44.34375 54.890625 33.015625 
z
" id="DejaVuSans-110"/>
     <path d="M 11.71875 12.40625 
L 22.015625 12.40625 
L 22.015625 4 
L 14.015625 -11.625 
L 7.71875 -11.625 
L 11.71875 4 
z
" id="DejaVuSans-44"/>
     <path d="M 10.59375 45.40625 
L 73.1875 45.40625 
L 73.1875 37.203125 
L 10.59375 37.203125 
z
M 10.59375 25.484375 
L 73.1875 25.484375 
L 73.1875 17.1875 
L 10.59375 17.1875 
z
" id="DejaVuSans-61"/>
     <path d="M 31 75.875 
Q 24.46875 64.65625 21.28125 53.65625 
Q 18.109375 42.671875 18.109375 31.390625 
Q 18.109375 20.125 21.3125 9.0625 
Q 24.515625 -2 31 -13.1875 
L 23.1875 -13.1875 
Q 15.875 -1.703125 12.234375 9.375 
Q 8.59375 20.453125 8.59375 31.390625 
Q 8.59375 42.28125 12.203125 53.3125 
Q 15.828125 64.359375 23.1875 75.875 
z
" id="DejaVuSans-40"/>
     <path d="M 10.984375 1.515625 
L 10.984375 10.5 
Q 14.703125 8.734375 18.5 7.8125 
Q 22.3125 6.890625 25.984375 6.890625 
Q 35.75 6.890625 40.890625 13.453125 
Q 46.046875 20.015625 46.78125 33.40625 
Q 43.953125 29.203125 39.59375 26.953125 
Q 35.25 24.703125 29.984375 24.703125 
Q 19.046875 24.703125 12.671875 31.3125 
Q 6.296875 37.9375 6.296875 49.421875 
Q 6.296875 60.640625 12.9375 67.421875 
Q 19.578125 74.21875 30.609375 74.21875 
Q 43.265625 74.21875 49.921875 64.515625 
Q 56.59375 54.828125 56.59375 36.375 
Q 56.59375 19.140625 48.40625 8.859375 
Q 40.234375 -1.421875 26.421875 -1.421875 
Q 22.703125 -1.421875 18.890625 -0.6875 
Q 15.09375 0.046875 10.984375 1.515625 
z
M 30.609375 32.421875 
Q 37.25 32.421875 41.125 36.953125 
Q 45.015625 41.5 45.015625 49.421875 
Q 45.015625 57.28125 41.125 61.84375 
Q 37.25 66.40625 30.609375 66.40625 
Q 23.96875 66.40625 20.09375 61.84375 
Q 16.21875 57.28125 16.21875 49.421875 
Q 16.21875 41.5 20.09375 36.953125 
Q 23.96875 32.421875 30.609375 32.421875 
z
" id="DejaVuSans-57"/>
     <path d="M 8.015625 75.875 
L 15.828125 75.875 
Q 23.140625 64.359375 26.78125 53.3125 
Q 30.421875 42.28125 30.421875 31.390625 
Q 30.421875 20.453125 26.78125 9.375 
Q 23.140625 -1.703125 15.828125 -13.1875 
L 8.015625 -13.1875 
Q 14.5 -2 17.703125 9.0625 
Q 20.90625 20.125 20.90625 31.390625 
Q 20.90625 42.671875 17.703125 53.65625 
Q 14.5 64.65625 8.015625 75.875 
z
" id="DejaVuSans-41"/>
    </defs>
    <g transform="translate(148.634062 35.472)scale(0.12 -0.12)">
     <use xlink:href="#DejaVuSans-84"/>
     <use x="61.037109" xlink:href="#DejaVuSans-105"/>
     <use x="88.820312" xlink:href="#DejaVuSans-109"/>
     <use x="186.232422" xlink:href="#DejaVuSans-101"/>
     <use x="247.755859" xlink:href="#DejaVuSans-32"/>
     <use x="279.542969" xlink:href="#DejaVuSans-68"/>
     <use x="356.544922" xlink:href="#DejaVuSans-111"/>
     <use x="417.726562" xlink:href="#DejaVuSans-109"/>
     <use x="515.138672" xlink:href="#DejaVuSans-97"/>
     <use x="576.417969" xlink:href="#DejaVuSans-105"/>
     <use x="604.201172" xlink:href="#DejaVuSans-110"/>
     <use x="667.580078" xlink:href="#DejaVuSans-44"/>
     <use x="699.367188" xlink:href="#DejaVuSans-32"/>
     <use x="731.154297" xlink:href="#DejaVuSans-84"/>
     <use x="792.191406" xlink:href="#DejaVuSans-105"/>
     <use x="819.974609" xlink:href="#DejaVuSans-109"/>
     <use x="917.386719" xlink:href="#DejaVuSans-101"/>
     <use x="978.910156" xlink:href="#DejaVuSans-61"/>
     <use x="1062.699219" xlink:href="#DejaVuSans-40"/>
     <use x="1101.712891" xlink:href="#DejaVuSans-50"/>
     <use x="1165.335938" xlink:href="#DejaVuSans-57"/>
     <use x="1228.958984" xlink:href="#DejaVuSans-44"/>
     <use x="1260.746094" xlink:href="#DejaVuSans-32"/>
     <use x="1292.533203" xlink:href="#DejaVuSans-51"/>
     <use x="1356.15625" xlink:href="#DejaVuSans-48"/>
     <use x="1419.779297" xlink:href="#DejaVuSans-41"/>
    </g>
   </g>
  </g>
 </g>
 <defs>
  <clipPath id="p97b69cc843">
   <rect height="266.112" width="357.12" x="57.6" y="41.472"/>
  </clipPath>
 </defs>
</svg>
