<?xml version="1.0" encoding="utf-8" standalone="no"?>
<!DOCTYPE svg PUBLIC "-//W3C//DTD SVG 1.1//EN"
  "http://www.w3.org/Graphics/SVG/1.1/DTD/svg11.dtd">
<!-- Created with matplotlib (https://matplotlib.org/) -->
<svg height="345.6pt" version="1.1" viewBox="0 0 460.8 345.6" width="460.8pt" xmlns="http://www.w3.org/2000/svg" xmlns:xlink="http://www.w3.org/1999/xlink">
 <defs>
  <style type="text/css">
*{stroke-linecap:butt;stroke-linejoin:round;}
  </style>
 </defs>
 <g id="figure_1">
  <g id="patch_1">
   <path d="M 0 345.6 
L 460.8 345.6 
L 460.8 0 
L 0 0 
z
" style="fill:#ffffff;"/>
  </g>
  <g id="axes_1">
   <g id="patch_2">
    <path d="M 57.6 307.584 
L 414.72 307.584 
L 414.72 41.472 
L 57.6 41.472 
z
" style="fill:#ffffff;"/>
   </g>
   <g id="matplotlib.axis_1">
    <g id="xtick_1">
     <g id="line2d_1">
      <defs>
       <path d="M 0 0 
L 0 3.5 
" id="ma01e81a7a6" style="stroke:#000000;stroke-width:0.8;"/>
      </defs>
      <g>
       <use style="stroke:#000000;stroke-width:0.8;" x="106.298182" xlink:href="#ma01e81a7a6" y="307.584"/>
      </g>
     </g>
     <g id="text_1">
      <!-- −40 -->
      <defs>
       <path d="M 10.59375 35.5 
L 73.1875 35.5 
L 73.1875 27.203125 
L 10.59375 27.203125 
z
" id="DejaVuSans-8722"/>
       <path d="M 37.796875 64.3125 
L 12.890625 25.390625 
L 37.796875 25.390625 
z
M 35.203125 72.90625 
L 47.609375 72.90625 
L 47.609375 25.390625 
L 58.015625 25.390625 
L 58.015625 17.1875 
L 47.609375 17.1875 
L 47.609375 0 
L 37.796875 0 
L 37.796875 17.1875 
L 4.890625 17.1875 
L 4.890625 26.703125 
z
" id="DejaVuSans-52"/>
       <path d="M 31.78125 66.40625 
Q 24.171875 66.40625 20.328125 58.90625 
Q 16.5 51.421875 16.5 36.375 
Q 16.5 21.390625 20.328125 13.890625 
Q 24.171875 6.390625 31.78125 6.390625 
Q 39.453125 6.390625 43.28125 13.890625 
Q 47.125 21.390625 47.125 36.375 
Q 47.125 51.421875 43.28125 58.90625 
Q 39.453125 66.40625 31.78125 66.40625 
z
M 31.78125 74.21875 
Q 44.046875 74.21875 50.515625 64.515625 
Q 56.984375 54.828125 56.984375 36.375 
Q 56.984375 17.96875 50.515625 8.265625 
Q 44.046875 -1.421875 31.78125 -1.421875 
Q 19.53125 -1.421875 13.0625 8.265625 
Q 6.59375 17.96875 6.59375 36.375 
Q 6.59375 54.828125 13.0625 64.515625 
Q 19.53125 74.21875 31.78125 74.21875 
z
" id="DejaVuSans-48"/>
      </defs>
      <g transform="translate(95.745838 322.182437)scale(0.1 -0.1)">
       <use xlink:href="#DejaVuSans-8722"/>
       <use x="83.789062" xlink:href="#DejaVuSans-52"/>
       <use x="147.412109" xlink:href="#DejaVuSans-48"/>
      </g>
     </g>
    </g>
    <g id="xtick_2">
     <g id="line2d_2">
      <g>
       <use style="stroke:#000000;stroke-width:0.8;" x="171.229091" xlink:href="#ma01e81a7a6" y="307.584"/>
      </g>
     </g>
     <g id="text_2">
      <!-- −20 -->
      <defs>
       <path d="M 19.1875 8.296875 
L 53.609375 8.296875 
L 53.609375 0 
L 7.328125 0 
L 7.328125 8.296875 
Q 12.9375 14.109375 22.625 23.890625 
Q 32.328125 33.6875 34.8125 36.53125 
Q 39.546875 41.84375 41.421875 45.53125 
Q 43.3125 49.21875 43.3125 52.78125 
Q 43.3125 58.59375 39.234375 62.25 
Q 35.15625 65.921875 28.609375 65.921875 
Q 23.96875 65.921875 18.8125 64.3125 
Q 13.671875 62.703125 7.8125 59.421875 
L 7.8125 69.390625 
Q 13.765625 71.78125 18.9375 73 
Q 24.125 74.21875 28.421875 74.21875 
Q 39.75 74.21875 46.484375 68.546875 
Q 53.21875 62.890625 53.21875 53.421875 
Q 53.21875 48.921875 51.53125 44.890625 
Q 49.859375 40.875 45.40625 35.40625 
Q 44.1875 33.984375 37.640625 27.21875 
Q 31.109375 20.453125 19.1875 8.296875 
z
" id="DejaVuSans-50"/>
      </defs>
      <g transform="translate(160.676747 322.182437)scale(0.1 -0.1)">
       <use xlink:href="#DejaVuSans-8722"/>
       <use x="83.789062" xlink:href="#DejaVuSans-50"/>
       <use x="147.412109" xlink:href="#DejaVuSans-48"/>
      </g>
     </g>
    </g>
    <g id="xtick_3">
     <g id="line2d_3">
      <g>
       <use style="stroke:#000000;stroke-width:0.8;" x="236.16" xlink:href="#ma01e81a7a6" y="307.584"/>
      </g>
     </g>
     <g id="text_3">
      <!-- 0 -->
      <g transform="translate(232.97875 322.182437)scale(0.1 -0.1)">
       <use xlink:href="#DejaVuSans-48"/>
      </g>
     </g>
    </g>
    <g id="xtick_4">
     <g id="line2d_4">
      <g>
       <use style="stroke:#000000;stroke-width:0.8;" x="301.090909" xlink:href="#ma01e81a7a6" y="307.584"/>
      </g>
     </g>
     <g id="text_4">
      <!-- 20 -->
      <g transform="translate(294.728409 322.182437)scale(0.1 -0.1)">
       <use xlink:href="#DejaVuSans-50"/>
       <use x="63.623047" xlink:href="#DejaVuSans-48"/>
      </g>
     </g>
    </g>
    <g id="xtick_5">
     <g id="line2d_5">
      <g>
       <use style="stroke:#000000;stroke-width:0.8;" x="366.021818" xlink:href="#ma01e81a7a6" y="307.584"/>
      </g>
     </g>
     <g id="text_5">
      <!-- 40 -->
      <g transform="translate(359.659318 322.182437)scale(0.1 -0.1)">
       <use xlink:href="#DejaVuSans-52"/>
       <use x="63.623047" xlink:href="#DejaVuSans-48"/>
      </g>
     </g>
    </g>
    <g id="text_6">
     <!-- Frequency(Hz) -->
     <defs>
      <path d="M 9.8125 72.90625 
L 51.703125 72.90625 
L 51.703125 64.59375 
L 19.671875 64.59375 
L 19.671875 43.109375 
L 48.578125 43.109375 
L 48.578125 34.8125 
L 19.671875 34.8125 
L 19.671875 0 
L 9.8125 0 
z
" id="DejaVuSans-70"/>
      <path d="M 41.109375 46.296875 
Q 39.59375 47.171875 37.8125 47.578125 
Q 36.03125 48 33.890625 48 
Q 26.265625 48 22.1875 43.046875 
Q 18.109375 38.09375 18.109375 28.8125 
L 18.109375 0 
L 9.078125 0 
L 9.078125 54.6875 
L 18.109375 54.6875 
L 18.109375 46.1875 
Q 20.953125 51.171875 25.484375 53.578125 
Q 30.03125 56 36.53125 56 
Q 37.453125 56 38.578125 55.875 
Q 39.703125 55.765625 41.0625 55.515625 
z
" id="DejaVuSans-114"/>
      <path d="M 56.203125 29.59375 
L 56.203125 25.203125 
L 14.890625 25.203125 
Q 15.484375 15.921875 20.484375 11.0625 
Q 25.484375 6.203125 34.421875 6.203125 
Q 39.59375 6.203125 44.453125 7.46875 
Q 49.3125 8.734375 54.109375 11.28125 
L 54.109375 2.78125 
Q 49.265625 0.734375 44.1875 -0.34375 
Q 39.109375 -1.421875 33.890625 -1.421875 
Q 20.796875 -1.421875 13.15625 6.1875 
Q 5.515625 13.8125 5.515625 26.8125 
Q 5.515625 40.234375 12.765625 48.109375 
Q 20.015625 56 32.328125 56 
Q 43.359375 56 49.78125 48.890625 
Q 56.203125 41.796875 56.203125 29.59375 
z
M 47.21875 32.234375 
Q 47.125 39.59375 43.09375 43.984375 
Q 39.0625 48.390625 32.421875 48.390625 
Q 24.90625 48.390625 20.390625 44.140625 
Q 15.875 39.890625 15.1875 32.171875 
z
" id="DejaVuSans-101"/>
      <path d="M 14.796875 27.296875 
Q 14.796875 17.390625 18.875 11.75 
Q 22.953125 6.109375 30.078125 6.109375 
Q 37.203125 6.109375 41.296875 11.75 
Q 45.40625 17.390625 45.40625 27.296875 
Q 45.40625 37.203125 41.296875 42.84375 
Q 37.203125 48.484375 30.078125 48.484375 
Q 22.953125 48.484375 18.875 42.84375 
Q 14.796875 37.203125 14.796875 27.296875 
z
M 45.40625 8.203125 
Q 42.578125 3.328125 38.25 0.953125 
Q 33.9375 -1.421875 27.875 -1.421875 
Q 17.96875 -1.421875 11.734375 6.484375 
Q 5.515625 14.40625 5.515625 27.296875 
Q 5.515625 40.1875 11.734375 48.09375 
Q 17.96875 56 27.875 56 
Q 33.9375 56 38.25 53.625 
Q 42.578125 51.265625 45.40625 46.390625 
L 45.40625 54.6875 
L 54.390625 54.6875 
L 54.390625 -20.796875 
L 45.40625 -20.796875 
z
" id="DejaVuSans-113"/>
      <path d="M 8.5 21.578125 
L 8.5 54.6875 
L 17.484375 54.6875 
L 17.484375 21.921875 
Q 17.484375 14.15625 20.5 10.265625 
Q 23.53125 6.390625 29.59375 6.390625 
Q 36.859375 6.390625 41.078125 11.03125 
Q 45.3125 15.671875 45.3125 23.6875 
L 45.3125 54.6875 
L 54.296875 54.6875 
L 54.296875 0 
L 45.3125 0 
L 45.3125 8.40625 
Q 42.046875 3.421875 37.71875 1 
Q 33.40625 -1.421875 27.6875 -1.421875 
Q 18.265625 -1.421875 13.375 4.4375 
Q 8.5 10.296875 8.5 21.578125 
z
M 31.109375 56 
z
" id="DejaVuSans-117"/>
      <path d="M 54.890625 33.015625 
L 54.890625 0 
L 45.90625 0 
L 45.90625 32.71875 
Q 45.90625 40.484375 42.875 44.328125 
Q 39.84375 48.1875 33.796875 48.1875 
Q 26.515625 48.1875 22.3125 43.546875 
Q 18.109375 38.921875 18.109375 30.90625 
L 18.109375 0 
L 9.078125 0 
L 9.078125 54.6875 
L 18.109375 54.6875 
L 18.109375 46.1875 
Q 21.34375 51.125 25.703125 53.5625 
Q 30.078125 56 35.796875 56 
Q 45.21875 56 50.046875 50.171875 
Q 54.890625 44.34375 54.890625 33.015625 
z
" id="DejaVuSans-110"/>
      <path d="M 48.78125 52.59375 
L 48.78125 44.1875 
Q 44.96875 46.296875 41.140625 47.34375 
Q 37.3125 48.390625 33.40625 48.390625 
Q 24.65625 48.390625 19.8125 42.84375 
Q 14.984375 37.3125 14.984375 27.296875 
Q 14.984375 17.28125 19.8125 11.734375 
Q 24.65625 6.203125 33.40625 6.203125 
Q 37.3125 6.203125 41.140625 7.25 
Q 44.96875 8.296875 48.78125 10.40625 
L 48.78125 2.09375 
Q 45.015625 0.34375 40.984375 -0.53125 
Q 36.96875 -1.421875 32.421875 -1.421875 
Q 20.0625 -1.421875 12.78125 6.34375 
Q 5.515625 14.109375 5.515625 27.296875 
Q 5.515625 40.671875 12.859375 48.328125 
Q 20.21875 56 33.015625 56 
Q 37.15625 56 41.109375 55.140625 
Q 45.0625 54.296875 48.78125 52.59375 
z
" id="DejaVuSans-99"/>
      <path d="M 32.171875 -5.078125 
Q 28.375 -14.84375 24.75 -17.8125 
Q 21.140625 -20.796875 15.09375 -20.796875 
L 7.90625 -20.796875 
L 7.90625 -13.28125 
L 13.1875 -13.28125 
Q 16.890625 -13.28125 18.9375 -11.515625 
Q 21 -9.765625 23.484375 -3.21875 
L 25.09375 0.875 
L 2.984375 54.6875 
L 12.5 54.6875 
L 29.59375 11.921875 
L 46.6875 54.6875 
L 56.203125 54.6875 
z
" id="DejaVuSans-121"/>
      <path d="M 31 75.875 
Q 24.46875 64.65625 21.28125 53.65625 
Q 18.109375 42.671875 18.109375 31.390625 
Q 18.109375 20.125 21.3125 9.0625 
Q 24.515625 -2 31 -13.1875 
L 23.1875 -13.1875 
Q 15.875 -1.703125 12.234375 9.375 
Q 8.59375 20.453125 8.59375 31.390625 
Q 8.59375 42.28125 12.203125 53.3125 
Q 15.828125 64.359375 23.1875 75.875 
z
" id="DejaVuSans-40"/>
      <path d="M 9.8125 72.90625 
L 19.671875 72.90625 
L 19.671875 43.015625 
L 55.515625 43.015625 
L 55.515625 72.90625 
L 65.375 72.90625 
L 65.375 0 
L 55.515625 0 
L 55.515625 34.71875 
L 19.671875 34.71875 
L 19.671875 0 
L 9.8125 0 
z
" id="DejaVuSans-72"/>
      <path d="M 5.515625 54.6875 
L 48.1875 54.6875 
L 48.1875 46.484375 
L 14.40625 7.171875 
L 48.1875 7.171875 
L 48.1875 0 
L 4.296875 0 
L 4.296875 8.203125 
L 38.09375 47.515625 
L 5.515625 47.515625 
z
" id="DejaVuSans-122"/>
      <path d="M 8.015625 75.875 
L 15.828125 75.875 
Q 23.140625 64.359375 26.78125 53.3125 
Q 30.421875 42.28125 30.421875 31.390625 
Q 30.421875 20.453125 26.78125 9.375 
Q 23.140625 -1.703125 15.828125 -13.1875 
L 8.015625 -13.1875 
Q 14.5 -2 17.703125 9.0625 
Q 20.90625 20.125 20.90625 31.390625 
Q 20.90625 42.671875 17.703125 53.65625 
Q 14.5 64.65625 8.015625 75.875 
z
" id="DejaVuSans-41"/>
     </defs>
     <g transform="translate(199.576406 335.860562)scale(0.1 -0.1)">
      <use xlink:href="#DejaVuSans-70"/>
      <use x="57.410156" xlink:href="#DejaVuSans-114"/>
      <use x="98.492188" xlink:href="#DejaVuSans-101"/>
      <use x="160.015625" xlink:href="#DejaVuSans-113"/>
      <use x="223.492188" xlink:href="#DejaVuSans-117"/>
      <use x="286.871094" xlink:href="#DejaVuSans-101"/>
      <use x="348.394531" xlink:href="#DejaVuSans-110"/>
      <use x="411.773438" xlink:href="#DejaVuSans-99"/>
      <use x="466.753906" xlink:href="#DejaVuSans-121"/>
      <use x="525.933594" xlink:href="#DejaVuSans-40"/>
      <use x="564.947266" xlink:href="#DejaVuSans-72"/>
      <use x="640.142578" xlink:href="#DejaVuSans-122"/>
      <use x="692.632812" xlink:href="#DejaVuSans-41"/>
     </g>
    </g>
   </g>
   <g id="matplotlib.axis_2">
    <g id="ytick_1">
     <g id="line2d_6">
      <defs>
       <path d="M 0 0 
L -3.5 0 
" id="m105b3fad42" style="stroke:#000000;stroke-width:0.8;"/>
      </defs>
      <g>
       <use style="stroke:#000000;stroke-width:0.8;" x="57.6" xlink:href="#m105b3fad42" y="295.563261"/>
      </g>
     </g>
     <g id="text_7">
      <!-- 0 -->
      <g transform="translate(44.2375 299.362479)scale(0.1 -0.1)">
       <use xlink:href="#DejaVuSans-48"/>
      </g>
     </g>
    </g>
    <g id="ytick_2">
     <g id="line2d_7">
      <g>
       <use style="stroke:#000000;stroke-width:0.8;" x="57.6" xlink:href="#m105b3fad42" y="250.094619"/>
      </g>
     </g>
     <g id="text_8">
      <!-- 5 -->
      <defs>
       <path d="M 10.796875 72.90625 
L 49.515625 72.90625 
L 49.515625 64.59375 
L 19.828125 64.59375 
L 19.828125 46.734375 
Q 21.96875 47.46875 24.109375 47.828125 
Q 26.265625 48.1875 28.421875 48.1875 
Q 40.625 48.1875 47.75 41.5 
Q 54.890625 34.8125 54.890625 23.390625 
Q 54.890625 11.625 47.5625 5.09375 
Q 40.234375 -1.421875 26.90625 -1.421875 
Q 22.3125 -1.421875 17.546875 -0.640625 
Q 12.796875 0.140625 7.71875 1.703125 
L 7.71875 11.625 
Q 12.109375 9.234375 16.796875 8.0625 
Q 21.484375 6.890625 26.703125 6.890625 
Q 35.15625 6.890625 40.078125 11.328125 
Q 45.015625 15.765625 45.015625 23.390625 
Q 45.015625 31 40.078125 35.4375 
Q 35.15625 39.890625 26.703125 39.890625 
Q 22.75 39.890625 18.8125 39.015625 
Q 14.890625 38.140625 10.796875 36.28125 
z
" id="DejaVuSans-53"/>
      </defs>
      <g transform="translate(44.2375 253.893838)scale(0.1 -0.1)">
       <use xlink:href="#DejaVuSans-53"/>
      </g>
     </g>
    </g>
    <g id="ytick_3">
     <g id="line2d_8">
      <g>
       <use style="stroke:#000000;stroke-width:0.8;" x="57.6" xlink:href="#m105b3fad42" y="204.625978"/>
      </g>
     </g>
     <g id="text_9">
      <!-- 10 -->
      <defs>
       <path d="M 12.40625 8.296875 
L 28.515625 8.296875 
L 28.515625 63.921875 
L 10.984375 60.40625 
L 10.984375 69.390625 
L 28.421875 72.90625 
L 38.28125 72.90625 
L 38.28125 8.296875 
L 54.390625 8.296875 
L 54.390625 0 
L 12.40625 0 
z
" id="DejaVuSans-49"/>
      </defs>
      <g transform="translate(37.875 208.425196)scale(0.1 -0.1)">
       <use xlink:href="#DejaVuSans-49"/>
       <use x="63.623047" xlink:href="#DejaVuSans-48"/>
      </g>
     </g>
    </g>
    <g id="ytick_4">
     <g id="line2d_9">
      <g>
       <use style="stroke:#000000;stroke-width:0.8;" x="57.6" xlink:href="#m105b3fad42" y="159.157336"/>
      </g>
     </g>
     <g id="text_10">
      <!-- 15 -->
      <g transform="translate(37.875 162.956555)scale(0.1 -0.1)">
       <use xlink:href="#DejaVuSans-49"/>
       <use x="63.623047" xlink:href="#DejaVuSans-53"/>
      </g>
     </g>
    </g>
    <g id="ytick_5">
     <g id="line2d_10">
      <g>
       <use style="stroke:#000000;stroke-width:0.8;" x="57.6" xlink:href="#m105b3fad42" y="113.688695"/>
      </g>
     </g>
     <g id="text_11">
      <!-- 20 -->
      <g transform="translate(37.875 117.487914)scale(0.1 -0.1)">
       <use xlink:href="#DejaVuSans-50"/>
       <use x="63.623047" xlink:href="#DejaVuSans-48"/>
      </g>
     </g>
    </g>
    <g id="ytick_6">
     <g id="line2d_11">
      <g>
       <use style="stroke:#000000;stroke-width:0.8;" x="57.6" xlink:href="#m105b3fad42" y="68.220053"/>
      </g>
     </g>
     <g id="text_12">
      <!-- 25 -->
      <g transform="translate(37.875 72.019272)scale(0.1 -0.1)">
       <use xlink:href="#DejaVuSans-50"/>
       <use x="63.623047" xlink:href="#DejaVuSans-53"/>
      </g>
     </g>
    </g>
    <g id="text_13">
     <!-- Amplitude -->
     <defs>
      <path d="M 34.1875 63.1875 
L 20.796875 26.90625 
L 47.609375 26.90625 
z
M 28.609375 72.90625 
L 39.796875 72.90625 
L 67.578125 0 
L 57.328125 0 
L 50.6875 18.703125 
L 17.828125 18.703125 
L 11.1875 0 
L 0.78125 0 
z
" id="DejaVuSans-65"/>
      <path d="M 52 44.1875 
Q 55.375 50.25 60.0625 53.125 
Q 64.75 56 71.09375 56 
Q 79.640625 56 84.28125 50.015625 
Q 88.921875 44.046875 88.921875 33.015625 
L 88.921875 0 
L 79.890625 0 
L 79.890625 32.71875 
Q 79.890625 40.578125 77.09375 44.375 
Q 74.3125 48.1875 68.609375 48.1875 
Q 61.625 48.1875 57.5625 43.546875 
Q 53.515625 38.921875 53.515625 30.90625 
L 53.515625 0 
L 44.484375 0 
L 44.484375 32.71875 
Q 44.484375 40.625 41.703125 44.40625 
Q 38.921875 48.1875 33.109375 48.1875 
Q 26.21875 48.1875 22.15625 43.53125 
Q 18.109375 38.875 18.109375 30.90625 
L 18.109375 0 
L 9.078125 0 
L 9.078125 54.6875 
L 18.109375 54.6875 
L 18.109375 46.1875 
Q 21.1875 51.21875 25.484375 53.609375 
Q 29.78125 56 35.6875 56 
Q 41.65625 56 45.828125 52.96875 
Q 50 49.953125 52 44.1875 
z
" id="DejaVuSans-109"/>
      <path d="M 18.109375 8.203125 
L 18.109375 -20.796875 
L 9.078125 -20.796875 
L 9.078125 54.6875 
L 18.109375 54.6875 
L 18.109375 46.390625 
Q 20.953125 51.265625 25.265625 53.625 
Q 29.59375 56 35.59375 56 
Q 45.5625 56 51.78125 48.09375 
Q 58.015625 40.1875 58.015625 27.296875 
Q 58.015625 14.40625 51.78125 6.484375 
Q 45.5625 -1.421875 35.59375 -1.421875 
Q 29.59375 -1.421875 25.265625 0.953125 
Q 20.953125 3.328125 18.109375 8.203125 
z
M 48.6875 27.296875 
Q 48.6875 37.203125 44.609375 42.84375 
Q 40.53125 48.484375 33.40625 48.484375 
Q 26.265625 48.484375 22.1875 42.84375 
Q 18.109375 37.203125 18.109375 27.296875 
Q 18.109375 17.390625 22.1875 11.75 
Q 26.265625 6.109375 33.40625 6.109375 
Q 40.53125 6.109375 44.609375 11.75 
Q 48.6875 17.390625 48.6875 27.296875 
z
" id="DejaVuSans-112"/>
      <path d="M 9.421875 75.984375 
L 18.40625 75.984375 
L 18.40625 0 
L 9.421875 0 
z
" id="DejaVuSans-108"/>
      <path d="M 9.421875 54.6875 
L 18.40625 54.6875 
L 18.40625 0 
L 9.421875 0 
z
M 9.421875 75.984375 
L 18.40625 75.984375 
L 18.40625 64.59375 
L 9.421875 64.59375 
z
" id="DejaVuSans-105"/>
      <path d="M 18.3125 70.21875 
L 18.3125 54.6875 
L 36.8125 54.6875 
L 36.8125 47.703125 
L 18.3125 47.703125 
L 18.3125 18.015625 
Q 18.3125 11.328125 20.140625 9.421875 
Q 21.96875 7.515625 27.59375 7.515625 
L 36.8125 7.515625 
L 36.8125 0 
L 27.59375 0 
Q 17.1875 0 13.234375 3.875 
Q 9.28125 7.765625 9.28125 18.015625 
L 9.28125 47.703125 
L 2.6875 47.703125 
L 2.6875 54.6875 
L 9.28125 54.6875 
L 9.28125 70.21875 
z
" id="DejaVuSans-116"/>
      <path d="M 45.40625 46.390625 
L 45.40625 75.984375 
L 54.390625 75.984375 
L 54.390625 0 
L 45.40625 0 
L 45.40625 8.203125 
Q 42.578125 3.328125 38.25 0.953125 
Q 33.9375 -1.421875 27.875 -1.421875 
Q 17.96875 -1.421875 11.734375 6.484375 
Q 5.515625 14.40625 5.515625 27.296875 
Q 5.515625 40.1875 11.734375 48.09375 
Q 17.96875 56 27.875 56 
Q 33.9375 56 38.25 53.625 
Q 42.578125 51.265625 45.40625 46.390625 
z
M 14.796875 27.296875 
Q 14.796875 17.390625 18.875 11.75 
Q 22.953125 6.109375 30.078125 6.109375 
Q 37.203125 6.109375 41.296875 11.75 
Q 45.40625 17.390625 45.40625 27.296875 
Q 45.40625 37.203125 41.296875 42.84375 
Q 37.203125 48.484375 30.078125 48.484375 
Q 22.953125 48.484375 18.875 42.84375 
Q 14.796875 37.203125 14.796875 27.296875 
z
" id="DejaVuSans-100"/>
     </defs>
     <g transform="translate(31.795312 200.150656)rotate(-90)scale(0.1 -0.1)">
      <use xlink:href="#DejaVuSans-65"/>
      <use x="68.408203" xlink:href="#DejaVuSans-109"/>
      <use x="165.820312" xlink:href="#DejaVuSans-112"/>
      <use x="229.296875" xlink:href="#DejaVuSans-108"/>
      <use x="257.080078" xlink:href="#DejaVuSans-105"/>
      <use x="284.863281" xlink:href="#DejaVuSans-116"/>
      <use x="324.072266" xlink:href="#DejaVuSans-117"/>
      <use x="387.451172" xlink:href="#DejaVuSans-100"/>
      <use x="450.927734" xlink:href="#DejaVuSans-101"/>
     </g>
    </g>
   </g>
   <g id="line2d_12">
    <path clip-path="url(#p02b637ad00)" d="M 73.832727 295.107738 
L 73.940982 295.383512 
L 74.049236 295.311715 
L 74.265744 295.483354 
L 74.590507 294.921776 
L 74.807016 294.995661 
L 74.91527 294.758356 
L 75.131778 294.998988 
L 75.240033 295.238754 
L 75.456541 295.150076 
L 75.564796 295.125485 
L 75.67305 295.239161 
L 75.997813 294.760296 
L 76.214321 294.993115 
L 76.322575 294.922613 
L 76.647338 295.484186 
L 76.755592 295.469927 
L 76.863847 295.311226 
L 76.972101 295.383423 
L 77.080355 295.107508 
L 77.18861 295.383419 
L 77.296864 295.31195 
L 77.513372 295.482431 
L 77.838135 294.920291 
L 78.054644 294.992456 
L 78.162898 294.755603 
L 78.379406 294.997183 
L 78.487661 295.238018 
L 78.704169 295.149658 
L 78.812424 295.125205 
L 78.920678 295.239243 
L 79.245441 294.76143 
L 79.461949 294.993674 
L 79.570203 294.922807 
L 79.894966 295.484929 
L 80.00322 295.470519 
L 80.111475 295.310481 
L 80.219729 295.383152 
L 80.327983 295.106817 
L 80.436238 295.383145 
L 80.544492 295.311932 
L 80.761 295.481411 
L 81.085763 294.918151 
L 81.302272 294.988658 
L 81.410526 294.752022 
L 81.627034 294.994799 
L 81.735289 295.236952 
L 81.951797 295.14882 
L 82.060052 295.124482 
L 82.168306 295.238999 
L 82.493069 294.761767 
L 82.709577 294.993663 
L 82.817831 294.922359 
L 83.142594 295.485587 
L 83.250848 295.471015 
L 83.359103 295.309476 
L 83.467357 295.382698 
L 83.575611 295.105661 
L 83.683866 295.382687 
L 83.79212 295.311661 
L 84.008628 295.480289 
L 84.333391 294.915345 
L 84.5499 294.984249 
L 84.658154 294.747596 
L 84.874662 294.991822 
L 84.982917 295.235548 
L 85.199425 295.147559 
L 85.30768 295.123313 
L 85.415934 295.238429 
L 85.740697 294.761306 
L 85.957205 294.993083 
L 86.065459 294.921266 
L 86.390222 295.486162 
L 86.498476 295.471417 
L 86.606731 295.308205 
L 86.714985 295.382059 
L 86.823239 295.104034 
L 86.931494 295.382043 
L 87.039748 295.311137 
L 87.256256 295.47906 
L 87.581019 294.911858 
L 87.797528 294.979205 
L 87.905782 294.7423 
L 88.12229 294.988238 
L 88.230545 295.233801 
L 88.447053 295.145866 
L 88.555308 295.121691 
L 88.663562 295.237529 
L 88.988325 294.760046 
L 89.204833 294.991931 
L 89.313087 294.919522 
L 89.63785 295.486657 
L 89.746104 295.471726 
L 89.854359 295.306663 
L 89.962613 295.38123 
L 90.070867 295.101928 
L 90.179122 295.381211 
L 90.287376 295.310355 
L 90.503884 295.477718 
L 90.828647 294.907673 
L 91.045156 294.973501 
L 91.15341 294.736107 
L 91.369918 294.984028 
L 91.478173 295.2317 
L 91.694681 295.143734 
L 91.802936 295.119607 
L 91.91119 295.236295 
L 92.235953 294.75798 
L 92.452461 294.990199 
L 92.560715 294.917118 
L 92.885478 295.487073 
L 92.993732 295.471945 
L 93.101987 295.304841 
L 93.210241 295.380208 
L 93.318495 295.099332 
L 93.42675 295.380185 
L 93.535004 295.309312 
L 93.751512 295.476255 
L 94.076275 294.902767 
L 94.292784 294.967105 
L 94.401038 294.728985 
L 94.617546 294.979169 
L 94.725801 295.229234 
L 94.942309 295.141151 
L 95.050564 295.117052 
L 95.158818 295.23472 
L 95.483581 294.755097 
L 95.700089 294.98788 
L 95.808343 294.914043 
L 96.133106 295.487412 
L 96.24136 295.472073 
L 96.349615 295.302729 
L 96.457869 295.378988 
L 96.566123 295.096232 
L 96.674378 295.37896 
L 96.782632 295.308003 
L 96.99914 295.474662 
L 97.323903 294.897113 
L 97.540412 294.959982 
L 97.648666 294.720895 
L 97.865174 294.973634 
L 97.973429 295.226391 
L 98.189937 295.138103 
L 98.298192 295.114011 
L 98.406446 295.232796 
L 98.731209 294.751384 
L 98.947717 294.984961 
L 99.055971 294.910279 
L 99.380734 295.487674 
L 99.488988 295.47211 
L 99.597243 295.300315 
L 99.705497 295.377562 
L 99.813751 295.092611 
L 99.922006 295.37753 
L 100.03026 295.30642 
L 100.246768 295.472932 
L 100.571531 294.890681 
L 100.78804 294.952094 
L 100.896294 294.711792 
L 101.112802 294.967394 
L 101.221057 295.223154 
L 101.437565 295.134573 
L 101.54582 295.110468 
L 101.654074 295.230514 
L 101.978837 294.74682 
L 102.195345 294.981427 
L 102.303599 294.905806 
L 102.628362 295.48786 
L 102.736616 295.472057 
L 102.844871 295.297586 
L 102.953125 295.375923 
L 103.061379 295.088448 
L 103.169634 295.375886 
L 103.277888 295.304555 
L 103.494396 295.471052 
L 103.819159 294.883435 
L 104.035668 294.943393 
L 104.143922 294.701623 
L 104.36043 294.960412 
L 104.468685 295.219506 
L 104.685193 295.130542 
L 104.793448 295.106402 
L 104.901702 295.227859 
L 105.226465 294.741382 
L 105.442973 294.977258 
L 105.551227 294.900601 
L 105.87599 295.487969 
L 105.984244 295.471913 
L 106.092499 295.294527 
L 106.200753 295.374061 
L 106.309007 295.083722 
L 106.417262 295.37402 
L 106.525516 295.302398 
L 106.742024 295.469012 
L 107.066787 294.875331 
L 107.283296 294.933828 
L 107.39155 294.69033 
L 107.608058 294.952648 
L 107.716313 295.215424 
L 107.932821 295.125987 
L 108.041076 295.101792 
L 108.14933 295.224818 
L 108.474093 294.735041 
L 108.690601 294.972434 
L 108.798855 294.894634 
L 109.123618 295.488 
L 109.231872 295.471676 
L 109.340127 295.291119 
L 109.448381 295.371966 
L 109.556635 295.078403 
L 109.66489 295.37192 
L 109.773144 295.299936 
L 109.989652 295.466798 
L 110.314415 294.866323 
L 110.530924 294.923341 
L 110.639178 294.677844 
L 110.855686 294.944055 
L 110.963941 295.210886 
L 111.180449 295.12088 
L 111.288704 295.096611 
L 111.396958 295.221374 
L 111.721721 294.727762 
L 111.938229 294.966926 
L 112.046483 294.887873 
L 112.371246 295.487952 
L 112.4795 295.471344 
L 112.587755 295.287342 
L 112.696009 295.369625 
L 112.804263 295.072461 
L 112.912518 295.369574 
L 113.020772 295.297156 
L 113.23728 295.464394 
L 113.562043 294.856356 
L 113.778552 294.911865 
L 113.886806 294.664088 
L 114.103314 294.93458 
L 114.211569 295.205863 
L 114.428077 295.115192 
L 114.536332 295.090827 
L 114.644586 295.217506 
L 114.969349 294.719506 
L 115.185857 294.960704 
L 115.294111 294.880278 
L 115.618874 295.487823 
L 115.727128 295.470915 
L 115.835383 295.283172 
L 115.943637 295.367025 
L 116.051891 295.06586 
L 116.160146 295.366968 
L 116.2684 295.294042 
L 116.484908 295.461783 
L 116.809671 294.845365 
L 117.02618 294.899322 
L 117.134434 294.648974 
L 117.350942 294.924162 
L 117.459197 295.200323 
L 117.675705 295.108887 
L 117.78396 295.084405 
L 117.892214 295.213192 
L 118.216977 294.710227 
L 118.325231 294.982362 
L 118.541739 294.871803 
L 118.866502 295.48761 
L 118.974756 295.470385 
L 119.083011 295.278582 
L 119.191265 295.364149 
L 119.299519 295.058557 
L 119.407774 295.364085 
L 119.516028 295.290574 
L 119.732536 295.458946 
L 120.057299 294.83328 
L 120.273808 294.885628 
L 120.382062 294.632399 
L 120.59857 294.912731 
L 120.706825 295.19423 
L 120.923333 295.101925 
L 121.031587 295.077305 
L 121.139842 295.208406 
L 121.464605 294.69987 
L 121.572859 294.977095 
L 121.789367 294.862399 
L 122.11413 295.487308 
L 122.222384 295.469751 
L 122.330639 295.273542 
L 122.438893 295.360977 
L 122.547147 295.050506 
L 122.655401 295.360907 
L 122.763656 295.286731 
L 122.980164 295.45586 
L 123.304927 294.820019 
L 123.521436 294.870684 
L 123.62969 294.61425 
L 123.846198 294.900208 
L 123.954453 295.187542 
L 124.170961 295.094259 
L 124.279215 295.069481 
L 124.38747 295.203117 
L 124.712233 294.688373 
L 124.820487 294.971168 
L 125.036995 294.852005 
L 125.361758 295.486913 
L 125.470012 295.469007 
L 125.578267 295.268015 
L 125.686521 295.35749 
L 125.794775 295.041653 
L 125.903029 295.357413 
L 126.011284 295.282489 
L 126.227792 295.452499 
L 126.552555 294.805486 
L 126.769064 294.854376 
L 126.877318 294.594393 
L 127.093826 294.886502 
L 127.202081 295.180213 
L 127.418589 295.085836 
L 127.526843 295.060879 
L 127.635098 295.19729 
L 127.959861 294.675668 
L 128.068115 294.964552 
L 128.284623 294.840553 
L 128.609386 295.486418 
L 128.71764 295.468148 
L 128.825895 295.261961 
L 128.934149 295.353661 
L 129.042403 295.031933 
L 129.150657 295.353577 
L 129.258912 295.277819 
L 129.47542 295.448833 
L 129.800183 294.789575 
L 130.016692 294.836575 
L 130.124946 294.572679 
L 130.341454 294.871509 
L 130.449709 295.172188 
L 130.666217 295.076596 
L 130.774471 295.051438 
L 130.882726 295.190887 
L 131.207489 294.661673 
L 131.315743 294.957212 
L 131.532251 294.827967 
L 131.857014 295.485816 
L 131.965268 295.467166 
L 132.073523 295.255334 
L 132.181777 295.349464 
L 132.290031 295.021278 
L 132.398285 295.349371 
L 132.50654 295.27269 
L 132.723048 295.444828 
L 133.047811 294.772163 
L 133.26432 294.817133 
L 133.372574 294.548933 
L 133.589082 294.85511 
L 133.697337 295.163404 
L 133.913845 295.06647 
L 134.022099 295.04109 
L 134.130354 295.183862 
L 134.455117 294.646296 
L 134.563371 294.949112 
L 134.779879 294.814158 
L 135.104642 295.485095 
L 135.212896 295.466053 
L 135.321151 295.248082 
L 135.429405 295.344866 
L 135.537659 295.009603 
L 135.645913 295.344764 
L 135.754168 295.267063 
L 135.970676 295.440444 
L 136.295439 294.753106 
L 136.403693 294.831286 
L 136.511948 294.795879 
L 136.620202 294.522955 
L 136.83671 294.837168 
L 136.944965 295.15379 
L 137.161473 295.055376 
L 137.269727 295.029753 
L 137.377982 295.176164 
L 137.702745 294.629432 
L 137.810999 294.940208 
L 138.027507 294.799024 
L 138.35227 295.484245 
L 138.460524 295.464799 
L 138.568779 295.240141 
L 138.677033 295.33983 
L 138.785287 294.996815 
L 138.893541 295.339718 
L 139.001796 295.260898 
L 139.218304 295.435634 
L 139.543067 294.732241 
L 139.651321 294.811696 
L 139.759576 294.772613 
L 139.86783 294.494515 
L 140.084338 294.817522 
L 140.192593 295.143262 
L 140.409101 295.043224 
L 140.517355 295.017336 
L 140.62561 295.167732 
L 140.950373 294.610962 
L 141.058627 294.930451 
L 141.275135 294.782448 
L 141.599898 295.483248 
L 141.708152 295.46339 
L 141.816407 295.231441 
L 141.924661 295.334312 
L 142.032915 294.982806 
L 142.141169 295.334189 
L 142.249424 295.254144 
L 142.465932 295.430343 
L 142.790695 294.709379 
L 142.898949 294.790226 
L 143.007204 294.747104 
L 143.115458 294.463343 
L 143.331966 294.795988 
L 143.440221 295.131725 
L 143.656729 295.029906 
L 143.764983 295.003732 
L 143.873238 295.158499 
L 144.198001 294.590748 
L 144.306255 294.919788 
L 144.522763 294.764297 
L 144.847526 295.482085 
L 144.95578 295.461812 
L 145.064035 295.221899 
L 145.172289 295.328264 
L 145.280543 294.967447 
L 145.388797 295.328129 
L 145.497052 295.246746 
L 145.71356 295.424508 
L 146.038323 294.684296 
L 146.146577 294.766661 
L 146.254832 294.719082 
L 146.363086 294.429127 
L 146.579594 294.772352 
L 146.687849 295.119067 
L 146.904357 295.015297 
L 147.012611 294.988817 
L 147.120866 295.148384 
L 147.445629 294.568632 
L 147.553883 294.908157 
L 147.770391 294.744414 
L 148.095154 295.480731 
L 148.203408 295.460047 
L 148.311663 295.211419 
L 148.419917 295.321628 
L 148.528171 294.950593 
L 148.636425 295.321478 
L 148.74468 295.238638 
L 148.961188 295.418051 
L 149.285951 294.656736 
L 149.394205 294.740753 
L 149.50246 294.688228 
L 149.610714 294.3915 
L 149.827222 294.746359 
L 149.935477 295.105156 
L 150.151985 294.999254 
L 150.260239 294.972447 
L 150.368494 295.137297 
L 150.693257 294.544431 
L 150.801511 294.895492 
L 151.018019 294.72262 
L 151.342782 295.479154 
L 151.451036 295.458071 
L 151.559291 295.199886 
L 151.667545 295.314335 
L 151.775799 294.93207 
L 151.884053 295.31417 
L 151.992308 295.229744 
L 152.208816 295.410883 
L 152.533579 294.626391 
L 152.641833 294.712206 
L 152.750088 294.654166 
L 152.858342 294.350027 
L 153.07485 294.717712 
L 153.183105 295.089839 
L 153.291359 294.940511 
L 153.616122 295.125129 
L 153.940885 294.517937 
L 154.049139 294.881715 
L 154.265647 294.698704 
L 154.59041 295.477312 
L 154.698664 295.455856 
L 154.806919 295.187167 
L 154.915173 295.306307 
L 155.023427 294.911676 
L 155.131681 295.306123 
L 155.239936 295.219976 
L 155.456444 295.402892 
L 155.781207 294.592903 
L 155.889461 294.68067 
L 155.997716 294.616444 
L 156.10597 294.304195 
L 156.322478 294.686057 
L 156.430733 295.072933 
L 156.538987 294.919301 
L 156.86375 295.111755 
L 157.188513 294.488903 
L 157.296767 294.866744 
L 157.513275 294.67242 
L 157.838038 295.475153 
L 157.946292 295.453367 
L 158.054547 295.173101 
L 158.162801 295.297448 
L 158.271055 294.88917 
L 158.379309 295.297244 
L 158.487564 295.209228 
L 158.704072 295.393947 
L 159.028835 294.55584 
L 159.137089 294.645729 
L 159.245344 294.574525 
L 159.353598 294.253388 
L 159.570106 294.650971 
L 159.678361 295.054219 
L 159.786615 294.895856 
L 160.111378 295.097027 
L 160.436141 294.457046 
L 160.544395 294.850484 
L 160.760903 294.643478 
L 161.085666 295.472607 
L 161.19392 295.450558 
L 161.302175 295.157496 
L 161.410429 295.287647 
L 161.518683 294.864264 
L 161.626937 295.287419 
L 161.735192 295.197378 
L 161.9517 295.383885 
L 162.276463 294.514686 
L 162.384717 294.606879 
L 162.492972 294.527755 
L 162.601226 294.196864 
L 162.817734 294.611943 
L 162.925989 295.033436 
L 163.034243 294.869857 
L 163.359006 295.080768 
L 163.683769 294.422031 
L 163.792023 294.832833 
L 164.008531 294.611531 
L 164.333294 295.469584 
L 164.441548 295.447372 
L 164.549803 295.140122 
L 164.658057 295.276767 
L 164.766311 294.836615 
L 164.874565 295.276511 
L 164.98282 295.184277 
L 165.199328 295.372507 
L 165.524091 294.468814 
L 165.632345 294.563509 
L 165.7406 294.475334 
L 165.848854 294.13372 
L 166.065362 294.568352 
L 166.173617 295.010267 
L 166.281871 294.840924 
L 166.606634 295.062769 
L 166.931397 294.383464 
L 167.039651 294.813676 
L 167.256159 294.576168 
L 167.580922 295.465963 
L 167.689176 295.443732 
L 167.797431 295.120694 
L 167.905685 295.264645 
L 168.013939 294.805801 
L 168.122193 295.264357 
L 168.230448 295.169748 
L 168.446956 295.359562 
L 168.771719 294.41746 
L 168.879973 294.51487 
L 168.988228 294.416278 
L 169.096482 294.06285 
L 169.31299 294.519438 
L 169.421245 294.984322 
L 169.529499 294.808591 
L 169.854262 295.042775 
L 170.179025 294.340874 
L 170.287279 294.792889 
L 170.503787 294.53689 
L 170.82855 295.461586 
L 170.936804 295.439536 
L 171.045059 295.098865 
L 171.153313 295.25108 
L 171.261567 294.771311 
L 171.369821 295.250753 
L 171.478076 295.153576 
L 171.694584 295.344737 
L 172.019347 294.359675 
L 172.127601 294.460032 
L 172.235856 294.349356 
L 172.34411 293.982876 
L 172.560618 294.464253 
L 172.668873 294.95512 
L 172.777127 294.772283 
L 173.10189 295.020476 
L 173.426653 294.293699 
L 173.534907 294.770339 
L 173.751415 294.493091 
L 174.076178 295.456235 
L 174.184432 295.434649 
L 174.292687 295.0742 
L 174.400941 295.235822 
L 174.509195 294.732506 
L 174.617449 295.235449 
L 174.725704 295.135497 
L 174.942212 295.327631 
L 175.266975 294.294274 
L 175.375229 294.397829 
L 175.483484 294.273013 
L 175.591738 293.892068 
L 175.808246 294.401609 
L 175.916501 294.922059 
L 176.024755 294.731281 
L 176.349518 294.995491 
L 176.674281 294.24126 
L 176.782535 294.745884 
L 176.999043 294.444022 
L 177.323806 295.44962 
L 177.43206 295.428881 
L 177.540315 295.046149 
L 177.648569 295.218559 
L 177.756823 294.688587 
L 177.865077 295.21813 
L 177.973332 295.115182 
L 178.18984 295.307725 
L 178.514603 294.219754 
L 178.622857 294.326774 
L 178.731112 294.185257 
L 178.839366 293.788222 
L 179.055874 294.329988 
L 179.164129 294.884371 
L 179.272383 294.684678 
L 179.597146 294.967345 
L 179.921909 294.182726 
L 180.030163 294.719381 
L 180.246671 294.388751 
L 180.571434 295.441341 
L 180.679688 295.421972 
L 180.787943 295.014008 
L 180.896197 295.198893 
L 181.004451 294.638533 
L 181.112705 295.198393 
L 181.22096 295.09222 
L 181.437468 295.284335 
L 181.762231 294.134179 
L 181.870485 294.244949 
L 181.97874 294.083493 
L 182.086994 293.668482 
L 182.303502 294.247427 
L 182.411757 294.84107 
L 182.520011 294.631304 
L 182.844774 294.935436 
L 183.169537 294.117069 
L 183.277791 294.690689 
L 183.494299 294.326094 
L 183.819062 295.430842 
L 183.927316 295.413547 
L 184.035571 294.976857 
L 184.143825 295.176306 
L 184.252079 294.581022 
L 184.360333 295.17572 
L 184.468588 295.066081 
L 184.685096 295.256547 
L 185.009859 294.035011 
L 185.118113 294.149826 
L 185.226368 293.964277 
L 185.334622 293.529082 
L 185.659385 294.790856 
L 185.767639 294.569631 
L 186.092402 294.898989 
L 186.30891 294.008378 
L 186.417165 294.043003 
L 186.525419 294.659689 
L 186.741927 294.254529 
L 187.06669 295.417349 
L 187.174944 295.403064 
L 187.283199 294.933473 
L 187.391453 295.15012 
L 187.499707 294.514309 
L 187.607961 295.149421 
L 187.716216 295.036079 
L 187.932724 295.223111 
L 188.257487 293.918852 
L 188.365741 294.03801 
L 188.58225 293.364953 
L 188.907013 294.731987 
L 189.015267 294.497615 
L 189.34003 294.856989 
L 189.556538 293.906204 
L 189.664793 293.958888 
L 189.773047 294.626306 
L 189.989555 294.172053 
L 190.314318 295.399753 
L 190.422572 295.389721 
L 190.530827 294.882191 
L 190.639081 295.119416 
L 190.747335 294.436031 
L 190.855589 295.118568 
L 190.963844 295.001297 
L 191.180352 295.182275 
L 191.829878 293.169107 
L 192.154641 294.66207 
L 192.262895 294.412456 
L 192.587658 294.808073 
L 192.804166 293.786636 
L 192.912421 293.862597 
L 193.020675 294.590557 
L 193.237183 294.075973 
L 193.561946 295.376447 
L 193.6702 295.372305 
L 193.778455 294.820686 
L 193.886709 295.082918 
L 193.994963 294.34291 
L 194.103217 295.081871 
L 194.211472 294.960482 
L 194.42798 295.131519 
L 195.077506 292.93162 
L 195.402269 294.577716 
L 195.510523 294.310211 
L 195.727031 294.377885 
L 195.835286 294.750359 
L 196.051794 293.644763 
L 196.160049 293.751301 
L 196.268303 294.552626 
L 196.484811 293.962555 
L 196.809574 295.345024 
L 196.917828 295.348933 
L 197.026083 294.745601 
L 197.134337 295.038806 
L 197.242591 294.230244 
L 197.350845 295.03748 
L 197.4591 294.911863 
L 197.675608 295.067092 
L 198.325134 292.637922 
L 198.649897 294.473963 
L 198.758151 294.18512 
L 198.974659 294.266177 
L 199.082914 294.681161 
L 199.299422 293.473505 
L 199.407676 293.621129 
L 199.515931 294.513 
L 199.732439 293.826441 
L 200.057202 295.301757 
L 200.165456 295.316604 
L 200.273711 294.651899 
L 200.381965 294.984366 
L 200.490219 294.091024 
L 200.598473 294.982636 
L 200.706728 294.852841 
L 200.923236 294.983183 
L 201.572762 292.265694 
L 201.897525 294.343223 
L 202.005779 294.028405 
L 202.222287 294.127217 
L 202.330542 294.596479 
L 202.54705 293.262196 
L 202.655304 293.466585 
L 202.763559 294.472676 
L 202.980067 293.659588 
L 203.30483 295.240607 
L 203.413084 295.270347 
L 203.521339 294.531659 
L 203.629593 294.915366 
L 203.737847 293.91427 
L 203.846101 294.913016 
L 203.954356 294.779398 
L 204.170864 294.870335 
L 204.387373 294.094668 
L 204.495627 292.823933 
L 204.603881 292.966096 
L 204.82039 291.778918 
L 205.145153 294.173258 
L 205.253407 293.825945 
L 205.469915 293.949087 
L 205.57817 294.490026 
L 205.794678 292.99385 
L 205.902932 293.279463 
L 206.011187 294.433458 
L 206.227695 293.449204 
L 206.552458 295.151188 
L 206.660712 295.201501 
L 206.768967 294.371632 
L 206.877221 294.824773 
L 206.985475 293.681686 
L 207.093729 294.821411 
L 207.201984 294.684915 
L 207.418492 294.712151 
L 207.635001 293.865474 
L 207.743255 292.377625 
L 207.851509 292.521589 
L 208.068018 291.115416 
L 208.392781 293.942913 
L 208.501035 293.553368 
L 208.717543 293.711252 
L 208.825798 294.351186 
L 209.042306 292.639355 
L 209.15056 293.046641 
L 209.258815 294.398033 
L 209.475323 293.173332 
L 209.800086 295.014208 
L 209.90834 295.093862 
L 210.016595 294.147819 
L 210.124849 294.699914 
L 210.233103 293.36015 
L 210.341357 294.694748 
L 210.557866 294.537214 
L 210.66612 294.477729 
L 210.882629 293.542123 
L 210.990883 291.742827 
L 211.099137 291.883505 
L 211.315646 290.157744 
L 211.640409 293.612044 
L 211.748663 293.164426 
L 211.965171 293.374716 
L 212.073426 294.1602 
L 212.289934 292.143553 
L 212.398188 292.74495 
L 212.506443 294.367711 
L 212.722951 292.790032 
L 212.93946 294.391872 
L 213.155968 294.913818 
L 213.264223 293.811676 
L 213.372477 294.515233 
L 213.480731 292.882462 
L 213.588985 294.506432 
L 213.913748 294.101657 
L 214.130257 293.048779 
L 214.238511 290.764635 
L 214.346765 290.889267 
L 214.563274 288.653994 
L 214.888037 293.09367 
L 214.996291 292.55867 
L 215.212799 292.854312 
L 215.321054 293.874663 
L 215.429308 293.136392 
L 215.537562 291.385508 
L 215.645816 292.326732 
L 215.754071 294.322674 
L 215.970579 292.205601 
L 216.187088 294.08979 
L 216.403596 294.57991 
L 216.511851 293.247642 
L 216.620105 294.20982 
L 216.728359 292.0871 
L 216.836613 294.192193 
L 216.944868 294.072808 
L 217.377885 292.195028 
L 217.486139 289.049997 
L 217.594393 289.121733 
L 217.810902 285.947401 
L 218.135665 292.156228 
L 218.243919 291.466829 
L 218.460427 291.918449 
L 218.568682 293.380611 
L 218.676936 292.571363 
L 218.78519 290.030712 
L 219.001699 294.073164 
L 219.218207 291.15023 
L 219.434716 293.476279 
L 219.54297 293.493871 
L 219.651224 293.836274 
L 219.759479 292.095427 
L 219.867733 293.592134 
L 219.975987 290.45894 
L 220.084241 293.544723 
L 220.192496 293.464181 
L 220.517258 290.797503 
L 220.625513 290.322877 
L 220.842021 285.088376 
L 221.05853 279.612727 
L 221.383293 289.902611 
L 221.491547 288.827502 
L 221.708055 289.62063 
L 221.81631 292.210834 
L 221.924564 291.287958 
L 222.032818 286.637571 
L 222.249327 292.262705 
L 222.465835 288.341682 
L 222.682344 291.542134 
L 222.790598 290.556542 
L 222.898852 291.294626 
L 223.007107 288.36556 
L 223.115361 291.572034 
L 223.223615 284.963723 
L 223.440124 291.314926 
L 223.656632 285.574038 
L 223.873141 282.523152 
L 224.197904 251.650832 
L 224.306158 247.175486 
L 224.414412 260.009654 
L 224.522666 257.987021 
L 224.630921 276.104957 
L 224.847429 271.258317 
L 224.955683 271.698515 
L 225.063938 282.528695 
L 225.172192 279.424459 
L 225.280446 248.591075 
L 225.3887 272.204391 
L 225.713463 180.304605 
L 225.929972 53.568 
L 226.14648 238.404707 
L 226.254735 242.725055 
L 226.362989 274.954395 
L 226.471243 252.241185 
L 226.687752 284.805604 
L 226.90426 271.409177 
L 227.012514 272.737964 
L 227.120769 276.025546 
L 227.229023 259.258005 
L 227.337277 260.521935 
L 227.445532 246.798722 
L 227.553786 250.910384 
L 227.770294 269.306669 
L 227.878549 284.251626 
L 227.986803 283.88419 
L 228.203311 287.604592 
L 228.311566 292.881154 
L 228.41982 292.718777 
L 228.528074 288.12387 
L 228.636328 292.355781 
L 228.744583 284.589734 
L 228.961091 291.508226 
L 229.069346 292.790826 
L 229.285854 288.816515 
L 229.610617 293.191534 
L 229.718871 289.539071 
L 229.93538 293.620869 
L 230.151888 288.885402 
L 230.368397 290.704203 
L 230.69316 278.848203 
L 230.801414 280.659032 
L 230.909668 287.173958 
L 231.017922 286.196756 
L 231.126177 291.677867 
L 231.234431 291.613292 
L 231.342685 291.67989 
L 231.559194 295.384168 
L 231.667448 293.055669 
L 231.775702 293.901068 
L 231.992211 287.336348 
L 232.208719 293.486359 
L 232.316974 294.766041 
L 232.533482 291.129968 
L 232.749991 292.912496 
L 232.858245 294.450896 
L 232.966499 292.580852 
L 233.074753 294.507358 
L 233.183008 294.172965 
L 233.399516 291.021882 
L 233.616025 293.204364 
L 233.940788 284.815423 
L 234.049042 286.847374 
L 234.157296 291.474783 
L 234.26555 290.091868 
L 234.373805 293.566936 
L 234.482059 293.551644 
L 234.590313 293.093393 
L 234.806822 294.621531 
L 234.915076 291.917101 
L 235.02333 293.7221 
L 235.239839 286.960585 
L 235.456347 292.380843 
L 235.564602 294.375776 
L 235.78111 291.521739 
L 235.889364 292.102331 
L 236.105873 294.763182 
L 236.214127 293.281612 
L 236.322381 294.763182 
L 236.647144 291.521739 
L 236.863653 294.375776 
L 237.188416 286.960585 
L 237.404924 293.7221 
L 237.513178 291.917101 
L 237.621433 294.621531 
L 237.837941 293.093393 
L 238.05445 293.566936 
L 238.162704 290.091868 
L 238.270958 291.474783 
L 238.487467 284.815423 
L 238.703975 290.263142 
L 238.81223 293.204364 
L 239.028738 291.021882 
L 239.136992 291.588126 
L 239.353501 294.507358 
L 239.461755 292.580852 
L 239.570009 294.450896 
L 239.894772 291.129968 
L 240.111281 294.766041 
L 240.327789 291.993281 
L 240.436044 287.336348 
L 240.652552 293.901068 
L 240.760806 293.055669 
L 240.869061 295.384168 
L 241.085569 291.67989 
L 241.193823 291.613292 
L 241.302078 291.677867 
L 241.410332 286.196756 
L 241.518586 287.173958 
L 241.735095 278.848203 
L 241.951603 285.566867 
L 242.059858 290.704203 
L 242.276366 288.885402 
L 242.38462 289.554141 
L 242.492875 293.620869 
L 242.601129 293.376563 
L 242.709383 289.539071 
L 242.817637 293.191534 
L 243.034146 290.075998 
L 243.1424 288.816515 
L 243.358909 292.790826 
L 243.575417 290.599848 
L 243.683672 284.589734 
L 243.791926 292.355781 
L 243.90018 288.12387 
L 244.116689 292.881154 
L 244.333197 285.193278 
L 244.441451 283.88419 
L 244.549706 284.251626 
L 244.874468 250.910384 
L 244.982723 246.798722 
L 245.090977 260.521935 
L 245.199231 259.258005 
L 245.307486 276.025546 
L 245.523994 271.409177 
L 245.632248 271.510046 
L 245.740503 284.805604 
L 245.848757 281.587248 
L 245.957011 252.241185 
L 246.065265 274.954395 
L 246.390028 180.474596 
L 246.498282 53.568 
L 246.606537 59.757625 
L 246.823045 238.099718 
L 246.9313 245.030852 
L 247.039554 272.204391 
L 247.147808 248.591075 
L 247.364317 282.528695 
L 247.580825 271.258317 
L 247.689079 271.48853 
L 247.797334 276.104957 
L 247.905588 257.987021 
L 248.013842 260.009654 
L 248.122096 247.175486 
L 248.230351 251.650832 
L 248.555114 282.523152 
L 248.663368 283.418329 
L 248.988131 291.314926 
L 249.096385 291.301119 
L 249.204639 284.963723 
L 249.312893 291.572034 
L 249.421148 288.36556 
L 249.529402 291.294626 
L 249.637656 290.556542 
L 249.74591 291.542134 
L 249.854165 290.675796 
L 249.962419 288.341682 
L 250.178928 292.262705 
L 250.395436 286.637571 
L 250.611945 292.210834 
L 250.828453 289.290519 
L 250.936707 288.827502 
L 251.044962 289.902611 
L 251.26147 283.868323 
L 251.369724 279.612727 
L 251.477979 281.0149 
L 251.802742 290.322877 
L 251.910996 290.797503 
L 252.235759 293.464181 
L 252.344013 293.544723 
L 252.452267 290.45894 
L 252.560521 293.592134 
L 252.668776 292.095427 
L 252.77703 293.836274 
L 253.101793 292.716228 
L 253.210047 291.15023 
L 253.426556 294.073164 
L 253.643064 290.030712 
L 253.859573 293.380611 
L 254.076081 291.790348 
L 254.184335 291.466829 
L 254.29259 292.156228 
L 254.509098 288.334662 
L 254.617352 285.947401 
L 254.725607 286.984904 
L 254.833861 289.121733 
L 254.942115 289.049997 
L 255.158624 292.597194 
L 255.375132 293.59515 
L 255.591641 294.192193 
L 255.699895 292.0871 
L 255.808149 294.20982 
L 255.916404 293.247642 
L 256.024658 294.57991 
L 256.241166 294.08979 
L 256.457675 292.205601 
L 256.565929 292.900051 
L 256.674184 294.322674 
L 256.890692 291.385508 
L 257.107201 293.874663 
L 257.323709 292.803563 
L 257.431963 292.55867 
L 257.540218 293.09367 
L 257.756726 290.252193 
L 257.86498 288.653994 
L 258.62276 294.200406 
L 258.839269 294.506432 
L 258.947523 292.882462 
L 259.055777 294.515233 
L 259.164032 293.811676 
L 259.272286 294.913818 
L 259.38054 294.789858 
L 259.597049 293.852029 
L 259.705303 292.790032 
L 259.921812 294.367711 
L 260.13832 292.143553 
L 260.354829 294.1602 
L 260.571337 293.360325 
L 260.679591 293.164426 
L 260.787846 293.612044 
L 261.004354 291.330105 
L 261.112608 290.157744 
L 261.762134 294.477729 
L 262.086897 294.694748 
L 262.195151 293.36015 
L 262.303405 294.699914 
L 262.41166 294.147819 
L 262.519914 295.093862 
L 262.628168 295.014208 
L 262.844677 294.107293 
L 262.952931 293.173332 
L 263.16944 294.398033 
L 263.385948 292.639355 
L 263.602457 294.351186 
L 263.818965 293.716017 
L 263.927219 293.553368 
L 264.035474 293.942913 
L 264.251982 292.025638 
L 264.360236 291.115416 
L 264.576745 292.521589 
L 264.684999 292.377625 
L 264.901508 294.160915 
L 265.118016 294.748908 
L 265.226271 294.684915 
L 265.334525 294.821411 
L 265.442779 293.681686 
L 265.551033 294.824773 
L 265.659288 294.371632 
L 265.767542 295.201501 
L 265.875796 295.151188 
L 266.200559 293.449204 
L 266.417068 294.433458 
L 266.633576 292.99385 
L 266.850085 294.490026 
L 267.066593 293.964647 
L 267.174847 293.825945 
L 267.283102 294.173258 
L 267.49961 292.513761 
L 267.607864 291.778918 
L 267.824373 292.966096 
L 267.932627 292.823933 
L 268.149136 294.366846 
L 268.365644 294.892814 
L 268.473899 294.779398 
L 268.582153 294.913016 
L 268.690407 293.91427 
L 268.798661 294.915366 
L 268.906916 294.531659 
L 269.01517 295.270347 
L 269.123424 295.240607 
L 269.448187 293.659588 
L 269.664696 294.472676 
L 269.881204 293.262196 
L 270.097713 294.596479 
L 270.314221 294.149098 
L 270.422475 294.028405 
L 270.53073 294.343223 
L 270.747238 292.876209 
L 270.855492 292.265694 
L 271.072001 293.293579 
L 271.180255 293.155324 
L 271.396764 294.518498 
L 271.613272 294.996178 
L 271.721527 294.852841 
L 271.829781 294.982636 
L 271.938035 294.091024 
L 272.046289 294.984366 
L 272.154544 294.651899 
L 272.371052 295.301757 
L 272.695815 293.826441 
L 272.912324 294.513 
L 273.128832 293.473505 
L 273.345341 294.681161 
L 273.453595 294.266177 
L 273.561849 294.291821 
L 273.670103 294.18512 
L 273.778358 294.473963 
L 273.994866 293.156446 
L 274.10312 292.637922 
L 274.319629 293.54485 
L 274.427883 293.411311 
L 274.644392 294.63476 
L 274.8609 295.073527 
L 274.969155 294.911863 
L 275.077409 295.03748 
L 275.185663 294.230244 
L 275.293917 295.038806 
L 275.402172 294.745601 
L 275.61868 295.345024 
L 275.943443 293.962555 
L 276.159951 294.552626 
L 276.37646 293.644763 
L 276.592969 294.750359 
L 276.701223 294.377885 
L 276.809477 294.405758 
L 276.917731 294.310211 
L 277.025986 294.577716 
L 277.242494 293.379792 
L 277.350748 292.93162 
L 277.567257 293.743672 
L 277.675511 293.615055 
L 277.89202 294.726665 
L 278.108528 295.133279 
L 278.216783 294.960482 
L 278.325037 295.081871 
L 278.433291 294.34291 
L 278.541545 295.082918 
L 278.6498 294.820686 
L 278.866308 295.376447 
L 279.191071 294.075973 
L 279.407579 294.590557 
L 279.624088 293.786636 
L 279.840597 294.808073 
L 279.948851 294.469776 
L 280.057105 294.498924 
L 280.165359 294.412456 
L 280.273614 294.66207 
L 280.598376 293.169107 
L 280.814885 293.90483 
L 280.923139 293.781052 
L 281.139648 294.801088 
L 281.356156 295.180623 
L 281.464411 295.001297 
L 281.572665 295.118568 
L 281.680919 294.436031 
L 281.789173 295.119416 
L 281.897428 294.882191 
L 282.113936 295.399753 
L 282.438699 294.172053 
L 282.655207 294.626306 
L 282.871716 293.906204 
L 283.088225 294.856989 
L 283.196479 294.546749 
L 283.521242 294.731987 
L 283.846004 293.364953 
L 284.062513 294.03801 
L 284.170767 293.918852 
L 284.387276 294.862535 
L 284.603784 295.218922 
L 284.712039 295.036079 
L 284.820293 295.149421 
L 284.928547 294.514309 
L 285.036801 295.15012 
L 285.145056 294.933473 
L 285.361564 295.417349 
L 285.686327 294.254529 
L 285.902835 294.659689 
L 286.119344 294.008378 
L 286.335853 294.898989 
L 286.444107 294.612177 
L 286.76887 294.790856 
L 287.093632 293.529082 
L 287.310141 294.149826 
L 287.418395 294.035011 
L 287.634904 294.91408 
L 287.851412 295.250444 
L 287.959667 295.066081 
L 288.067921 295.17572 
L 288.176175 294.581022 
L 288.284429 295.176306 
L 288.392684 294.976857 
L 288.609192 295.430842 
L 288.933955 294.326094 
L 289.150463 294.690689 
L 289.366972 294.096682 
L 289.583481 294.935436 
L 289.691735 294.668463 
L 290.016498 294.84107 
L 290.34126 293.668482 
L 290.557769 294.244949 
L 290.666023 294.134179 
L 290.882532 294.957897 
L 291.09904 295.276771 
L 291.207295 295.09222 
L 291.315549 295.198393 
L 291.423803 294.638533 
L 291.532057 295.198893 
L 291.640312 295.014008 
L 291.85682 295.441341 
L 292.181583 294.388751 
L 292.398091 294.719381 
L 292.6146 294.173724 
L 292.831109 294.967345 
L 292.939363 294.717372 
L 293.264126 294.884371 
L 293.588888 293.788222 
L 293.805397 294.326774 
L 293.913651 294.219754 
L 294.13016 294.995561 
L 294.346668 295.299033 
L 294.454923 295.115182 
L 294.563177 295.21813 
L 294.671431 294.688587 
L 294.779685 295.218559 
L 294.88794 295.046149 
L 295.104448 295.44962 
L 295.429211 294.444022 
L 295.645719 294.745884 
L 295.862228 294.241475 
L 296.078737 294.995491 
L 296.295245 294.789946 
L 296.403499 294.731281 
L 296.511754 294.922059 
L 296.836516 293.892068 
L 297.053025 294.397829 
L 297.161279 294.294274 
L 297.377788 295.028248 
L 297.594296 295.318063 
L 297.702551 295.135497 
L 297.810805 295.235449 
L 297.919059 294.732506 
L 298.027313 295.235822 
L 298.135568 295.0742 
L 298.352076 295.456235 
L 298.676839 294.493091 
L 298.893347 294.770339 
L 299.109856 294.301459 
L 299.326365 295.020476 
L 299.542873 294.827456 
L 299.651127 294.772283 
L 299.759382 294.95512 
L 300.084144 293.982876 
L 300.300653 294.460032 
L 300.408907 294.359675 
L 300.625416 295.056846 
L 300.841924 295.334483 
L 300.950179 295.153576 
L 301.058433 295.250753 
L 301.166687 294.771311 
L 301.274941 295.25108 
L 301.383196 295.098865 
L 301.599704 295.461586 
L 301.924467 294.53689 
L 302.140975 294.792889 
L 302.357484 294.354874 
L 302.573993 295.042775 
L 302.790501 294.860692 
L 302.898755 294.808591 
L 303.00701 294.984322 
L 303.331772 294.06285 
L 303.548281 294.51487 
L 303.656535 294.41746 
L 303.873044 295.082046 
L 304.089552 295.348769 
L 304.197807 295.169748 
L 304.306061 295.264357 
L 304.414315 294.805801 
L 304.522569 295.264645 
L 304.630824 295.120694 
L 304.847332 295.465963 
L 305.172095 294.576168 
L 305.388603 294.813676 
L 305.605112 294.402674 
L 305.821621 295.062769 
L 306.038129 294.890305 
L 306.146383 294.840924 
L 306.254638 295.010267 
L 306.5794 294.13372 
L 306.795909 294.563509 
L 306.904163 294.468814 
L 307.120672 295.104386 
L 307.33718 295.361287 
L 307.445435 295.184277 
L 307.553689 295.276511 
L 307.661943 294.836615 
L 307.770197 295.276767 
L 307.878452 295.140122 
L 308.09496 295.469584 
L 308.419723 294.611531 
L 308.636231 294.832833 
L 308.85274 294.445631 
L 309.069249 295.080768 
L 309.285757 294.916817 
L 309.394011 294.869857 
L 309.502266 295.033436 
L 309.827028 294.196864 
L 310.043537 294.606879 
L 310.151791 294.514686 
L 310.3683 295.124298 
L 310.584808 295.372327 
L 310.693063 295.197378 
L 310.801317 295.287419 
L 310.909571 294.864264 
L 311.017825 295.287647 
L 311.12608 295.157496 
L 311.342588 295.472607 
L 311.667351 294.643478 
L 311.883859 294.850484 
L 311.992114 294.457046 
L 312.100368 294.484377 
L 312.316877 295.097027 
L 312.533385 294.94065 
L 312.641639 294.895856 
L 312.749894 295.054219 
L 313.074656 294.253388 
L 313.291165 294.645729 
L 313.399419 294.55584 
L 313.615928 295.142127 
L 313.832436 295.382119 
L 313.940691 295.209228 
L 314.048945 295.297244 
L 314.157199 294.88917 
L 314.265453 295.297448 
L 314.373708 295.173101 
L 314.590216 295.475153 
L 314.914979 294.67242 
L 315.131487 294.866744 
L 315.239742 294.488903 
L 315.347996 294.519432 
L 315.564505 295.111755 
L 315.781013 294.96215 
L 315.889267 294.919301 
L 315.997522 295.072933 
L 316.322284 294.304195 
L 316.538793 294.68067 
L 316.647047 294.592903 
L 316.863556 295.158157 
L 317.080064 295.390848 
L 317.188319 295.219976 
L 317.296573 295.306123 
L 317.404827 294.911676 
L 317.513081 295.306307 
L 317.621336 295.187167 
L 317.837844 295.477312 
L 318.162607 294.698704 
L 318.379115 294.881715 
L 318.48737 294.517937 
L 318.595624 294.551229 
L 318.812133 295.125129 
L 319.028641 294.981605 
L 319.136895 294.940511 
L 319.24515 295.089839 
L 319.569912 294.350027 
L 319.786421 294.712206 
L 319.894675 294.626391 
L 320.111184 295.17262 
L 320.327692 295.398665 
L 320.435947 295.229744 
L 320.544201 295.31417 
L 320.652455 294.93207 
L 320.760709 295.314335 
L 320.868964 295.199886 
L 321.085472 295.479154 
L 321.410235 294.72262 
L 321.626743 294.895492 
L 321.734998 294.544431 
L 321.843252 294.580134 
L 322.059761 295.137297 
L 322.276269 294.999254 
L 322.384523 294.959746 
L 322.492778 295.105156 
L 322.81754 294.3915 
L 323.034049 294.740753 
L 323.142303 294.656736 
L 323.358812 295.185707 
L 323.57532 295.405694 
L 323.683575 295.238638 
L 323.791829 295.321478 
L 323.900083 294.950593 
L 324.008337 295.321628 
L 324.116592 295.211419 
L 324.3331 295.480731 
L 324.657863 294.744414 
L 324.874371 294.908157 
L 324.982626 294.568632 
L 325.09088 294.606454 
L 325.307389 295.148384 
L 325.523897 295.015297 
L 325.632151 294.97723 
L 325.740406 295.119067 
L 326.065168 294.429127 
L 326.281677 294.766661 
L 326.389931 294.684296 
L 326.60644 295.197581 
L 326.822948 295.412036 
L 326.931203 295.246746 
L 327.039457 295.328129 
L 327.147711 294.967447 
L 327.255965 295.328264 
L 327.36422 295.221899 
L 327.580728 295.482085 
L 327.905491 294.764297 
L 328.121999 294.919788 
L 328.230254 294.590748 
L 328.338508 294.630452 
L 328.555017 295.158499 
L 328.771525 295.029906 
L 328.879779 294.993148 
L 328.988034 295.131725 
L 329.312796 294.463343 
L 329.529305 294.790226 
L 329.637559 294.709379 
L 329.854068 295.208377 
L 330.070576 295.417777 
L 330.178831 295.254144 
L 330.287085 295.334189 
L 330.395339 294.982806 
L 330.503593 295.334312 
L 330.611848 295.231441 
L 330.828356 295.483248 
L 331.153119 294.782448 
L 331.369627 294.930451 
L 331.477882 294.610962 
L 331.586136 294.652351 
L 331.802645 295.167732 
L 332.019153 295.043224 
L 332.127407 295.007662 
L 332.235662 295.143262 
L 332.560424 294.494515 
L 332.776933 294.811696 
L 332.885187 294.732241 
L 333.101696 295.218211 
L 333.318204 295.422988 
L 333.426459 295.260898 
L 333.534713 295.339718 
L 333.642967 294.996815 
L 333.751221 295.33983 
L 333.859476 295.240141 
L 334.075984 295.484245 
L 334.400747 294.799024 
L 334.617255 294.940208 
L 334.72551 294.629432 
L 334.833764 294.672346 
L 335.050273 295.176164 
L 335.266781 295.055376 
L 335.375035 295.020907 
L 335.48329 295.15379 
L 335.808052 294.522955 
L 336.024561 294.831286 
L 336.132815 294.753106 
L 336.349324 295.22718 
L 336.565832 295.427731 
L 336.674087 295.267063 
L 336.782341 295.344764 
L 336.890595 295.009603 
L 336.998849 295.344866 
L 337.107104 295.248082 
L 337.323612 295.485095 
L 337.648375 294.814158 
L 337.864883 294.949112 
L 337.973138 294.646296 
L 338.081392 294.690602 
L 338.297901 295.183862 
L 338.514409 295.06647 
L 338.622663 295.033 
L 338.730918 295.163404 
L 339.05568 294.548933 
L 339.272189 294.849178 
L 339.380443 294.772163 
L 339.596952 295.235369 
L 339.81346 295.432056 
L 339.921715 295.27269 
L 340.029969 295.349371 
L 340.138223 295.021278 
L 340.246477 295.349464 
L 340.354732 295.255334 
L 340.57124 295.485816 
L 340.896003 294.827967 
L 341.112511 294.957212 
L 341.220766 294.661673 
L 341.32902 294.707264 
L 341.545529 295.190887 
L 341.762037 295.076596 
L 341.870291 295.044044 
L 341.978546 295.172188 
L 342.303308 294.572679 
L 342.519817 294.86553 
L 342.628071 294.789575 
L 342.952834 295.448833 
L 343.061088 295.436007 
L 343.169343 295.277819 
L 343.277597 295.353577 
L 343.385851 295.031933 
L 343.494105 295.353661 
L 343.60236 295.261961 
L 343.818868 295.486418 
L 344.143631 294.840553 
L 344.360139 294.964552 
L 344.468394 294.675668 
L 344.576648 294.722458 
L 344.793157 295.19729 
L 345.009665 295.085836 
L 345.117919 295.054125 
L 345.226174 295.180213 
L 345.550936 294.594393 
L 345.767445 294.880477 
L 345.875699 294.805486 
L 346.200462 295.452499 
L 346.308716 295.439623 
L 346.416971 295.282489 
L 346.525225 295.357413 
L 346.633479 295.041653 
L 346.741733 295.35749 
L 346.849988 295.268015 
L 347.066496 295.486913 
L 347.391259 294.852005 
L 347.607767 294.971168 
L 347.716022 294.688373 
L 347.824276 294.736293 
L 348.040785 295.203117 
L 348.257293 295.094259 
L 348.365547 295.063321 
L 348.473802 295.187542 
L 348.798564 294.61425 
L 349.015073 294.894139 
L 349.123327 294.820019 
L 349.44809 295.45586 
L 349.556344 295.442936 
L 349.664599 295.286731 
L 349.772853 295.360907 
L 349.881107 295.050506 
L 349.989361 295.360977 
L 350.097616 295.273542 
L 350.314124 295.487308 
L 350.638887 294.862399 
L 350.855395 294.977095 
L 350.96365 294.69987 
L 351.071904 294.748864 
L 351.288413 295.208406 
L 351.504921 295.101925 
L 351.613175 295.071698 
L 351.72143 295.19423 
L 352.046192 294.632399 
L 352.262701 294.906619 
L 352.370955 294.83328 
L 352.695718 295.458946 
L 352.803972 295.445974 
L 352.912226 295.290574 
L 353.020481 295.364085 
L 353.128735 295.058557 
L 353.236989 295.364149 
L 353.345244 295.278582 
L 353.561752 295.48761 
L 353.886515 294.871803 
L 354.103023 294.982362 
L 354.211278 294.710227 
L 354.319532 294.760255 
L 354.53604 295.213192 
L 354.752549 295.108887 
L 354.860803 295.079314 
L 354.969058 295.200323 
L 355.29382 294.648974 
L 355.510329 294.918006 
L 355.618583 294.845365 
L 355.943346 295.461783 
L 356.0516 295.448762 
L 356.159854 295.294042 
L 356.268109 295.366968 
L 356.376363 295.06586 
L 356.484617 295.367025 
L 356.592872 295.283172 
L 356.80938 295.487823 
L 357.134143 294.880278 
L 357.350651 294.986995 
L 357.458906 294.719506 
L 357.56716 294.770539 
L 357.783668 295.217506 
L 358.000177 295.115192 
L 358.108431 295.086221 
L 358.216686 295.205863 
L 358.541448 294.664088 
L 358.757957 294.928379 
L 358.866211 294.856356 
L 359.190974 295.464394 
L 359.299228 295.451322 
L 359.407482 295.297156 
L 359.515737 295.369574 
L 359.623991 295.072461 
L 359.732245 295.369625 
L 359.8405 295.287342 
L 360.057008 295.487952 
L 360.381771 294.887873 
L 360.598279 294.991016 
L 360.706534 294.727762 
L 360.814788 294.779779 
L 361.031296 295.221374 
L 361.247805 295.12088 
L 361.356059 295.092462 
L 361.464314 295.210886 
L 361.789076 294.677844 
L 362.005585 294.937808 
L 362.113839 294.866323 
L 362.438602 295.466798 
L 362.546856 295.453671 
L 362.65511 295.299936 
L 362.763365 295.37192 
L 362.871619 295.078403 
L 362.979873 295.371966 
L 363.088128 295.291119 
L 363.304636 295.488 
L 363.629399 294.894634 
L 363.845907 294.994444 
L 363.954162 294.735041 
L 364.062416 294.788031 
L 364.278924 295.224818 
L 364.495433 295.125987 
L 364.603687 295.098076 
L 364.711942 295.215424 
L 365.036704 294.69033 
L 365.253213 294.946352 
L 365.361467 294.875331 
L 365.68623 295.469012 
L 365.794484 295.455827 
L 365.902738 295.302398 
L 366.010993 295.37402 
L 366.119247 295.083722 
L 366.227501 295.374061 
L 366.335756 295.294527 
L 366.552264 295.487969 
L 366.877027 294.900601 
L 367.093535 294.997296 
L 367.20179 294.741382 
L 367.310044 294.795344 
L 367.526552 295.227859 
L 367.743061 295.130542 
L 367.851315 295.103098 
L 367.95957 295.219506 
L 368.284332 294.701623 
L 368.500841 294.954064 
L 368.609095 294.883435 
L 368.933858 295.471052 
L 369.042112 295.457805 
L 369.150366 295.304555 
L 369.258621 295.375886 
L 369.366875 295.088448 
L 369.475129 295.375923 
L 369.583384 295.297586 
L 369.799892 295.48786 
L 370.124655 294.905806 
L 370.341163 294.999584 
L 370.449418 294.74682 
L 370.557672 294.801759 
L 370.77418 295.230514 
L 370.990689 295.134573 
L 371.098943 295.107556 
L 371.207198 295.223154 
L 371.53196 294.711792 
L 371.748469 294.960991 
L 371.856723 294.890681 
L 372.181486 295.472932 
L 372.28974 295.459616 
L 372.397994 295.30642 
L 372.506249 295.37753 
L 372.614503 295.092611 
L 372.722757 295.377562 
L 372.831012 295.300315 
L 373.04752 295.487674 
L 373.372283 294.910279 
L 373.588791 295.001318 
L 373.697046 294.751384 
L 373.8053 294.807312 
L 374.021808 295.232796 
L 374.238317 295.138103 
L 374.346571 295.111477 
L 374.454826 295.226391 
L 374.779588 294.720895 
L 374.996097 294.967173 
L 375.104351 294.897113 
L 375.429114 295.474662 
L 375.537368 295.461273 
L 375.645622 295.308003 
L 375.753877 295.37896 
L 375.862131 295.096232 
L 375.970385 295.378988 
L 376.07864 295.302729 
L 376.295148 295.487412 
L 376.619911 294.914043 
L 376.836419 295.002507 
L 376.944674 294.755097 
L 377.052928 294.812032 
L 377.269436 295.23472 
L 377.485945 295.141151 
L 377.594199 295.114882 
L 377.702454 295.229234 
L 378.027216 294.728985 
L 378.243725 294.972645 
L 378.351979 294.902767 
L 378.676742 295.476255 
L 378.784996 295.462785 
L 378.89325 295.309312 
L 379.001505 295.380185 
L 379.109759 295.099332 
L 379.218013 295.380208 
L 379.326268 295.304841 
L 379.542776 295.487073 
L 379.867539 294.917118 
L 380.084047 295.003155 
L 380.192302 294.75798 
L 380.40881 294.997941 
L 380.517064 295.236295 
L 380.733573 295.143734 
L 380.841827 295.117789 
L 380.950082 295.2317 
L 381.274844 294.736107 
L 381.491353 294.977438 
L 381.599607 294.907673 
L 381.92437 295.477718 
L 382.032624 295.46416 
L 382.140878 295.310355 
L 382.249133 295.381211 
L 382.357387 295.101928 
L 382.465641 295.38123 
L 382.573896 295.306663 
L 382.790404 295.486657 
L 383.115167 294.919522 
L 383.331675 295.003265 
L 383.43993 294.760046 
L 383.656438 294.999527 
L 383.764692 295.237529 
L 383.981201 295.145866 
L 384.089455 295.120215 
L 384.19771 295.233801 
L 384.522472 294.7423 
L 384.738981 294.981576 
L 384.847235 294.911858 
L 385.171998 295.47906 
L 385.280252 295.465407 
L 385.388506 295.311137 
L 385.496761 295.382043 
L 385.605015 295.104034 
L 385.713269 295.382059 
L 385.821524 295.308205 
L 386.038032 295.486162 
L 386.362795 294.921266 
L 386.579303 295.002838 
L 386.687558 294.761306 
L 386.904066 295.000544 
L 387.01232 295.238429 
L 387.228829 295.147559 
L 387.337083 295.122173 
L 387.445338 295.235548 
L 387.7701 294.747596 
L 387.986609 294.985084 
L 388.094863 294.915345 
L 388.419626 295.480289 
L 388.52788 295.466533 
L 388.636134 295.311661 
L 388.744389 295.382687 
L 388.852643 295.105661 
L 388.960897 295.382698 
L 389.069152 295.309476 
L 389.28566 295.485587 
L 389.610423 294.922359 
L 389.826931 295.00187 
L 389.935186 294.761767 
L 390.151694 295.000997 
L 390.259948 295.238999 
L 390.476457 295.14882 
L 390.584711 295.123672 
L 390.692966 295.236952 
L 391.017728 294.752022 
L 391.234237 294.987978 
L 391.342491 294.918151 
L 391.667254 295.481411 
L 391.775508 295.467543 
L 391.883762 295.311932 
L 391.992017 295.383145 
L 392.100271 295.106817 
L 392.208525 295.383152 
L 392.31678 295.310481 
L 392.533288 295.484929 
L 392.858051 294.922807 
L 393.074559 295.000357 
L 393.182814 294.76143 
L 393.399322 295.00089 
L 393.507576 295.239243 
L 393.724085 295.149658 
L 393.832339 295.124721 
L 393.940594 295.238018 
L 394.265356 294.755603 
L 394.481865 294.990274 
L 394.590119 294.920291 
L 394.914882 295.482431 
L 395.023136 295.468442 
L 395.13139 295.31195 
L 395.239645 295.383419 
L 395.347899 295.107508 
L 395.456153 295.383423 
L 395.564408 295.311226 
L 395.780916 295.484186 
L 396.105679 294.922613 
L 396.322187 294.998291 
L 396.430442 294.760296 
L 396.64695 295.000221 
L 396.755204 295.239161 
L 396.971713 295.150076 
L 397.079967 295.125324 
L 397.188222 295.238754 
L 397.512984 294.758356 
L 397.729493 294.991983 
L 397.837747 294.921776 
L 398.16251 295.483354 
L 398.270764 295.469235 
L 398.379018 295.311715 
L 398.487273 295.383512 
L 398.487273 295.383512 
" style="fill:none;stroke:#1f77b4;stroke-linecap:square;stroke-width:1.5;"/>
   </g>
   <g id="patch_3">
    <path d="M 57.6 307.584 
L 57.6 41.472 
" style="fill:none;stroke:#000000;stroke-linecap:square;stroke-linejoin:miter;stroke-width:0.8;"/>
   </g>
   <g id="patch_4">
    <path d="M 414.72 307.584 
L 414.72 41.472 
" style="fill:none;stroke:#000000;stroke-linecap:square;stroke-linejoin:miter;stroke-width:0.8;"/>
   </g>
   <g id="patch_5">
    <path d="M 57.6 307.584 
L 414.72 307.584 
" style="fill:none;stroke:#000000;stroke-linecap:square;stroke-linejoin:miter;stroke-width:0.8;"/>
   </g>
   <g id="patch_6">
    <path d="M 57.6 41.472 
L 414.72 41.472 
" style="fill:none;stroke:#000000;stroke-linecap:square;stroke-linejoin:miter;stroke-width:0.8;"/>
   </g>
   <g id="text_14">
    <!-- Frequency Domain, Time=(29, 30) -->
    <defs>
     <path id="DejaVuSans-32"/>
     <path d="M 19.671875 64.796875 
L 19.671875 8.109375 
L 31.59375 8.109375 
Q 46.6875 8.109375 53.6875 14.9375 
Q 60.6875 21.78125 60.6875 36.53125 
Q 60.6875 51.171875 53.6875 57.984375 
Q 46.6875 64.796875 31.59375 64.796875 
z
M 9.8125 72.90625 
L 30.078125 72.90625 
Q 51.265625 72.90625 61.171875 64.09375 
Q 71.09375 55.28125 71.09375 36.53125 
Q 71.09375 17.671875 61.125 8.828125 
Q 51.171875 0 30.078125 0 
L 9.8125 0 
z
" id="DejaVuSans-68"/>
     <path d="M 30.609375 48.390625 
Q 23.390625 48.390625 19.1875 42.75 
Q 14.984375 37.109375 14.984375 27.296875 
Q 14.984375 17.484375 19.15625 11.84375 
Q 23.34375 6.203125 30.609375 6.203125 
Q 37.796875 6.203125 41.984375 11.859375 
Q 46.1875 17.53125 46.1875 27.296875 
Q 46.1875 37.015625 41.984375 42.703125 
Q 37.796875 48.390625 30.609375 48.390625 
z
M 30.609375 56 
Q 42.328125 56 49.015625 48.375 
Q 55.71875 40.765625 55.71875 27.296875 
Q 55.71875 13.875 49.015625 6.21875 
Q 42.328125 -1.421875 30.609375 -1.421875 
Q 18.84375 -1.421875 12.171875 6.21875 
Q 5.515625 13.875 5.515625 27.296875 
Q 5.515625 40.765625 12.171875 48.375 
Q 18.84375 56 30.609375 56 
z
" id="DejaVuSans-111"/>
     <path d="M 34.28125 27.484375 
Q 23.390625 27.484375 19.1875 25 
Q 14.984375 22.515625 14.984375 16.5 
Q 14.984375 11.71875 18.140625 8.90625 
Q 21.296875 6.109375 26.703125 6.109375 
Q 34.1875 6.109375 38.703125 11.40625 
Q 43.21875 16.703125 43.21875 25.484375 
L 43.21875 27.484375 
z
M 52.203125 31.203125 
L 52.203125 0 
L 43.21875 0 
L 43.21875 8.296875 
Q 40.140625 3.328125 35.546875 0.953125 
Q 30.953125 -1.421875 24.3125 -1.421875 
Q 15.921875 -1.421875 10.953125 3.296875 
Q 6 8.015625 6 15.921875 
Q 6 25.140625 12.171875 29.828125 
Q 18.359375 34.515625 30.609375 34.515625 
L 43.21875 34.515625 
L 43.21875 35.40625 
Q 43.21875 41.609375 39.140625 45 
Q 35.0625 48.390625 27.6875 48.390625 
Q 23 48.390625 18.546875 47.265625 
Q 14.109375 46.140625 10.015625 43.890625 
L 10.015625 52.203125 
Q 14.9375 54.109375 19.578125 55.046875 
Q 24.21875 56 28.609375 56 
Q 40.484375 56 46.34375 49.84375 
Q 52.203125 43.703125 52.203125 31.203125 
z
" id="DejaVuSans-97"/>
     <path d="M 11.71875 12.40625 
L 22.015625 12.40625 
L 22.015625 4 
L 14.015625 -11.625 
L 7.71875 -11.625 
L 11.71875 4 
z
" id="DejaVuSans-44"/>
     <path d="M -0.296875 72.90625 
L 61.375 72.90625 
L 61.375 64.59375 
L 35.5 64.59375 
L 35.5 0 
L 25.59375 0 
L 25.59375 64.59375 
L -0.296875 64.59375 
z
" id="DejaVuSans-84"/>
     <path d="M 10.59375 45.40625 
L 73.1875 45.40625 
L 73.1875 37.203125 
L 10.59375 37.203125 
z
M 10.59375 25.484375 
L 73.1875 25.484375 
L 73.1875 17.1875 
L 10.59375 17.1875 
z
" id="DejaVuSans-61"/>
     <path d="M 10.984375 1.515625 
L 10.984375 10.5 
Q 14.703125 8.734375 18.5 7.8125 
Q 22.3125 6.890625 25.984375 6.890625 
Q 35.75 6.890625 40.890625 13.453125 
Q 46.046875 20.015625 46.78125 33.40625 
Q 43.953125 29.203125 39.59375 26.953125 
Q 35.25 24.703125 29.984375 24.703125 
Q 19.046875 24.703125 12.671875 31.3125 
Q 6.296875 37.9375 6.296875 49.421875 
Q 6.296875 60.640625 12.9375 67.421875 
Q 19.578125 74.21875 30.609375 74.21875 
Q 43.265625 74.21875 49.921875 64.515625 
Q 56.59375 54.828125 56.59375 36.375 
Q 56.59375 19.140625 48.40625 8.859375 
Q 40.234375 -1.421875 26.421875 -1.421875 
Q 22.703125 -1.421875 18.890625 -0.6875 
Q 15.09375 0.046875 10.984375 1.515625 
z
M 30.609375 32.421875 
Q 37.25 32.421875 41.125 36.953125 
Q 45.015625 41.5 45.015625 49.421875 
Q 45.015625 57.28125 41.125 61.84375 
Q 37.25 66.40625 30.609375 66.40625 
Q 23.96875 66.40625 20.09375 61.84375 
Q 16.21875 57.28125 16.21875 49.421875 
Q 16.21875 41.5 20.09375 36.953125 
Q 23.96875 32.421875 30.609375 32.421875 
z
" id="DejaVuSans-57"/>
     <path d="M 40.578125 39.3125 
Q 47.65625 37.796875 51.625 33 
Q 55.609375 28.21875 55.609375 21.1875 
Q 55.609375 10.40625 48.1875 4.484375 
Q 40.765625 -1.421875 27.09375 -1.421875 
Q 22.515625 -1.421875 17.65625 -0.515625 
Q 12.796875 0.390625 7.625 2.203125 
L 7.625 11.71875 
Q 11.71875 9.328125 16.59375 8.109375 
Q 21.484375 6.890625 26.8125 6.890625 
Q 36.078125 6.890625 40.9375 10.546875 
Q 45.796875 14.203125 45.796875 21.1875 
Q 45.796875 27.640625 41.28125 31.265625 
Q 36.765625 34.90625 28.71875 34.90625 
L 20.21875 34.90625 
L 20.21875 43.015625 
L 29.109375 43.015625 
Q 36.375 43.015625 40.234375 45.921875 
Q 44.09375 48.828125 44.09375 54.296875 
Q 44.09375 59.90625 40.109375 62.90625 
Q 36.140625 65.921875 28.71875 65.921875 
Q 24.65625 65.921875 20.015625 65.03125 
Q 15.375 64.15625 9.8125 62.3125 
L 9.8125 71.09375 
Q 15.4375 72.65625 20.34375 73.4375 
Q 25.25 74.21875 29.59375 74.21875 
Q 40.828125 74.21875 47.359375 69.109375 
Q 53.90625 64.015625 53.90625 55.328125 
Q 53.90625 49.265625 50.4375 45.09375 
Q 46.96875 40.921875 40.578125 39.3125 
z
" id="DejaVuSans-51"/>
    </defs>
    <g transform="translate(131.941875 35.472)scale(0.12 -0.12)">
     <use xlink:href="#DejaVuSans-70"/>
     <use x="57.410156" xlink:href="#DejaVuSans-114"/>
     <use x="98.492188" xlink:href="#DejaVuSans-101"/>
     <use x="160.015625" xlink:href="#DejaVuSans-113"/>
     <use x="223.492188" xlink:href="#DejaVuSans-117"/>
     <use x="286.871094" xlink:href="#DejaVuSans-101"/>
     <use x="348.394531" xlink:href="#DejaVuSans-110"/>
     <use x="411.773438" xlink:href="#DejaVuSans-99"/>
     <use x="466.753906" xlink:href="#DejaVuSans-121"/>
     <use x="525.933594" xlink:href="#DejaVuSans-32"/>
     <use x="557.720703" xlink:href="#DejaVuSans-68"/>
     <use x="634.722656" xlink:href="#DejaVuSans-111"/>
     <use x="695.904297" xlink:href="#DejaVuSans-109"/>
     <use x="793.316406" xlink:href="#DejaVuSans-97"/>
     <use x="854.595703" xlink:href="#DejaVuSans-105"/>
     <use x="882.378906" xlink:href="#DejaVuSans-110"/>
     <use x="945.757812" xlink:href="#DejaVuSans-44"/>
     <use x="977.544922" xlink:href="#DejaVuSans-32"/>
     <use x="1009.332031" xlink:href="#DejaVuSans-84"/>
     <use x="1070.369141" xlink:href="#DejaVuSans-105"/>
     <use x="1098.152344" xlink:href="#DejaVuSans-109"/>
     <use x="1195.564453" xlink:href="#DejaVuSans-101"/>
     <use x="1257.087891" xlink:href="#DejaVuSans-61"/>
     <use x="1340.876953" xlink:href="#DejaVuSans-40"/>
     <use x="1379.890625" xlink:href="#DejaVuSans-50"/>
     <use x="1443.513672" xlink:href="#DejaVuSans-57"/>
     <use x="1507.136719" xlink:href="#DejaVuSans-44"/>
     <use x="1538.923828" xlink:href="#DejaVuSans-32"/>
     <use x="1570.710938" xlink:href="#DejaVuSans-51"/>
     <use x="1634.333984" xlink:href="#DejaVuSans-48"/>
     <use x="1697.957031" xlink:href="#DejaVuSans-41"/>
    </g>
   </g>
  </g>
 </g>
 <defs>
  <clipPath id="p02b637ad00">
   <rect height="266.112" width="357.12" x="57.6" y="41.472"/>
  </clipPath>
 </defs>
</svg>
