<?xml version="1.0" encoding="utf-8" standalone="no"?>
<!DOCTYPE svg PUBLIC "-//W3C//DTD SVG 1.1//EN"
  "http://www.w3.org/Graphics/SVG/1.1/DTD/svg11.dtd">
<!-- Created with matplotlib (https://matplotlib.org/) -->
<svg height="345.6pt" version="1.1" viewBox="0 0 460.8 345.6" width="460.8pt" xmlns="http://www.w3.org/2000/svg" xmlns:xlink="http://www.w3.org/1999/xlink">
 <defs>
  <style type="text/css">
*{stroke-linecap:butt;stroke-linejoin:round;}
  </style>
 </defs>
 <g id="figure_1">
  <g id="patch_1">
   <path d="M 0 345.6 
L 460.8 345.6 
L 460.8 0 
L 0 0 
z
" style="fill:#ffffff;"/>
  </g>
  <g id="axes_1">
   <g id="patch_2">
    <path d="M 57.6 307.584 
L 414.72 307.584 
L 414.72 41.472 
L 57.6 41.472 
z
" style="fill:#ffffff;"/>
   </g>
   <g id="matplotlib.axis_1">
    <g id="xtick_1">
     <g id="line2d_1">
      <defs>
       <path d="M 0 0 
L 0 3.5 
" id="m59ec97c008" style="stroke:#000000;stroke-width:0.8;"/>
      </defs>
      <g>
       <use style="stroke:#000000;stroke-width:0.8;" x="73.832727" xlink:href="#m59ec97c008" y="307.584"/>
      </g>
     </g>
     <g id="text_1">
      <!-- 0 -->
      <defs>
       <path d="M 31.78125 66.40625 
Q 24.171875 66.40625 20.328125 58.90625 
Q 16.5 51.421875 16.5 36.375 
Q 16.5 21.390625 20.328125 13.890625 
Q 24.171875 6.390625 31.78125 6.390625 
Q 39.453125 6.390625 43.28125 13.890625 
Q 47.125 21.390625 47.125 36.375 
Q 47.125 51.421875 43.28125 58.90625 
Q 39.453125 66.40625 31.78125 66.40625 
z
M 31.78125 74.21875 
Q 44.046875 74.21875 50.515625 64.515625 
Q 56.984375 54.828125 56.984375 36.375 
Q 56.984375 17.96875 50.515625 8.265625 
Q 44.046875 -1.421875 31.78125 -1.421875 
Q 19.53125 -1.421875 13.0625 8.265625 
Q 6.59375 17.96875 6.59375 36.375 
Q 6.59375 54.828125 13.0625 64.515625 
Q 19.53125 74.21875 31.78125 74.21875 
z
" id="DejaVuSans-48"/>
      </defs>
      <g transform="translate(70.651477 322.182437)scale(0.1 -0.1)">
       <use xlink:href="#DejaVuSans-48"/>
      </g>
     </g>
    </g>
    <g id="xtick_2">
     <g id="line2d_2">
      <g>
       <use style="stroke:#000000;stroke-width:0.8;" x="138.776625" xlink:href="#m59ec97c008" y="307.584"/>
      </g>
     </g>
     <g id="text_2">
      <!-- 1 -->
      <defs>
       <path d="M 12.40625 8.296875 
L 28.515625 8.296875 
L 28.515625 63.921875 
L 10.984375 60.40625 
L 10.984375 69.390625 
L 28.421875 72.90625 
L 38.28125 72.90625 
L 38.28125 8.296875 
L 54.390625 8.296875 
L 54.390625 0 
L 12.40625 0 
z
" id="DejaVuSans-49"/>
      </defs>
      <g transform="translate(135.595375 322.182437)scale(0.1 -0.1)">
       <use xlink:href="#DejaVuSans-49"/>
      </g>
     </g>
    </g>
    <g id="xtick_3">
     <g id="line2d_3">
      <g>
       <use style="stroke:#000000;stroke-width:0.8;" x="203.720523" xlink:href="#m59ec97c008" y="307.584"/>
      </g>
     </g>
     <g id="text_3">
      <!-- 2 -->
      <defs>
       <path d="M 19.1875 8.296875 
L 53.609375 8.296875 
L 53.609375 0 
L 7.328125 0 
L 7.328125 8.296875 
Q 12.9375 14.109375 22.625 23.890625 
Q 32.328125 33.6875 34.8125 36.53125 
Q 39.546875 41.84375 41.421875 45.53125 
Q 43.3125 49.21875 43.3125 52.78125 
Q 43.3125 58.59375 39.234375 62.25 
Q 35.15625 65.921875 28.609375 65.921875 
Q 23.96875 65.921875 18.8125 64.3125 
Q 13.671875 62.703125 7.8125 59.421875 
L 7.8125 69.390625 
Q 13.765625 71.78125 18.9375 73 
Q 24.125 74.21875 28.421875 74.21875 
Q 39.75 74.21875 46.484375 68.546875 
Q 53.21875 62.890625 53.21875 53.421875 
Q 53.21875 48.921875 51.53125 44.890625 
Q 49.859375 40.875 45.40625 35.40625 
Q 44.1875 33.984375 37.640625 27.21875 
Q 31.109375 20.453125 19.1875 8.296875 
z
" id="DejaVuSans-50"/>
      </defs>
      <g transform="translate(200.539273 322.182437)scale(0.1 -0.1)">
       <use xlink:href="#DejaVuSans-50"/>
      </g>
     </g>
    </g>
    <g id="xtick_4">
     <g id="line2d_4">
      <g>
       <use style="stroke:#000000;stroke-width:0.8;" x="268.664421" xlink:href="#m59ec97c008" y="307.584"/>
      </g>
     </g>
     <g id="text_4">
      <!-- 3 -->
      <defs>
       <path d="M 40.578125 39.3125 
Q 47.65625 37.796875 51.625 33 
Q 55.609375 28.21875 55.609375 21.1875 
Q 55.609375 10.40625 48.1875 4.484375 
Q 40.765625 -1.421875 27.09375 -1.421875 
Q 22.515625 -1.421875 17.65625 -0.515625 
Q 12.796875 0.390625 7.625 2.203125 
L 7.625 11.71875 
Q 11.71875 9.328125 16.59375 8.109375 
Q 21.484375 6.890625 26.8125 6.890625 
Q 36.078125 6.890625 40.9375 10.546875 
Q 45.796875 14.203125 45.796875 21.1875 
Q 45.796875 27.640625 41.28125 31.265625 
Q 36.765625 34.90625 28.71875 34.90625 
L 20.21875 34.90625 
L 20.21875 43.015625 
L 29.109375 43.015625 
Q 36.375 43.015625 40.234375 45.921875 
Q 44.09375 48.828125 44.09375 54.296875 
Q 44.09375 59.90625 40.109375 62.90625 
Q 36.140625 65.921875 28.71875 65.921875 
Q 24.65625 65.921875 20.015625 65.03125 
Q 15.375 64.15625 9.8125 62.3125 
L 9.8125 71.09375 
Q 15.4375 72.65625 20.34375 73.4375 
Q 25.25 74.21875 29.59375 74.21875 
Q 40.828125 74.21875 47.359375 69.109375 
Q 53.90625 64.015625 53.90625 55.328125 
Q 53.90625 49.265625 50.4375 45.09375 
Q 46.96875 40.921875 40.578125 39.3125 
z
" id="DejaVuSans-51"/>
      </defs>
      <g transform="translate(265.483171 322.182437)scale(0.1 -0.1)">
       <use xlink:href="#DejaVuSans-51"/>
      </g>
     </g>
    </g>
    <g id="xtick_5">
     <g id="line2d_5">
      <g>
       <use style="stroke:#000000;stroke-width:0.8;" x="333.608319" xlink:href="#m59ec97c008" y="307.584"/>
      </g>
     </g>
     <g id="text_5">
      <!-- 4 -->
      <defs>
       <path d="M 37.796875 64.3125 
L 12.890625 25.390625 
L 37.796875 25.390625 
z
M 35.203125 72.90625 
L 47.609375 72.90625 
L 47.609375 25.390625 
L 58.015625 25.390625 
L 58.015625 17.1875 
L 47.609375 17.1875 
L 47.609375 0 
L 37.796875 0 
L 37.796875 17.1875 
L 4.890625 17.1875 
L 4.890625 26.703125 
z
" id="DejaVuSans-52"/>
      </defs>
      <g transform="translate(330.427069 322.182437)scale(0.1 -0.1)">
       <use xlink:href="#DejaVuSans-52"/>
      </g>
     </g>
    </g>
    <g id="xtick_6">
     <g id="line2d_6">
      <g>
       <use style="stroke:#000000;stroke-width:0.8;" x="398.552217" xlink:href="#m59ec97c008" y="307.584"/>
      </g>
     </g>
     <g id="text_6">
      <!-- 5 -->
      <defs>
       <path d="M 10.796875 72.90625 
L 49.515625 72.90625 
L 49.515625 64.59375 
L 19.828125 64.59375 
L 19.828125 46.734375 
Q 21.96875 47.46875 24.109375 47.828125 
Q 26.265625 48.1875 28.421875 48.1875 
Q 40.625 48.1875 47.75 41.5 
Q 54.890625 34.8125 54.890625 23.390625 
Q 54.890625 11.625 47.5625 5.09375 
Q 40.234375 -1.421875 26.90625 -1.421875 
Q 22.3125 -1.421875 17.546875 -0.640625 
Q 12.796875 0.140625 7.71875 1.703125 
L 7.71875 11.625 
Q 12.109375 9.234375 16.796875 8.0625 
Q 21.484375 6.890625 26.703125 6.890625 
Q 35.15625 6.890625 40.078125 11.328125 
Q 45.015625 15.765625 45.015625 23.390625 
Q 45.015625 31 40.078125 35.4375 
Q 35.15625 39.890625 26.703125 39.890625 
Q 22.75 39.890625 18.8125 39.015625 
Q 14.890625 38.140625 10.796875 36.28125 
z
" id="DejaVuSans-53"/>
      </defs>
      <g transform="translate(395.370967 322.182437)scale(0.1 -0.1)">
       <use xlink:href="#DejaVuSans-53"/>
      </g>
     </g>
    </g>
    <g id="text_7">
     <!-- time -->
     <defs>
      <path d="M 18.3125 70.21875 
L 18.3125 54.6875 
L 36.8125 54.6875 
L 36.8125 47.703125 
L 18.3125 47.703125 
L 18.3125 18.015625 
Q 18.3125 11.328125 20.140625 9.421875 
Q 21.96875 7.515625 27.59375 7.515625 
L 36.8125 7.515625 
L 36.8125 0 
L 27.59375 0 
Q 17.1875 0 13.234375 3.875 
Q 9.28125 7.765625 9.28125 18.015625 
L 9.28125 47.703125 
L 2.6875 47.703125 
L 2.6875 54.6875 
L 9.28125 54.6875 
L 9.28125 70.21875 
z
" id="DejaVuSans-116"/>
      <path d="M 9.421875 54.6875 
L 18.40625 54.6875 
L 18.40625 0 
L 9.421875 0 
z
M 9.421875 75.984375 
L 18.40625 75.984375 
L 18.40625 64.59375 
L 9.421875 64.59375 
z
" id="DejaVuSans-105"/>
      <path d="M 52 44.1875 
Q 55.375 50.25 60.0625 53.125 
Q 64.75 56 71.09375 56 
Q 79.640625 56 84.28125 50.015625 
Q 88.921875 44.046875 88.921875 33.015625 
L 88.921875 0 
L 79.890625 0 
L 79.890625 32.71875 
Q 79.890625 40.578125 77.09375 44.375 
Q 74.3125 48.1875 68.609375 48.1875 
Q 61.625 48.1875 57.5625 43.546875 
Q 53.515625 38.921875 53.515625 30.90625 
L 53.515625 0 
L 44.484375 0 
L 44.484375 32.71875 
Q 44.484375 40.625 41.703125 44.40625 
Q 38.921875 48.1875 33.109375 48.1875 
Q 26.21875 48.1875 22.15625 43.53125 
Q 18.109375 38.875 18.109375 30.90625 
L 18.109375 0 
L 9.078125 0 
L 9.078125 54.6875 
L 18.109375 54.6875 
L 18.109375 46.1875 
Q 21.1875 51.21875 25.484375 53.609375 
Q 29.78125 56 35.6875 56 
Q 41.65625 56 45.828125 52.96875 
Q 50 49.953125 52 44.1875 
z
" id="DejaVuSans-109"/>
      <path d="M 56.203125 29.59375 
L 56.203125 25.203125 
L 14.890625 25.203125 
Q 15.484375 15.921875 20.484375 11.0625 
Q 25.484375 6.203125 34.421875 6.203125 
Q 39.59375 6.203125 44.453125 7.46875 
Q 49.3125 8.734375 54.109375 11.28125 
L 54.109375 2.78125 
Q 49.265625 0.734375 44.1875 -0.34375 
Q 39.109375 -1.421875 33.890625 -1.421875 
Q 20.796875 -1.421875 13.15625 6.1875 
Q 5.515625 13.8125 5.515625 26.8125 
Q 5.515625 40.234375 12.765625 48.109375 
Q 20.015625 56 32.328125 56 
Q 43.359375 56 49.78125 48.890625 
Q 56.203125 41.796875 56.203125 29.59375 
z
M 47.21875 32.234375 
Q 47.125 39.59375 43.09375 43.984375 
Q 39.0625 48.390625 32.421875 48.390625 
Q 24.90625 48.390625 20.390625 44.140625 
Q 15.875 39.890625 15.1875 32.171875 
z
" id="DejaVuSans-101"/>
     </defs>
     <g transform="translate(224.863906 335.860562)scale(0.1 -0.1)">
      <use xlink:href="#DejaVuSans-116"/>
      <use x="39.208984" xlink:href="#DejaVuSans-105"/>
      <use x="66.992188" xlink:href="#DejaVuSans-109"/>
      <use x="164.404297" xlink:href="#DejaVuSans-101"/>
     </g>
    </g>
   </g>
   <g id="matplotlib.axis_2">
    <g id="ytick_1">
     <g id="line2d_7">
      <defs>
       <path d="M 0 0 
L -3.5 0 
" id="meef348cecc" style="stroke:#000000;stroke-width:0.8;"/>
      </defs>
      <g>
       <use style="stroke:#000000;stroke-width:0.8;" x="57.6" xlink:href="#meef348cecc" y="289.724788"/>
      </g>
     </g>
     <g id="text_8">
      <!-- −4000 -->
      <defs>
       <path d="M 10.59375 35.5 
L 73.1875 35.5 
L 73.1875 27.203125 
L 10.59375 27.203125 
z
" id="DejaVuSans-8722"/>
      </defs>
      <g transform="translate(16.770313 293.524007)scale(0.1 -0.1)">
       <use xlink:href="#DejaVuSans-8722"/>
       <use x="83.789062" xlink:href="#DejaVuSans-52"/>
       <use x="147.412109" xlink:href="#DejaVuSans-48"/>
       <use x="211.035156" xlink:href="#DejaVuSans-48"/>
       <use x="274.658203" xlink:href="#DejaVuSans-48"/>
      </g>
     </g>
    </g>
    <g id="ytick_2">
     <g id="line2d_8">
      <g>
       <use style="stroke:#000000;stroke-width:0.8;" x="57.6" xlink:href="#meef348cecc" y="232.146227"/>
      </g>
     </g>
     <g id="text_9">
      <!-- −2000 -->
      <g transform="translate(16.770313 235.945446)scale(0.1 -0.1)">
       <use xlink:href="#DejaVuSans-8722"/>
       <use x="83.789062" xlink:href="#DejaVuSans-50"/>
       <use x="147.412109" xlink:href="#DejaVuSans-48"/>
       <use x="211.035156" xlink:href="#DejaVuSans-48"/>
       <use x="274.658203" xlink:href="#DejaVuSans-48"/>
      </g>
     </g>
    </g>
    <g id="ytick_3">
     <g id="line2d_9">
      <g>
       <use style="stroke:#000000;stroke-width:0.8;" x="57.6" xlink:href="#meef348cecc" y="174.567666"/>
      </g>
     </g>
     <g id="text_10">
      <!-- 0 -->
      <g transform="translate(44.2375 178.366885)scale(0.1 -0.1)">
       <use xlink:href="#DejaVuSans-48"/>
      </g>
     </g>
    </g>
    <g id="ytick_4">
     <g id="line2d_10">
      <g>
       <use style="stroke:#000000;stroke-width:0.8;" x="57.6" xlink:href="#meef348cecc" y="116.989105"/>
      </g>
     </g>
     <g id="text_11">
      <!-- 2000 -->
      <g transform="translate(25.15 120.788324)scale(0.1 -0.1)">
       <use xlink:href="#DejaVuSans-50"/>
       <use x="63.623047" xlink:href="#DejaVuSans-48"/>
       <use x="127.246094" xlink:href="#DejaVuSans-48"/>
       <use x="190.869141" xlink:href="#DejaVuSans-48"/>
      </g>
     </g>
    </g>
    <g id="ytick_5">
     <g id="line2d_11">
      <g>
       <use style="stroke:#000000;stroke-width:0.8;" x="57.6" xlink:href="#meef348cecc" y="59.410544"/>
      </g>
     </g>
     <g id="text_12">
      <!-- 4000 -->
      <g transform="translate(25.15 63.209763)scale(0.1 -0.1)">
       <use xlink:href="#DejaVuSans-52"/>
       <use x="63.623047" xlink:href="#DejaVuSans-48"/>
       <use x="127.246094" xlink:href="#DejaVuSans-48"/>
       <use x="190.869141" xlink:href="#DejaVuSans-48"/>
      </g>
     </g>
    </g>
    <g id="text_13">
     <!-- Amplitude -->
     <defs>
      <path d="M 34.1875 63.1875 
L 20.796875 26.90625 
L 47.609375 26.90625 
z
M 28.609375 72.90625 
L 39.796875 72.90625 
L 67.578125 0 
L 57.328125 0 
L 50.6875 18.703125 
L 17.828125 18.703125 
L 11.1875 0 
L 0.78125 0 
z
" id="DejaVuSans-65"/>
      <path d="M 18.109375 8.203125 
L 18.109375 -20.796875 
L 9.078125 -20.796875 
L 9.078125 54.6875 
L 18.109375 54.6875 
L 18.109375 46.390625 
Q 20.953125 51.265625 25.265625 53.625 
Q 29.59375 56 35.59375 56 
Q 45.5625 56 51.78125 48.09375 
Q 58.015625 40.1875 58.015625 27.296875 
Q 58.015625 14.40625 51.78125 6.484375 
Q 45.5625 -1.421875 35.59375 -1.421875 
Q 29.59375 -1.421875 25.265625 0.953125 
Q 20.953125 3.328125 18.109375 8.203125 
z
M 48.6875 27.296875 
Q 48.6875 37.203125 44.609375 42.84375 
Q 40.53125 48.484375 33.40625 48.484375 
Q 26.265625 48.484375 22.1875 42.84375 
Q 18.109375 37.203125 18.109375 27.296875 
Q 18.109375 17.390625 22.1875 11.75 
Q 26.265625 6.109375 33.40625 6.109375 
Q 40.53125 6.109375 44.609375 11.75 
Q 48.6875 17.390625 48.6875 27.296875 
z
" id="DejaVuSans-112"/>
      <path d="M 9.421875 75.984375 
L 18.40625 75.984375 
L 18.40625 0 
L 9.421875 0 
z
" id="DejaVuSans-108"/>
      <path d="M 8.5 21.578125 
L 8.5 54.6875 
L 17.484375 54.6875 
L 17.484375 21.921875 
Q 17.484375 14.15625 20.5 10.265625 
Q 23.53125 6.390625 29.59375 6.390625 
Q 36.859375 6.390625 41.078125 11.03125 
Q 45.3125 15.671875 45.3125 23.6875 
L 45.3125 54.6875 
L 54.296875 54.6875 
L 54.296875 0 
L 45.3125 0 
L 45.3125 8.40625 
Q 42.046875 3.421875 37.71875 1 
Q 33.40625 -1.421875 27.6875 -1.421875 
Q 18.265625 -1.421875 13.375 4.4375 
Q 8.5 10.296875 8.5 21.578125 
z
M 31.109375 56 
z
" id="DejaVuSans-117"/>
      <path d="M 45.40625 46.390625 
L 45.40625 75.984375 
L 54.390625 75.984375 
L 54.390625 0 
L 45.40625 0 
L 45.40625 8.203125 
Q 42.578125 3.328125 38.25 0.953125 
Q 33.9375 -1.421875 27.875 -1.421875 
Q 17.96875 -1.421875 11.734375 6.484375 
Q 5.515625 14.40625 5.515625 27.296875 
Q 5.515625 40.1875 11.734375 48.09375 
Q 17.96875 56 27.875 56 
Q 33.9375 56 38.25 53.625 
Q 42.578125 51.265625 45.40625 46.390625 
z
M 14.796875 27.296875 
Q 14.796875 17.390625 18.875 11.75 
Q 22.953125 6.109375 30.078125 6.109375 
Q 37.203125 6.109375 41.296875 11.75 
Q 45.40625 17.390625 45.40625 27.296875 
Q 45.40625 37.203125 41.296875 42.84375 
Q 37.203125 48.484375 30.078125 48.484375 
Q 22.953125 48.484375 18.875 42.84375 
Q 14.796875 37.203125 14.796875 27.296875 
z
" id="DejaVuSans-100"/>
     </defs>
     <g transform="translate(10.690625 200.150656)rotate(-90)scale(0.1 -0.1)">
      <use xlink:href="#DejaVuSans-65"/>
      <use x="68.408203" xlink:href="#DejaVuSans-109"/>
      <use x="165.820312" xlink:href="#DejaVuSans-112"/>
      <use x="229.296875" xlink:href="#DejaVuSans-108"/>
      <use x="257.080078" xlink:href="#DejaVuSans-105"/>
      <use x="284.863281" xlink:href="#DejaVuSans-116"/>
      <use x="324.072266" xlink:href="#DejaVuSans-117"/>
      <use x="387.451172" xlink:href="#DejaVuSans-100"/>
      <use x="450.927734" xlink:href="#DejaVuSans-101"/>
     </g>
    </g>
   </g>
   <g id="line2d_12">
    <path clip-path="url(#p2d4374f1e0)" d="M 73.832727 100.836184 
L 73.962615 112.456769 
L 74.222391 185.751282 
L 74.54711 269.422491 
L 74.612054 271.130828 
L 74.741942 254.532455 
L 75.001717 162.464817 
L 75.326437 73.13369 
L 75.391381 74.452142 
L 75.521269 99.653166 
L 76.105764 280.906562 
L 76.235651 257.512633 
L 76.820147 63.416882 
L 76.88509 70.212049 
L 77.079922 135.560498 
L 77.469586 286.883257 
L 77.534529 289.839186 
L 77.664417 268.488563 
L 78.248912 56.721797 
L 78.313856 62.60584 
L 78.508688 128.889968 
L 78.898351 290.131435 
L 78.963295 294.36721 
L 79.028239 288.986748 
L 79.223071 222.791319 
L 79.612734 58.246472 
L 79.677678 53.636045 
L 79.742622 58.753991 
L 79.937454 124.669561 
L 80.327117 290.385375 
L 80.392061 295.488 
L 80.457005 290.915559 
L 80.651837 226.444044 
L 81.0415 59.476655 
L 81.106444 53.772094 
L 81.171388 57.761149 
L 81.301276 92.76402 
L 81.820827 294.354028 
L 81.885771 290.94063 
L 82.015658 257.337909 
L 82.53521 56.137365 
L 82.600153 58.59653 
L 82.730041 90.247318 
L 83.249592 291.739011 
L 83.314536 290.12739 
L 83.444424 260.210331 
L 83.963975 59.297205 
L 84.028919 59.85254 
L 84.158807 87.369794 
L 84.743302 289.036214 
L 84.87319 263.89168 
L 85.457685 60.537956 
L 85.587573 83.41129 
L 86.172068 288.284445 
L 86.237012 282.482987 
L 86.431843 219.083196 
L 86.821507 65.039199 
L 86.886451 60.609989 
L 86.951395 65.206717 
L 87.146226 126.147496 
L 87.600834 288.387032 
L 87.665778 285.02832 
L 87.795665 253.124276 
L 88.315216 60.407606 
L 88.38016 62.447594 
L 88.510048 92.360613 
L 89.029599 289.086438 
L 89.094543 288.055415 
L 89.224431 259.769582 
L 89.808926 59.906285 
L 89.938814 86.189715 
L 90.523309 290.673161 
L 90.653197 265.850762 
L 91.237692 57.752372 
L 91.302636 65.019467 
L 91.497467 133.411463 
L 91.887131 289.101563 
L 91.952075 292.161939 
L 92.081963 270.667208 
L 92.406682 121.71862 
L 92.666458 56.441624 
L 92.796345 76.641037 
L 93.121065 224.719082 
L 93.380841 292.542744 
L 93.445784 287.852659 
L 93.640616 224.721329 
L 94.03028 62.123877 
L 94.095223 56.507922 
L 94.160167 60.315291 
L 94.290055 94.262201 
L 94.809606 292.070118 
L 94.87455 289.052955 
L 95.004438 256.714103 
L 95.523989 57.825204 
L 95.588933 59.758618 
L 95.718821 90.10989 
L 96.238372 290.704577 
L 96.303316 289.669509 
L 96.433204 260.948698 
L 97.017699 59.689049 
L 97.147587 86.214953 
L 97.732082 289.695981 
L 97.861969 265.274365 
L 98.446465 59.530808 
L 98.511408 66.480058 
L 98.70624 133.076522 
L 99.095904 286.068109 
L 99.160847 289.483134 
L 99.290735 269.50634 
L 99.615455 125.408189 
L 99.87523 59.368055 
L 99.940174 63.966249 
L 100.135006 125.573777 
L 100.524669 283.929019 
L 100.589613 289.543008 
L 100.654557 286.067217 
L 100.784445 253.651688 
L 101.303996 59.439441 
L 101.36894 61.684351 
L 101.498828 92.195024 
L 102.018379 289.797127 
L 102.083323 288.505305 
L 102.213211 259.605729 
L 102.732762 59.633951 
L 102.797706 59.772921 
L 102.927594 86.624199 
L 103.512089 290.516907 
L 103.641976 265.222077 
L 104.226471 58.147621 
L 104.356359 81.731551 
L 104.940854 291.594486 
L 105.005798 285.155939 
L 105.20063 218.378685 
L 105.590293 60.80326 
L 105.655237 57.106311 
L 105.785125 77.351086 
L 106.109845 224.578987 
L 106.36962 291.856244 
L 106.434564 287.179194 
L 106.629396 224.438416 
L 107.084003 57.152639 
L 107.148947 60.891562 
L 107.278835 94.550563 
L 107.798386 291.504336 
L 107.86333 288.599705 
L 107.993218 256.596363 
L 108.512769 58.274624 
L 108.577713 60.071285 
L 108.7076 90.0852 
L 109.227152 290.364006 
L 109.292096 289.471239 
L 109.421983 261.06851 
L 110.006478 59.790985 
L 110.136366 86.026591 
L 110.720861 289.660152 
L 110.850749 265.486023 
L 111.435244 59.541553 
L 111.500188 66.374178 
L 111.69502 132.713961 
L 112.084683 285.962627 
L 112.149627 289.487888 
L 112.279515 269.717391 
L 112.604234 125.746359 
L 112.86401 59.368055 
L 112.928954 63.862142 
L 113.123785 125.23212 
L 113.578393 289.541372 
L 113.643337 286.179169 
L 113.773224 253.959123 
L 114.292776 59.41681 
L 114.35772 61.539446 
L 114.487607 91.846885 
L 115.007159 289.857588 
L 115.072102 288.699966 
L 115.20199 260.015924 
L 115.786485 59.487026 
L 115.916373 86.131004 
L 116.500868 290.907261 
L 116.630756 265.781356 
L 117.215251 57.647096 
L 117.280195 65.032285 
L 117.475027 133.703672 
L 117.86469 289.236578 
L 117.929634 292.203942 
L 118.059522 270.529509 
L 118.644017 56.435078 
L 118.708961 62.123877 
L 118.903792 127.670075 
L 119.293456 287.927923 
L 119.3584 292.542744 
L 119.423344 287.780924 
L 119.618175 224.483531 
L 120.007839 62.052687 
L 120.072783 56.520013 
L 120.137726 60.412748 
L 120.267614 94.506758 
L 120.787165 292.006935 
L 120.852109 288.887447 
L 120.981997 256.385793 
L 121.501548 57.974507 
L 121.566492 60.031534 
L 121.69638 90.560707 
L 122.215931 290.400805 
L 122.280875 289.224683 
L 122.410763 260.34435 
L 122.930314 60.205515 
L 122.995258 60.336973 
L 123.125146 86.954077 
L 123.709641 288.831888 
L 123.839529 264.429294 
L 124.424024 60.601711 
L 124.488968 67.502803 
L 124.683799 133.404358 
L 125.073463 284.825059 
L 125.138407 288.279665 
L 125.268294 268.721016 
L 125.593014 126.489276 
L 125.852789 60.609989 
L 125.917733 64.925358 
L 126.112565 125.226576 
L 126.567172 288.40431 
L 126.632116 285.353738 
L 126.762004 253.978885 
L 127.281555 60.29587 
L 127.346499 61.985873 
L 127.476387 91.321392 
L 127.995938 289.391364 
L 128.060882 288.759665 
L 128.19077 261.083714 
L 128.775265 58.824228 
L 128.905153 84.537894 
L 129.489648 292.2232 
L 129.619536 267.818741 
L 130.204031 55.691425 
L 130.268975 62.780366 
L 130.463806 131.903166 
L 130.85347 291.422825 
L 130.918414 294.707235 
L 131.048301 272.92283 
L 131.373021 120.309149 
L 131.632796 53.568 
L 131.762684 74.625344 
L 132.087404 227.11446 
L 132.347179 295.488 
L 132.412123 290.156543 
L 132.606955 223.955547 
L 132.996618 58.753991 
L 133.061562 53.890589 
L 133.126506 58.736146 
L 133.321338 123.875895 
L 133.711001 288.699983 
L 133.775945 293.814757 
L 133.840889 289.361174 
L 134.035721 226.125567 
L 134.425384 63.239536 
L 134.490328 57.607022 
L 134.555272 61.327024 
L 134.68516 94.788552 
L 135.204711 288.594129 
L 135.269655 285.550324 
L 135.399542 254.026688 
L 135.919094 65.046022 
L 135.984038 67.018642 
L 136.113925 95.323211 
L 136.633477 278.855879 
L 136.69842 278.526938 
L 136.828308 254.466786 
L 137.412803 75.092386 
L 137.542691 92.954139 
L 138.19213 269.422491 
L 138.257074 263.834681 
L 138.451906 219.911059 
L 138.711681 147.181997 
L 138.711681 147.181997 
" style="fill:none;stroke:#1f77b4;stroke-linecap:square;stroke-width:1.5;"/>
   </g>
   <g id="line2d_13">
    <path clip-path="url(#p2d4374f1e0)" d="M 73.832727 174.433677 
L 74.157447 174.500443 
L 74.806886 174.761782 
L 75.131605 174.566498 
L 75.521269 174.344915 
L 75.781044 174.433772 
L 76.365539 174.802158 
L 76.625315 174.674479 
L 77.144866 174.330202 
L 77.404642 174.440847 
L 77.989137 174.800139 
L 78.313856 174.605336 
L 78.768464 174.338304 
L 79.028239 174.450152 
L 79.612734 174.790958 
L 79.937454 174.6071 
L 80.392061 174.343657 
L 80.651837 174.446247 
L 81.236332 174.792469 
L 81.561051 174.613616 
L 82.015658 174.338885 
L 82.275434 174.441066 
L 82.859929 174.797886 
L 83.119705 174.667686 
L 83.639256 174.335554 
L 83.899031 174.443703 
L 84.483527 174.796687 
L 84.808246 174.607973 
L 85.262853 174.338869 
L 85.522629 174.447273 
L 86.107124 174.792748 
L 86.431843 174.609004 
L 86.886451 174.341206 
L 87.146226 174.445268 
L 87.730721 174.793619 
L 88.055441 174.612364 
L 88.510048 174.338566 
L 88.769824 174.442543 
L 89.354319 174.796602 
L 89.614094 174.66656 
L 90.133646 174.33666 
L 90.393421 174.444176 
L 90.977916 174.795801 
L 91.302636 174.60896 
L 91.757243 174.338731 
L 92.017019 174.446414 
L 92.601514 174.793281 
L 92.926233 174.60969 
L 93.380841 174.340214 
L 93.640616 174.445091 
L 94.225111 174.793886 
L 94.549831 174.61197 
L 95.004438 174.338385 
L 95.264214 174.443263 
L 95.848709 174.795949 
L 96.173428 174.611425 
L 96.628035 174.33705 
L 96.887811 174.444465 
L 97.472306 174.795359 
L 97.797026 174.609549 
L 98.251633 174.338561 
L 98.511408 174.446112 
L 99.095904 174.793518 
L 99.420623 174.610109 
L 99.87523 174.339656 
L 100.135006 174.445137 
L 100.719501 174.793996 
L 101.04422 174.611831 
L 101.498828 174.338269 
L 101.758603 174.443771 
L 102.343098 174.79559 
L 102.667818 174.611401 
L 103.122425 174.337257 
L 103.382201 174.444724 
L 103.966696 174.795143 
L 104.291415 174.609931 
L 104.746023 174.338463 
L 105.005798 174.446028 
L 105.590293 174.793711 
L 105.915013 174.610371 
L 106.36962 174.33935 
L 106.629396 174.445244 
L 107.213891 174.79416 
L 107.53861 174.611781 
L 107.993218 174.338155 
L 108.252993 174.444081 
L 108.837488 174.795621 
L 109.097264 174.666145 
L 109.616815 174.337257 
L 109.876591 174.445047 
L 110.461086 174.795141 
L 110.785805 174.609768 
L 111.240412 174.338614 
L 111.500188 174.446416 
L 112.084683 174.79356 
L 112.409403 174.610305 
L 112.86401 174.339656 
L 113.123785 174.44539 
L 113.708281 174.794167 
L 114.033 174.612027 
L 114.487607 174.33817 
L 114.747383 174.443895 
L 115.331878 174.796035 
L 115.591654 174.666397 
L 116.111205 174.33705 
L 116.37098 174.445106 
L 116.955475 174.795418 
L 117.280195 174.609371 
L 117.734802 174.338836 
L 117.994578 174.446848 
L 118.579073 174.793352 
L 118.903792 174.610066 
L 119.3584 174.340214 
L 119.618175 174.445439 
L 120.20267 174.794178 
L 120.462446 174.666749 
L 120.981997 174.338198 
L 121.241773 174.443385 
L 121.826268 174.79672 
L 122.086043 174.666678 
L 122.605595 174.33666 
L 122.86537 174.445059 
L 123.449865 174.795811 
L 123.774585 174.608592 
L 124.229192 174.339218 
L 124.488968 174.447512 
L 125.073463 174.792796 
L 125.398182 174.609646 
L 125.852789 174.341206 
L 126.112565 174.445357 
L 126.69706 174.794058 
L 126.956836 174.667422 
L 127.476387 174.338031 
L 127.736163 174.442176 
L 128.320658 174.798032 
L 128.580433 174.667234 
L 129.099984 174.335554 
L 129.35976 174.444994 
L 129.944255 174.796355 
L 130.268975 174.606801 
L 130.723582 174.340058 
L 130.983357 174.449264 
L 131.567852 174.79083 
L 131.892572 174.608985 
L 132.347179 174.343657 
L 132.606955 174.444866 
L 133.19145 174.793632 
L 133.451226 174.6702 
L 133.970777 174.336349 
L 134.230552 174.437945 
L 134.815047 174.803056 
L 135.074823 174.669109 
L 135.594374 174.330202 
L 135.85415 174.446984 
L 136.373701 174.79989 
L 136.633477 174.702508 
L 137.217972 174.35078 
L 137.542691 174.513277 
L 137.997298 174.761781 
L 138.322018 174.669131 
L 138.711681 174.492845 
L 138.776625 170.800247 
L 138.841569 171.622731 
L 139.296176 177.125633 
L 139.36112 177.279595 
L 139.426064 177.225163 
L 139.620896 176.105153 
L 140.075503 173.135701 
L 140.140447 173.126403 
L 140.270335 173.469211 
L 140.789886 175.589324 
L 140.919774 175.431657 
L 141.439325 173.711508 
L 141.504269 173.745653 
L 141.699101 174.285279 
L 142.02382 175.163604 
L 142.153708 175.144548 
L 142.413483 174.656358 
L 142.738203 174.054445 
L 142.868091 174.084681 
L 143.127866 174.613262 
L 143.387642 175.038066 
L 143.51753 175.006984 
L 143.777305 174.525062 
L 144.037081 174.108586 
L 144.166969 174.173507 
L 144.68652 174.898992 
L 144.946295 174.709644 
L 145.465847 174.246996 
L 145.660678 174.461991 
L 145.985398 174.890447 
L 146.18023 174.809042 
L 146.699781 174.262319 
L 146.894612 174.457308 
L 147.219332 174.791386 
L 147.479107 174.702008 
L 148.19349 174.389138 
L 148.648098 174.82883 
L 148.907873 174.601336 
L 149.232593 174.346362 
L 149.427424 174.423772 
L 149.882032 174.733685 
L 150.401583 174.50794 
L 150.726302 174.370537 
L 150.986078 174.635234 
L 151.245854 174.793764 
L 151.570573 174.513381 
L 151.830349 174.405479 
L 152.155068 174.550461 
L 152.479788 174.699707 
L 152.934395 174.555332 
L 153.389002 174.423149 
L 153.908553 174.736173 
L 154.363161 174.441788 
L 154.817768 174.576478 
L 155.207431 174.673369 
L 156.116646 174.546999 
L 156.441365 174.749993 
L 157.155748 174.510292 
L 158.064963 174.584073 
L 158.51957 174.444287 
L 158.84429 174.666976 
L 159.039121 174.727727 
L 159.753504 174.53336 
L 160.662719 174.586441 
L 161.052382 174.451085 
L 161.377102 174.613498 
L 161.636877 174.70204 
L 162.35126 174.545769 
L 163.325419 174.541304 
L 163.585194 174.446151 
L 164.494409 174.550038 
L 164.754184 174.498281 
L 165.728343 174.674718 
L 166.312838 174.49802 
L 166.767445 174.650625 
L 168.066323 174.609366 
L 168.326099 174.674211 
L 168.910594 174.507594 
L 169.235313 174.641394 
L 170.729023 174.638961 
L 170.988798 174.639449 
L 171.378462 174.442087 
L 171.962957 174.610665 
L 172.807228 174.511233 
L 173.716442 174.539619 
L 173.976218 174.438784 
L 174.625657 174.590746 
L 175.534871 174.517799 
L 176.054423 174.662492 
L 176.768805 174.55271 
L 177.028581 174.64988 
L 178.132627 174.503638 
L 178.587235 174.675279 
L 179.366561 174.544048 
L 179.691281 174.641548 
L 180.665439 174.454406 
L 181.249934 174.656229 
L 181.769486 174.458965 
L 182.743644 174.597627 
L 183.393083 174.538339 
L 183.717802 174.727844 
L 184.497129 174.499373 
L 185.081624 174.643223 
L 185.666119 174.44203 
L 185.860951 174.431715 
L 186.380502 174.720816 
L 186.900053 174.459488 
L 187.419605 174.63062 
L 187.744324 174.667815 
L 188.523651 174.475556 
L 188.913314 174.774589 
L 189.692641 174.487002 
L 190.536912 174.589853 
L 190.926575 174.376346 
L 191.121407 174.479617 
L 191.51107 174.800359 
L 191.770846 174.567477 
L 192.030621 174.413165 
L 192.485229 174.540762 
L 192.939836 174.765279 
L 193.264555 174.443406 
L 193.524331 174.335424 
L 193.784107 174.563464 
L 194.108826 174.836517 
L 194.303658 174.677355 
L 194.628377 174.371147 
L 194.953097 174.44914 
L 195.602536 174.78369 
L 196.122087 174.262437 
L 196.381863 174.57681 
L 196.706582 174.903813 
L 196.901414 174.738671 
L 197.291077 174.270309 
L 197.485909 174.324466 
L 197.810628 174.715121 
L 198.070404 174.979983 
L 198.200292 174.879042 
L 198.719843 174.11079 
L 198.914675 174.431413 
L 199.304338 175.06835 
L 199.434226 174.985957 
L 200.018721 174.029857 
L 200.083665 174.087657 
L 200.34344 174.669167 
L 200.66816 175.311111 
L 200.798048 175.137418 
L 201.317599 173.634303 
L 201.447487 173.923904 
L 201.967038 175.770588 
L 202.096926 175.521841 
L 202.356701 173.958885 
L 202.616477 172.680781 
L 202.681421 172.681514 
L 202.811308 173.208093 
L 203.071084 176.084268 
L 203.395804 179.65941 
L 203.460747 179.840103 
L 203.525691 179.771904 
L 203.655579 178.930592 
L 203.785467 139.809991 
L 203.850411 140.871463 
L 203.980299 149.070233 
L 204.305018 195.289845 
L 204.564794 225.134386 
L 204.629738 226.883565 
L 204.694681 225.683673 
L 204.824569 214.47523 
L 205.474008 117.282431 
L 205.538952 119.180164 
L 205.733784 143.905494 
L 206.253335 233.648538 
L 206.318279 233.996573 
L 206.448167 223.891938 
L 206.772886 158.467924 
L 207.032662 117.709661 
L 207.097606 115.060654 
L 207.16255 116.026955 
L 207.292437 128.297827 
L 207.941876 233.143108 
L 208.00682 231.308406 
L 208.201652 206.926654 
L 208.721203 118.517303 
L 208.786147 117.454151 
L 208.916035 125.272331 
L 209.17581 170.553304 
L 209.565474 230.481916 
L 209.630418 231.29003 
L 209.760306 222.979021 
L 210.020081 176.966602 
L 210.344801 121.863371 
L 210.474688 117.69604 
L 210.604576 126.796025 
L 210.864352 173.987325 
L 211.189071 228.87992 
L 211.254015 232.236388 
L 211.318959 232.134085 
L 211.448847 221.730411 
L 211.773566 158.116558 
L 212.033342 118.726377 
L 212.098286 116.161664 
L 212.16323 117.105209 
L 212.293118 129.079974 
L 212.942557 233.183655 
L 213.0075 231.452846 
L 213.137388 218.008443 
L 213.786827 116.604599 
L 213.916715 124.88869 
L 214.176491 171.553266 
L 214.50121 227.630491 
L 214.631098 231.91264 
L 214.760986 222.72541 
L 215.020761 175.288055 
L 215.345481 120.957879 
L 215.410425 117.682788 
L 215.475369 117.781442 
L 215.605256 127.854569 
L 215.929976 189.598236 
L 216.189751 228.967224 
L 216.254695 231.877762 
L 216.319639 231.376293 
L 216.449527 220.414603 
L 216.774246 157.128516 
L 217.034022 118.988032 
L 217.098966 116.702102 
L 217.16391 117.873362 
L 217.293798 130.104471 
L 217.943237 232.865562 
L 218.008181 231.051247 
L 218.203012 206.614991 
L 218.722563 117.239196 
L 218.787507 116.385242 
L 218.917395 124.97637 
L 219.177171 172.321934 
L 219.50189 228.379047 
L 219.631778 232.265909 
L 219.761666 222.547204 
L 220.086385 160.095878 
L 220.346161 120.091059 
L 220.411105 117.124356 
L 220.476049 117.586268 
L 220.605936 128.441045 
L 220.930656 191.118275 
L 221.190432 229.437332 
L 221.255375 231.947793 
L 221.320319 231.048354 
L 221.450207 219.406878 
L 222.099646 116.955793 
L 222.16459 118.460093 
L 222.294478 131.20384 
L 222.943917 232.430234 
L 223.008861 230.408239 
L 223.203692 205.694813 
L 223.723244 117.236107 
L 223.788187 116.541498 
L 223.918075 125.425572 
L 224.177851 173.089886 
L 224.50257 228.758146 
L 224.632458 232.311244 
L 224.762346 222.239252 
L 225.087065 159.182668 
L 225.346841 119.436697 
L 225.411785 116.67221 
L 225.476729 117.381702 
L 225.606617 128.808151 
L 225.99628 205.154688 
L 226.256056 232.220786 
L 226.320999 230.978286 
L 226.450887 218.686109 
L 227.100326 116.92795 
L 227.16527 118.787263 
L 227.360102 142.872194 
L 227.879653 231.011589 
L 227.944597 232.105952 
L 228.074485 224.161986 
L 228.33426 177.780586 
L 228.65898 121.214303 
L 228.788868 116.864131 
L 228.918755 126.138593 
L 229.178531 174.033757 
L 229.50325 228.926055 
L 229.568194 232.21656 
L 229.633138 232.068835 
L 229.763026 221.673506 
L 230.087746 158.417658 
L 230.347521 119.071522 
L 230.412465 116.471432 
L 230.477409 117.365462 
L 230.607297 129.192786 
L 231.256736 232.475896 
L 231.32168 230.961993 
L 231.451567 218.136239 
L 232.101006 116.736316 
L 232.16595 118.907906 
L 232.360782 143.86396 
L 232.880333 231.257395 
L 232.945277 231.994415 
L 233.075165 223.396758 
L 233.33494 176.491564 
L 233.65966 120.907962 
L 233.789548 117.152944 
L 233.919436 126.939394 
L 234.244155 189.163543 
L 234.503931 229.083045 
L 234.568875 232.09222 
L 234.633818 231.680385 
L 234.763706 220.87575 
L 235.088426 157.594909 
L 235.348201 118.922016 
L 235.413145 116.51246 
L 235.478089 117.592036 
L 235.607977 129.752117 
L 236.257416 232.567304 
L 236.32236 230.826561 
L 236.517191 206.856589 
L 237.036743 117.636187 
L 237.101687 116.573354 
L 237.231574 124.748413 
L 237.49135 171.596041 
L 237.816069 227.794741 
L 237.945957 232.018672 
L 238.075845 222.787703 
L 238.335621 175.233728 
L 238.66034 120.490467 
L 238.725284 117.199579 
L 238.790228 117.341356 
L 238.920116 127.684457 
L 239.244835 190.319774 
L 239.504611 229.322479 
L 239.569555 232.019643 
L 239.634499 231.305488 
L 239.764386 220.009904 
L 240.15405 143.86396 
L 240.413825 116.656358 
L 240.478769 117.944673 
L 240.608657 130.440116 
L 241.258096 232.546002 
L 241.32304 230.589967 
L 241.517872 206.106869 
L 242.037423 117.337902 
L 242.102367 116.471432 
L 242.232254 125.064505 
L 242.49203 172.583351 
L 242.81675 228.457173 
L 242.946637 232.141862 
L 243.076525 222.30492 
L 243.401245 159.997121 
L 243.66102 119.953703 
L 243.725964 116.95934 
L 243.790908 117.414043 
L 243.920796 128.359234 
L 244.245515 191.600685 
L 244.505291 229.699949 
L 244.570235 232.048034 
L 244.635179 230.981057 
L 244.765066 219.073632 
L 245.414505 116.896398 
L 245.479449 118.450363 
L 245.609337 131.343926 
L 246.258776 232.321542 
L 246.32372 230.139588 
L 246.518552 205.217687 
L 247.038103 117.277326 
L 247.103047 116.583156 
L 247.232935 125.482995 
L 247.49271 173.381212 
L 247.81743 228.971731 
L 247.882374 232.346531 
L 247.947317 232.259657 
L 248.077205 221.95221 
L 248.401925 158.934784 
L 248.6617 119.365409 
L 248.726644 116.611452 
L 248.791588 117.332703 
L 248.921476 128.8316 
L 249.570915 232.305978 
L 249.635859 230.877818 
L 249.765747 218.270485 
L 250.415186 117.032196 
L 250.480129 118.927251 
L 250.674961 143.117139 
L 251.194512 231.048354 
L 251.259456 231.989901 
L 251.389344 223.782793 
L 251.64912 177.437313 
L 251.973839 121.354729 
L 252.103727 116.988178 
L 252.233615 126.182722 
L 252.49339 174.142657 
L 252.81811 229.186871 
L 252.883054 232.408785 
L 252.947998 232.163387 
L 253.077885 221.546718 
L 253.402605 158.145706 
L 253.66238 118.927071 
L 253.727324 116.336206 
L 253.792268 117.239196 
L 253.922156 129.129886 
L 254.571595 232.766728 
L 254.636539 231.040629 
L 254.831371 207.040996 
L 255.350922 118.042593 
L 255.415866 116.88091 
L 255.545754 124.741487 
L 255.805529 170.978668 
L 256.130249 227.301437 
L 256.260136 231.765545 
L 256.390024 222.829458 
L 256.6498 175.974893 
L 256.974519 121.304216 
L 257.104407 117.619507 
L 257.234295 127.252635 
L 257.559014 189.066091 
L 257.81879 229.067646 
L 257.883734 232.090215 
L 257.948678 231.67739 
L 258.078566 220.843548 
L 258.403285 157.598816 
L 258.663061 118.861555 
L 258.728005 116.378225 
L 258.792948 117.375965 
L 258.922836 129.422537 
L 259.572275 233.26399 
L 259.637219 231.377803 
L 259.832051 206.658273 
L 260.351602 117.193017 
L 260.416546 116.32999 
L 260.546434 124.923424 
L 260.806209 172.437882 
L 261.130929 228.310908 
L 261.260817 231.917643 
L 261.390704 222.02018 
L 261.715424 160.298445 
L 261.975199 120.981357 
L 262.040143 117.983953 
L 262.105087 118.323102 
L 262.234975 128.725623 
L 262.559694 190.250583 
L 262.81947 228.615704 
L 262.884414 231.29003 
L 262.949358 230.609188 
L 263.079246 219.538497 
L 263.468909 144.597554 
L 263.728685 117.06902 
L 263.793629 118.058598 
L 263.923516 129.889251 
L 264.572955 233.68782 
L 264.637899 231.922253 
L 264.767787 218.232603 
L 265.417226 114.838551 
L 265.547114 124.058934 
L 265.806889 173.919299 
L 266.131609 230.677808 
L 266.196553 233.706132 
L 266.261497 233.081548 
L 266.391384 221.345923 
L 267.040823 118.623261 
L 267.105767 120.316225 
L 267.300599 142.923004 
L 267.82015 223.193559 
L 267.885094 224.602408 
L 267.950038 223.338915 
L 268.14487 206.43751 
L 268.599477 154.733335 
L 268.664421 155.653791 
L 269.054084 219.164428 
L 269.119028 220.041133 
L 269.248916 211.535064 
L 269.768467 144.194589 
L 269.833411 144.209888 
L 269.963299 152.15173 
L 270.48285 198.73512 
L 270.612738 193.432282 
L 271.132289 154.231005 
L 271.197233 155.208313 
L 271.392065 167.508487 
L 271.716784 191.184036 
L 271.781728 192.262421 
L 271.846672 191.630437 
L 272.041504 181.21477 
L 272.431167 159.086817 
L 272.496111 159.538452 
L 272.625999 164.480483 
L 273.080606 188.034265 
L 273.14555 187.792215 
L 273.275438 183.782026 
L 273.794989 162.68168 
L 273.924877 165.845592 
L 274.444428 185.513699 
L 274.574316 182.883094 
L 275.093867 164.539305 
L 275.223755 166.841588 
L 275.743306 183.553444 
L 275.873194 181.687405 
L 276.392745 166.478721 
L 276.457689 166.765058 
L 276.65252 171.429334 
L 277.042184 182.117948 
L 277.107128 182.053542 
L 277.237015 179.893955 
L 277.756567 167.390981 
L 277.886454 169.331824 
L 278.406006 181.226918 
L 278.535893 179.577699 
L 279.055445 168.414488 
L 279.185332 169.580647 
L 279.704884 180.51384 
L 279.769827 180.416658 
L 279.899715 178.649758 
L 280.419266 168.648351 
L 280.549154 170.299297 
L 281.068705 180.328283 
L 281.198593 178.808342 
L 281.718144 169.057569 
L 281.848032 170.238558 
L 282.367583 180.064367 
L 282.432527 179.902394 
L 282.562415 178.140815 
L 283.017022 168.865101 
L 283.081966 168.941129 
L 283.211854 170.683351 
L 283.666461 180.356067 
L 283.731405 180.270152 
L 283.861293 178.49832 
L 284.3159 168.926157 
L 284.380844 168.965326 
L 284.510732 170.564269 
L 285.030283 180.232236 
L 285.160171 178.897987 
L 285.679722 168.593723 
L 285.744666 168.950637 
L 285.939498 172.976904 
L 286.264217 180.580128 
L 286.329161 180.789171 
L 286.459049 179.390364 
L 286.9786 168.363147 
L 287.108488 169.793736 
L 287.628039 180.721499 
L 287.692983 180.368474 
L 287.887815 176.385266 
L 288.277478 168.211029 
L 288.342422 168.476409 
L 288.537254 172.495995 
L 288.926917 181.255383 
L 288.991861 180.955436 
L 289.186693 176.613881 
L 289.511412 168.041143 
L 289.576356 167.75664 
L 289.706244 169.185031 
L 290.225795 181.291651 
L 290.290739 180.889412 
L 290.485571 176.477827 
L 290.81029 168.130554 
L 290.875234 167.807781 
L 290.940178 168.133019 
L 291.13501 172.451058 
L 291.524673 181.612169 
L 291.589617 181.2972 
L 291.784449 176.7322 
L 292.109168 167.590295 
L 292.174112 167.277618 
L 292.304 168.817109 
L 292.823551 181.829007 
L 292.888495 181.313112 
L 293.083326 176.318842 
L 293.408046 167.609043 
L 293.47299 167.411098 
L 293.602878 169.041911 
L 294.122429 181.851467 
L 294.187373 181.401575 
L 294.382204 176.472049 
L 294.706924 167.248715 
L 294.771868 167.00865 
L 294.901756 168.762003 
L 295.421307 182.209122 
L 295.551195 180.187339 
L 296.070746 167.081328 
L 296.200634 169.177603 
L 296.720185 181.984297 
L 296.850073 179.968481 
L 297.369624 166.970416 
L 297.499512 169.047437 
L 297.954119 182.367819 
L 298.019063 182.333891 
L 298.148951 179.983063 
L 298.603558 166.72577 
L 298.668502 166.907901 
L 298.798389 169.473896 
L 299.252997 182.242401 
L 299.317941 182.00805 
L 299.447828 179.459324 
L 299.902436 166.93237 
L 299.96738 167.135379 
L 300.097267 169.639334 
L 300.551875 182.401467 
L 300.616819 182.161744 
L 300.746706 179.480625 
L 301.201314 166.593573 
L 301.266258 166.981774 
L 301.461089 172.218801 
L 301.785809 182.127139 
L 301.850753 182.401467 
L 301.98064 180.661575 
L 302.500192 166.93237 
L 302.630079 168.634871 
L 303.149631 182.242401 
L 303.214575 181.758848 
L 303.409406 176.541269 
L 303.734126 166.944758 
L 303.79907 166.72577 
L 303.928957 168.607597 
L 304.448509 182.367819 
L 304.578396 180.226191 
L 305.033004 167.008944 
L 305.097948 167.033159 
L 305.227835 169.2182 
L 305.747387 181.944671 
L 305.877274 179.868638 
L 306.396826 167.099445 
L 306.526713 169.211325 
L 306.981321 182.167782 
L 307.046265 182.097694 
L 307.176152 179.75834 
L 307.63076 167.051021 
L 307.695704 167.248715 
L 307.825591 169.726798 
L 308.280199 181.808012 
L 308.345142 181.590962 
L 308.47503 179.215325 
L 308.929638 167.455693 
L 308.994581 167.609043 
L 309.124469 169.863764 
L 309.579077 181.78321 
L 309.64402 181.624155 
L 309.773908 179.273425 
L 310.228516 167.324684 
L 310.293459 167.590295 
L 310.488291 172.117385 
L 310.813011 181.205386 
L 310.877954 181.563762 
L 310.942898 181.23191 
L 311.13773 176.819414 
L 311.46245 168.227518 
L 311.527393 167.857607 
L 311.592337 168.130554 
L 311.787169 172.233754 
L 312.176832 181.240319 
L 312.241776 181.042523 
L 312.371664 178.828352 
L 312.826271 167.809571 
L 312.891215 168.041143 
L 313.021103 170.373338 
L 313.47571 181.20075 
L 313.540654 180.888932 
L 313.735486 176.677839 
L 314.060205 168.583424 
L 314.125149 168.267477 
L 314.190093 168.556966 
L 314.384925 172.440879 
L 314.774588 180.663111 
L 314.839532 180.492396 
L 314.96942 178.535488 
L 315.424027 168.423613 
L 315.488971 168.529975 
L 315.618859 170.453824 
L 316.073466 180.726475 
L 316.13841 180.580128 
L 316.268298 178.582853 
L 316.722905 168.658822 
L 316.787849 168.816822 
L 316.917737 170.699581 
L 317.372344 180.164543 
L 317.437288 180.123399 
L 317.567176 178.553244 
L 318.086727 168.926157 
L 318.216615 170.275875 
L 318.736166 180.356067 
L 318.866054 179.016131 
L 319.385605 168.865101 
L 319.515493 170.15951 
L 320.035044 180.064367 
L 320.099988 179.801844 
L 320.29482 176.468625 
L 320.684483 169.057569 
L 320.749427 169.119218 
L 320.879315 170.71187 
L 321.398866 180.385476 
L 321.528754 178.860794 
L 322.048305 168.554932 
L 322.178193 170.050534 
L 322.697744 180.614377 
L 322.827632 179.373574 
L 323.347183 168.307628 
L 323.412127 168.447415 
L 323.542015 170.371271 
L 324.061566 181.365055 
L 324.191454 179.501903 
L 324.711005 167.18162 
L 324.840893 169.096275 
L 325.360444 182.370436 
L 325.490332 180.586173 
L 326.009883 166.204835 
L 326.074827 166.56083 
L 326.269658 171.752375 
L 326.659322 183.852689 
L 326.724266 183.666359 
L 326.854153 180.726645 
L 327.308761 164.209525 
L 327.373705 164.334088 
L 327.503592 167.502948 
L 327.9582 185.880955 
L 328.023144 185.820956 
L 328.153031 182.537641 
L 328.672583 162.12601 
L 328.80247 165.31602 
L 329.322021 188.698184 
L 329.386965 187.777048 
L 329.581797 178.010519 
L 329.906517 158.981237 
L 329.97146 158.306421 
L 330.101348 161.635851 
L 330.620899 193.208859 
L 330.685843 192.320828 
L 330.880675 180.140988 
L 331.270338 153.028774 
L 331.335282 153.730801 
L 331.46517 161.019431 
L 331.919777 200.382622 
L 331.984721 200.127743 
L 332.114609 192.364619 
L 332.63416 140.926314 
L 332.764048 149.05332 
L 333.088768 204.993793 
L 333.348543 230.161123 
L 333.478431 221.685551 
L 333.543375 212.34893 
L 333.608319 100.836184 
L 333.673263 104.104681 
L 333.868094 142.983365 
L 334.322702 269.422491 
L 334.387646 271.130828 
L 334.517533 254.532455 
L 334.777309 162.464817 
L 335.102028 73.13369 
L 335.166972 74.452142 
L 335.29686 99.653166 
L 335.881355 280.906562 
L 336.011243 257.512633 
L 336.595738 63.416882 
L 336.660682 70.212049 
L 336.855514 135.560498 
L 337.245177 286.883257 
L 337.310121 289.839186 
L 337.440009 268.488563 
L 338.024504 56.721797 
L 338.089448 62.60584 
L 338.284279 128.889968 
L 338.673943 290.131435 
L 338.738887 294.36721 
L 338.803831 288.986748 
L 338.998662 222.791319 
L 339.388326 58.246472 
L 339.45327 53.636045 
L 339.518213 58.753991 
L 339.713045 124.669561 
L 340.102709 290.385375 
L 340.167652 295.488 
L 340.232596 290.915559 
L 340.427428 226.444044 
L 340.817091 59.476655 
L 340.882035 53.772094 
L 340.946979 57.761149 
L 341.076867 92.76402 
L 341.596418 294.354028 
L 341.661362 290.94063 
L 341.79125 257.337909 
L 342.310801 56.137365 
L 342.375745 58.59653 
L 342.505633 90.247318 
L 343.025184 291.739011 
L 343.090128 290.12739 
L 343.220016 260.210331 
L 343.739567 59.297205 
L 343.804511 59.85254 
L 343.934399 87.369794 
L 344.518894 289.036214 
L 344.648781 263.89168 
L 345.233276 60.537956 
L 345.363164 83.41129 
L 345.947659 288.284445 
L 346.012603 282.482987 
L 346.207435 219.083196 
L 346.597098 65.039199 
L 346.662042 60.609989 
L 346.726986 65.206717 
L 346.921818 126.147496 
L 347.376425 288.387032 
L 347.441369 285.02832 
L 347.571257 253.124276 
L 348.090808 60.407606 
L 348.155752 62.447594 
L 348.28564 92.360613 
L 348.805191 289.086438 
L 348.870135 288.055415 
L 349.000023 259.769582 
L 349.584518 59.906285 
L 349.714405 86.189715 
L 350.298901 290.673161 
L 350.428788 265.850762 
L 351.013283 57.752372 
L 351.078227 65.019467 
L 351.273059 133.411463 
L 351.662722 289.101563 
L 351.727666 292.161939 
L 351.857554 270.667208 
L 352.182274 121.71862 
L 352.442049 56.441624 
L 352.571937 76.641037 
L 352.896656 224.719082 
L 353.156432 292.542744 
L 353.221376 287.852659 
L 353.416208 224.721329 
L 353.805871 62.123877 
L 353.870815 56.507922 
L 353.935759 60.315291 
L 354.065647 94.262201 
L 354.585198 292.070118 
L 354.650142 289.052955 
L 354.780029 256.714103 
L 355.299581 57.825204 
L 355.364525 59.758618 
L 355.494412 90.10989 
L 356.013964 290.704577 
L 356.078907 289.669509 
L 356.208795 260.948698 
L 356.79329 59.689049 
L 356.923178 86.214953 
L 357.507673 289.695981 
L 357.637561 265.274365 
L 358.222056 59.530808 
L 358.287 66.480058 
L 358.481832 133.076522 
L 358.871495 286.068109 
L 358.936439 289.483134 
L 359.066327 269.50634 
L 359.391046 125.408189 
L 359.650822 59.368055 
L 359.715766 63.966249 
L 359.910597 125.573777 
L 360.300261 283.929019 
L 360.365205 289.543008 
L 360.430149 286.067217 
L 360.560036 253.651688 
L 361.079588 59.439441 
L 361.144531 61.684351 
L 361.274419 92.195024 
L 361.79397 289.797127 
L 361.858914 288.505305 
L 361.988802 259.605729 
L 362.508353 59.633951 
L 362.573297 59.772921 
L 362.703185 86.624199 
L 363.28768 290.516907 
L 363.417568 265.222077 
L 364.002063 58.147621 
L 364.131951 81.731551 
L 364.716446 291.594486 
L 364.78139 285.155939 
L 364.976221 218.378685 
L 365.365885 60.80326 
L 365.430829 57.106311 
L 365.560717 77.351086 
L 365.885436 224.578987 
L 366.145212 291.856244 
L 366.210155 287.179194 
L 366.404987 224.438416 
L 366.859594 57.152639 
L 366.924538 60.891562 
L 367.054426 94.550563 
L 367.573977 291.504336 
L 367.638921 288.599705 
L 367.768809 256.596363 
L 368.28836 58.274624 
L 368.353304 60.071285 
L 368.483192 90.0852 
L 369.002743 290.364006 
L 369.067687 289.471239 
L 369.197575 261.06851 
L 369.78207 59.790985 
L 369.911958 86.026591 
L 370.496453 289.660152 
L 370.626341 265.486023 
L 371.210836 59.541553 
L 371.27578 66.374178 
L 371.470611 132.713961 
L 371.860275 285.962627 
L 371.925218 289.487888 
L 372.055106 269.717391 
L 372.379826 125.746359 
L 372.639601 59.368055 
L 372.704545 63.862142 
L 372.899377 125.23212 
L 373.353984 289.541372 
L 373.418928 286.179169 
L 373.548816 253.959123 
L 374.068367 59.41681 
L 374.133311 61.539446 
L 374.263199 91.846885 
L 374.78275 289.857588 
L 374.847694 288.699966 
L 374.977582 260.015924 
L 375.562077 59.487026 
L 375.691965 86.131004 
L 376.27646 290.907261 
L 376.406347 265.781356 
L 376.990843 57.647096 
L 377.055786 65.032285 
L 377.250618 133.703672 
L 377.640282 289.236578 
L 377.705225 292.203942 
L 377.835113 270.529509 
L 378.419608 56.435078 
L 378.484552 62.123877 
L 378.679384 127.670075 
L 379.069047 287.927923 
L 379.133991 292.542744 
L 379.198935 287.780924 
L 379.393767 224.483531 
L 379.78343 62.052687 
L 379.848374 56.520013 
L 379.913318 60.412748 
L 380.043206 94.506758 
L 380.562757 292.006935 
L 380.627701 288.887447 
L 380.757589 256.385793 
L 381.27714 57.974507 
L 381.342084 60.031534 
L 381.471971 90.560707 
L 381.991523 290.400805 
L 382.056467 289.224683 
L 382.186354 260.34435 
L 382.705906 60.205515 
L 382.770849 60.336973 
L 382.900737 86.954077 
L 383.485232 288.831888 
L 383.61512 264.429294 
L 384.199615 60.601711 
L 384.264559 67.502803 
L 384.459391 133.404358 
L 384.849054 284.825059 
L 384.913998 288.279665 
L 385.043886 268.721016 
L 385.368605 126.489276 
L 385.628381 60.609989 
L 385.693325 64.925358 
L 385.888157 125.226576 
L 386.342764 288.40431 
L 386.407708 285.353738 
L 386.537596 253.978885 
L 387.057147 60.29587 
L 387.122091 61.985873 
L 387.251978 91.321392 
L 387.77153 289.391364 
L 387.836473 288.759665 
L 387.966361 261.083714 
L 388.550856 58.824228 
L 388.680744 84.537894 
L 389.265239 292.2232 
L 389.395127 267.818741 
L 389.979622 55.691425 
L 390.044566 62.780366 
L 390.239398 131.903166 
L 390.629061 291.422825 
L 390.694005 294.707235 
L 390.823893 272.92283 
L 391.148612 120.309149 
L 391.408388 53.568 
L 391.538276 74.625344 
L 391.862995 227.11446 
L 392.122771 295.488 
L 392.187715 290.156543 
L 392.382546 223.955547 
L 392.77221 58.753991 
L 392.837154 53.890589 
L 392.902098 58.736146 
L 393.096929 123.875895 
L 393.486593 288.699983 
L 393.551536 293.814757 
L 393.61648 289.361174 
L 393.811312 226.125567 
L 394.200975 63.239536 
L 394.265919 57.607022 
L 394.330863 61.327024 
L 394.460751 94.788552 
L 394.980302 288.594129 
L 395.045246 285.550324 
L 395.175134 254.026688 
L 395.694685 65.046022 
L 395.759629 67.018642 
L 395.889517 95.323211 
L 396.409068 278.855879 
L 396.474012 278.526938 
L 396.6039 254.466786 
L 397.188395 75.092386 
L 397.318283 92.954139 
L 397.967722 269.422491 
L 398.032665 263.834681 
L 398.227497 219.911059 
L 398.487273 147.181997 
L 398.487273 147.181997 
" style="fill:none;stroke:#ff7f0e;stroke-linecap:square;stroke-width:1.5;"/>
   </g>
   <g id="patch_3">
    <path d="M 57.6 307.584 
L 57.6 41.472 
" style="fill:none;stroke:#000000;stroke-linecap:square;stroke-linejoin:miter;stroke-width:0.8;"/>
   </g>
   <g id="patch_4">
    <path d="M 414.72 307.584 
L 414.72 41.472 
" style="fill:none;stroke:#000000;stroke-linecap:square;stroke-linejoin:miter;stroke-width:0.8;"/>
   </g>
   <g id="patch_5">
    <path d="M 57.6 307.584 
L 414.72 307.584 
" style="fill:none;stroke:#000000;stroke-linecap:square;stroke-linejoin:miter;stroke-width:0.8;"/>
   </g>
   <g id="patch_6">
    <path d="M 57.6 41.472 
L 414.72 41.472 
" style="fill:none;stroke:#000000;stroke-linecap:square;stroke-linejoin:miter;stroke-width:0.8;"/>
   </g>
   <g id="text_14">
    <!-- Time Domain, Time=(4, 5) -->
    <defs>
     <path d="M -0.296875 72.90625 
L 61.375 72.90625 
L 61.375 64.59375 
L 35.5 64.59375 
L 35.5 0 
L 25.59375 0 
L 25.59375 64.59375 
L -0.296875 64.59375 
z
" id="DejaVuSans-84"/>
     <path id="DejaVuSans-32"/>
     <path d="M 19.671875 64.796875 
L 19.671875 8.109375 
L 31.59375 8.109375 
Q 46.6875 8.109375 53.6875 14.9375 
Q 60.6875 21.78125 60.6875 36.53125 
Q 60.6875 51.171875 53.6875 57.984375 
Q 46.6875 64.796875 31.59375 64.796875 
z
M 9.8125 72.90625 
L 30.078125 72.90625 
Q 51.265625 72.90625 61.171875 64.09375 
Q 71.09375 55.28125 71.09375 36.53125 
Q 71.09375 17.671875 61.125 8.828125 
Q 51.171875 0 30.078125 0 
L 9.8125 0 
z
" id="DejaVuSans-68"/>
     <path d="M 30.609375 48.390625 
Q 23.390625 48.390625 19.1875 42.75 
Q 14.984375 37.109375 14.984375 27.296875 
Q 14.984375 17.484375 19.15625 11.84375 
Q 23.34375 6.203125 30.609375 6.203125 
Q 37.796875 6.203125 41.984375 11.859375 
Q 46.1875 17.53125 46.1875 27.296875 
Q 46.1875 37.015625 41.984375 42.703125 
Q 37.796875 48.390625 30.609375 48.390625 
z
M 30.609375 56 
Q 42.328125 56 49.015625 48.375 
Q 55.71875 40.765625 55.71875 27.296875 
Q 55.71875 13.875 49.015625 6.21875 
Q 42.328125 -1.421875 30.609375 -1.421875 
Q 18.84375 -1.421875 12.171875 6.21875 
Q 5.515625 13.875 5.515625 27.296875 
Q 5.515625 40.765625 12.171875 48.375 
Q 18.84375 56 30.609375 56 
z
" id="DejaVuSans-111"/>
     <path d="M 34.28125 27.484375 
Q 23.390625 27.484375 19.1875 25 
Q 14.984375 22.515625 14.984375 16.5 
Q 14.984375 11.71875 18.140625 8.90625 
Q 21.296875 6.109375 26.703125 6.109375 
Q 34.1875 6.109375 38.703125 11.40625 
Q 43.21875 16.703125 43.21875 25.484375 
L 43.21875 27.484375 
z
M 52.203125 31.203125 
L 52.203125 0 
L 43.21875 0 
L 43.21875 8.296875 
Q 40.140625 3.328125 35.546875 0.953125 
Q 30.953125 -1.421875 24.3125 -1.421875 
Q 15.921875 -1.421875 10.953125 3.296875 
Q 6 8.015625 6 15.921875 
Q 6 25.140625 12.171875 29.828125 
Q 18.359375 34.515625 30.609375 34.515625 
L 43.21875 34.515625 
L 43.21875 35.40625 
Q 43.21875 41.609375 39.140625 45 
Q 35.0625 48.390625 27.6875 48.390625 
Q 23 48.390625 18.546875 47.265625 
Q 14.109375 46.140625 10.015625 43.890625 
L 10.015625 52.203125 
Q 14.9375 54.109375 19.578125 55.046875 
Q 24.21875 56 28.609375 56 
Q 40.484375 56 46.34375 49.84375 
Q 52.203125 43.703125 52.203125 31.203125 
z
" id="DejaVuSans-97"/>
     <path d="M 54.890625 33.015625 
L 54.890625 0 
L 45.90625 0 
L 45.90625 32.71875 
Q 45.90625 40.484375 42.875 44.328125 
Q 39.84375 48.1875 33.796875 48.1875 
Q 26.515625 48.1875 22.3125 43.546875 
Q 18.109375 38.921875 18.109375 30.90625 
L 18.109375 0 
L 9.078125 0 
L 9.078125 54.6875 
L 18.109375 54.6875 
L 18.109375 46.1875 
Q 21.34375 51.125 25.703125 53.5625 
Q 30.078125 56 35.796875 56 
Q 45.21875 56 50.046875 50.171875 
Q 54.890625 44.34375 54.890625 33.015625 
z
" id="DejaVuSans-110"/>
     <path d="M 11.71875 12.40625 
L 22.015625 12.40625 
L 22.015625 4 
L 14.015625 -11.625 
L 7.71875 -11.625 
L 11.71875 4 
z
" id="DejaVuSans-44"/>
     <path d="M 10.59375 45.40625 
L 73.1875 45.40625 
L 73.1875 37.203125 
L 10.59375 37.203125 
z
M 10.59375 25.484375 
L 73.1875 25.484375 
L 73.1875 17.1875 
L 10.59375 17.1875 
z
" id="DejaVuSans-61"/>
     <path d="M 31 75.875 
Q 24.46875 64.65625 21.28125 53.65625 
Q 18.109375 42.671875 18.109375 31.390625 
Q 18.109375 20.125 21.3125 9.0625 
Q 24.515625 -2 31 -13.1875 
L 23.1875 -13.1875 
Q 15.875 -1.703125 12.234375 9.375 
Q 8.59375 20.453125 8.59375 31.390625 
Q 8.59375 42.28125 12.203125 53.3125 
Q 15.828125 64.359375 23.1875 75.875 
z
" id="DejaVuSans-40"/>
     <path d="M 8.015625 75.875 
L 15.828125 75.875 
Q 23.140625 64.359375 26.78125 53.3125 
Q 30.421875 42.28125 30.421875 31.390625 
Q 30.421875 20.453125 26.78125 9.375 
Q 23.140625 -1.703125 15.828125 -13.1875 
L 8.015625 -13.1875 
Q 14.5 -2 17.703125 9.0625 
Q 20.90625 20.125 20.90625 31.390625 
Q 20.90625 42.671875 17.703125 53.65625 
Q 14.5 64.65625 8.015625 75.875 
z
" id="DejaVuSans-41"/>
    </defs>
    <g transform="translate(156.269063 35.472)scale(0.12 -0.12)">
     <use xlink:href="#DejaVuSans-84"/>
     <use x="61.037109" xlink:href="#DejaVuSans-105"/>
     <use x="88.820312" xlink:href="#DejaVuSans-109"/>
     <use x="186.232422" xlink:href="#DejaVuSans-101"/>
     <use x="247.755859" xlink:href="#DejaVuSans-32"/>
     <use x="279.542969" xlink:href="#DejaVuSans-68"/>
     <use x="356.544922" xlink:href="#DejaVuSans-111"/>
     <use x="417.726562" xlink:href="#DejaVuSans-109"/>
     <use x="515.138672" xlink:href="#DejaVuSans-97"/>
     <use x="576.417969" xlink:href="#DejaVuSans-105"/>
     <use x="604.201172" xlink:href="#DejaVuSans-110"/>
     <use x="667.580078" xlink:href="#DejaVuSans-44"/>
     <use x="699.367188" xlink:href="#DejaVuSans-32"/>
     <use x="731.154297" xlink:href="#DejaVuSans-84"/>
     <use x="792.191406" xlink:href="#DejaVuSans-105"/>
     <use x="819.974609" xlink:href="#DejaVuSans-109"/>
     <use x="917.386719" xlink:href="#DejaVuSans-101"/>
     <use x="978.910156" xlink:href="#DejaVuSans-61"/>
     <use x="1062.699219" xlink:href="#DejaVuSans-40"/>
     <use x="1101.712891" xlink:href="#DejaVuSans-52"/>
     <use x="1165.335938" xlink:href="#DejaVuSans-44"/>
     <use x="1197.123047" xlink:href="#DejaVuSans-32"/>
     <use x="1228.910156" xlink:href="#DejaVuSans-53"/>
     <use x="1292.533203" xlink:href="#DejaVuSans-41"/>
    </g>
   </g>
  </g>
 </g>
 <defs>
  <clipPath id="p2d4374f1e0">
   <rect height="266.112" width="357.12" x="57.6" y="41.472"/>
  </clipPath>
 </defs>
</svg>
