<?xml version="1.0" encoding="utf-8" standalone="no"?>
<!DOCTYPE svg PUBLIC "-//W3C//DTD SVG 1.1//EN"
  "http://www.w3.org/Graphics/SVG/1.1/DTD/svg11.dtd">
<!-- Created with matplotlib (https://matplotlib.org/) -->
<svg height="345.6pt" version="1.1" viewBox="0 0 460.8 345.6" width="460.8pt" xmlns="http://www.w3.org/2000/svg" xmlns:xlink="http://www.w3.org/1999/xlink">
 <defs>
  <style type="text/css">
*{stroke-linecap:butt;stroke-linejoin:round;}
  </style>
 </defs>
 <g id="figure_1">
  <g id="patch_1">
   <path d="M 0 345.6 
L 460.8 345.6 
L 460.8 0 
L 0 0 
z
" style="fill:#ffffff;"/>
  </g>
  <g id="axes_1">
   <g id="patch_2">
    <path d="M 33.73 66.62 
L 442.035 66.62 
L 442.035 14.76 
L 33.73 14.76 
z
" style="fill:#ffffff;"/>
   </g>
   <g id="matplotlib.axis_1">
    <g id="xtick_1">
     <g id="line2d_1">
      <defs>
       <path d="M 0 0 
L 0 3.5 
" id="m2bfe0a4ffc" style="stroke:#000000;stroke-width:0.8;"/>
      </defs>
      <g>
       <use style="stroke:#000000;stroke-width:0.8;" x="89.41538" xlink:href="#m2bfe0a4ffc" y="66.62"/>
      </g>
     </g>
     <g id="text_1">
      <!-- −0.4 -->
      <defs>
       <path d="M 10.59375 35.5 
L 73.1875 35.5 
L 73.1875 27.203125 
L 10.59375 27.203125 
z
" id="DejaVuSans-8722"/>
       <path d="M 31.78125 66.40625 
Q 24.171875 66.40625 20.328125 58.90625 
Q 16.5 51.421875 16.5 36.375 
Q 16.5 21.390625 20.328125 13.890625 
Q 24.171875 6.390625 31.78125 6.390625 
Q 39.453125 6.390625 43.28125 13.890625 
Q 47.125 21.390625 47.125 36.375 
Q 47.125 51.421875 43.28125 58.90625 
Q 39.453125 66.40625 31.78125 66.40625 
z
M 31.78125 74.21875 
Q 44.046875 74.21875 50.515625 64.515625 
Q 56.984375 54.828125 56.984375 36.375 
Q 56.984375 17.96875 50.515625 8.265625 
Q 44.046875 -1.421875 31.78125 -1.421875 
Q 19.53125 -1.421875 13.0625 8.265625 
Q 6.59375 17.96875 6.59375 36.375 
Q 6.59375 54.828125 13.0625 64.515625 
Q 19.53125 74.21875 31.78125 74.21875 
z
" id="DejaVuSans-48"/>
       <path d="M 10.6875 12.40625 
L 21 12.40625 
L 21 0 
L 10.6875 0 
z
" id="DejaVuSans-46"/>
       <path d="M 37.796875 64.3125 
L 12.890625 25.390625 
L 37.796875 25.390625 
z
M 35.203125 72.90625 
L 47.609375 72.90625 
L 47.609375 25.390625 
L 58.015625 25.390625 
L 58.015625 17.1875 
L 47.609375 17.1875 
L 47.609375 0 
L 37.796875 0 
L 37.796875 17.1875 
L 4.890625 17.1875 
L 4.890625 26.703125 
z
" id="DejaVuSans-52"/>
      </defs>
      <g transform="translate(77.273974 81.218437)scale(0.1 -0.1)">
       <use xlink:href="#DejaVuSans-8722"/>
       <use x="83.789062" xlink:href="#DejaVuSans-48"/>
       <use x="147.412109" xlink:href="#DejaVuSans-46"/>
       <use x="179.199219" xlink:href="#DejaVuSans-52"/>
      </g>
     </g>
    </g>
    <g id="xtick_2">
     <g id="line2d_2">
      <g>
       <use style="stroke:#000000;stroke-width:0.8;" x="163.667503" xlink:href="#m2bfe0a4ffc" y="66.62"/>
      </g>
     </g>
     <g id="text_2">
      <!-- −0.2 -->
      <defs>
       <path d="M 19.1875 8.296875 
L 53.609375 8.296875 
L 53.609375 0 
L 7.328125 0 
L 7.328125 8.296875 
Q 12.9375 14.109375 22.625 23.890625 
Q 32.328125 33.6875 34.8125 36.53125 
Q 39.546875 41.84375 41.421875 45.53125 
Q 43.3125 49.21875 43.3125 52.78125 
Q 43.3125 58.59375 39.234375 62.25 
Q 35.15625 65.921875 28.609375 65.921875 
Q 23.96875 65.921875 18.8125 64.3125 
Q 13.671875 62.703125 7.8125 59.421875 
L 7.8125 69.390625 
Q 13.765625 71.78125 18.9375 73 
Q 24.125 74.21875 28.421875 74.21875 
Q 39.75 74.21875 46.484375 68.546875 
Q 53.21875 62.890625 53.21875 53.421875 
Q 53.21875 48.921875 51.53125 44.890625 
Q 49.859375 40.875 45.40625 35.40625 
Q 44.1875 33.984375 37.640625 27.21875 
Q 31.109375 20.453125 19.1875 8.296875 
z
" id="DejaVuSans-50"/>
      </defs>
      <g transform="translate(151.526097 81.218437)scale(0.1 -0.1)">
       <use xlink:href="#DejaVuSans-8722"/>
       <use x="83.789062" xlink:href="#DejaVuSans-48"/>
       <use x="147.412109" xlink:href="#DejaVuSans-46"/>
       <use x="179.199219" xlink:href="#DejaVuSans-50"/>
      </g>
     </g>
    </g>
    <g id="xtick_3">
     <g id="line2d_3">
      <g>
       <use style="stroke:#000000;stroke-width:0.8;" x="237.919626" xlink:href="#m2bfe0a4ffc" y="66.62"/>
      </g>
     </g>
     <g id="text_3">
      <!-- 0.0 -->
      <g transform="translate(229.968064 81.218437)scale(0.1 -0.1)">
       <use xlink:href="#DejaVuSans-48"/>
       <use x="63.623047" xlink:href="#DejaVuSans-46"/>
       <use x="95.410156" xlink:href="#DejaVuSans-48"/>
      </g>
     </g>
    </g>
    <g id="xtick_4">
     <g id="line2d_4">
      <g>
       <use style="stroke:#000000;stroke-width:0.8;" x="312.171749" xlink:href="#m2bfe0a4ffc" y="66.62"/>
      </g>
     </g>
     <g id="text_4">
      <!-- 0.2 -->
      <g transform="translate(304.220187 81.218437)scale(0.1 -0.1)">
       <use xlink:href="#DejaVuSans-48"/>
       <use x="63.623047" xlink:href="#DejaVuSans-46"/>
       <use x="95.410156" xlink:href="#DejaVuSans-50"/>
      </g>
     </g>
    </g>
    <g id="xtick_5">
     <g id="line2d_5">
      <g>
       <use style="stroke:#000000;stroke-width:0.8;" x="386.423872" xlink:href="#m2bfe0a4ffc" y="66.62"/>
      </g>
     </g>
     <g id="text_5">
      <!-- 0.4 -->
      <g transform="translate(378.47231 81.218437)scale(0.1 -0.1)">
       <use xlink:href="#DejaVuSans-48"/>
       <use x="63.623047" xlink:href="#DejaVuSans-46"/>
       <use x="95.410156" xlink:href="#DejaVuSans-52"/>
      </g>
     </g>
    </g>
   </g>
   <g id="matplotlib.axis_2">
    <g id="ytick_1">
     <g id="line2d_6">
      <defs>
       <path d="M 0 0 
L -3.5 0 
" id="m03f3f46f49" style="stroke:#000000;stroke-width:0.8;"/>
      </defs>
      <g>
       <use style="stroke:#000000;stroke-width:0.8;" x="33.73" xlink:href="#m03f3f46f49" y="59.780955"/>
      </g>
     </g>
     <g id="text_6">
      <!-- −250 -->
      <defs>
       <path d="M 10.796875 72.90625 
L 49.515625 72.90625 
L 49.515625 64.59375 
L 19.828125 64.59375 
L 19.828125 46.734375 
Q 21.96875 47.46875 24.109375 47.828125 
Q 26.265625 48.1875 28.421875 48.1875 
Q 40.625 48.1875 47.75 41.5 
Q 54.890625 34.8125 54.890625 23.390625 
Q 54.890625 11.625 47.5625 5.09375 
Q 40.234375 -1.421875 26.90625 -1.421875 
Q 22.3125 -1.421875 17.546875 -0.640625 
Q 12.796875 0.140625 7.71875 1.703125 
L 7.71875 11.625 
Q 12.109375 9.234375 16.796875 8.0625 
Q 21.484375 6.890625 26.703125 6.890625 
Q 35.15625 6.890625 40.078125 11.328125 
Q 45.015625 15.765625 45.015625 23.390625 
Q 45.015625 31 40.078125 35.4375 
Q 35.15625 39.890625 26.703125 39.890625 
Q 22.75 39.890625 18.8125 39.015625 
Q 14.890625 38.140625 10.796875 36.28125 
z
" id="DejaVuSans-53"/>
      </defs>
      <g transform="translate(-0.737187 63.580174)scale(0.1 -0.1)">
       <use xlink:href="#DejaVuSans-8722"/>
       <use x="83.789062" xlink:href="#DejaVuSans-50"/>
       <use x="147.412109" xlink:href="#DejaVuSans-53"/>
       <use x="211.035156" xlink:href="#DejaVuSans-48"/>
      </g>
     </g>
    </g>
    <g id="ytick_2">
     <g id="line2d_7">
      <g>
       <use style="stroke:#000000;stroke-width:0.8;" x="33.73" xlink:href="#m03f3f46f49" y="43.374423"/>
      </g>
     </g>
     <g id="text_7">
      <!-- 0 -->
      <g transform="translate(20.3675 47.173642)scale(0.1 -0.1)">
       <use xlink:href="#DejaVuSans-48"/>
      </g>
     </g>
    </g>
    <g id="ytick_3">
     <g id="line2d_8">
      <g>
       <use style="stroke:#000000;stroke-width:0.8;" x="33.73" xlink:href="#m03f3f46f49" y="26.967891"/>
      </g>
     </g>
     <g id="text_8">
      <!-- 250 -->
      <g transform="translate(7.6425 30.76711)scale(0.1 -0.1)">
       <use xlink:href="#DejaVuSans-50"/>
       <use x="63.623047" xlink:href="#DejaVuSans-53"/>
       <use x="127.246094" xlink:href="#DejaVuSans-48"/>
      </g>
     </g>
    </g>
   </g>
   <g id="line2d_9">
    <path clip-path="url(#p4d24d68791)" d="M 52.289318 43.375252 
L 56.373185 43.372839 
L 57.189958 43.380668 
L 58.080984 43.364524 
L 58.823505 43.376497 
L 60.976817 43.366534 
L 63.649893 43.379498 
L 64.24391 43.371548 
L 65.209188 43.368515 
L 65.803205 43.369407 
L 67.436751 43.370181 
L 70.258332 43.382255 
L 72.857156 43.377317 
L 73.451173 43.366562 
L 74.416451 43.381242 
L 74.936216 43.376795 
L 78.426066 43.384794 
L 79.020083 43.375184 
L 80.208116 43.369255 
L 86.668051 43.380585 
L 88.747111 43.3781 
L 89.341128 43.36711 
L 89.935145 43.368992 
L 97.063348 43.371191 
L 97.880122 43.37921 
L 103.894544 43.381689 
L 104.340057 43.370791 
L 106.716124 43.364139 
L 115.774883 43.374749 
L 116.294648 43.368745 
L 117.556934 43.374832 
L 118.522212 43.368183 
L 119.413238 43.374457 
L 120.972532 43.373354 
L 122.680331 43.379302 
L 123.200096 43.369402 
L 123.794113 43.388505 
L 124.239626 43.378165 
L 234.504028 43.328957 
L 234.578281 43.190995 
L 234.801037 43.550137 
L 234.949541 43.207535 
L 235.098045 43.409316 
L 235.24655 43.416034 
L 235.320802 43.622423 
L 235.395054 43.48091 
L 235.543558 42.91264 
L 235.692062 44.066052 
L 235.840567 42.864278 
L 235.914819 42.964647 
L 235.989071 43.473705 
L 236.063323 43.389259 
L 236.137575 43.231346 
L 236.286079 44.636144 
L 236.434584 40.187669 
L 236.508836 42.07964 
L 236.65734 48.670139 
L 236.805844 34.07944 
L 237.028601 54.635818 
L 237.177105 26.313836 
L 237.399861 60.644553 
L 237.548365 19.738914 
L 237.771122 64.260964 
L 237.919626 17.117273 
L 238.06813 64.262727 
L 238.142382 63.842995 
L 238.290887 19.725229 
L 238.439391 60.653217 
L 238.513643 59.56808 
L 238.662147 26.322416 
L 238.810652 54.6342 
L 238.884904 53.351646 
L 239.033408 34.068904 
L 239.181912 48.666598 
L 239.256164 47.670018 
L 239.404669 40.176492 
L 239.553173 44.631536 
L 239.627425 44.122369 
L 239.701677 43.256915 
L 239.775929 43.361626 
L 239.850181 43.46605 
L 239.998686 42.8655 
L 240.14719 44.063023 
L 240.295694 42.91075 
L 240.369946 42.987372 
L 240.51845 43.625779 
L 240.666955 43.34977 
L 240.815459 43.32403 
L 240.889711 43.199487 
L 241.112467 43.552174 
L 241.260972 43.195983 
L 241.483728 43.42984 
L 241.632232 43.378293 
L 249.205949 43.373502 
L 249.725714 43.375405 
L 250.616739 43.376885 
L 252.918555 43.368316 
L 253.735328 43.379345 
L 261.457549 43.36682 
L 261.977314 43.382297 
L 262.348575 43.378785 
L 265.392912 43.377439 
L 265.912676 43.371889 
L 269.996543 43.380731 
L 270.516308 43.374915 
L 271.927098 43.372246 
L 273.412141 43.379295 
L 274.451671 43.380766 
L 276.53073 43.375792 
L 281.728379 43.377476 
L 282.173891 43.370653 
L 283.064917 43.387341 
L 283.584682 43.374254 
L 287.297288 43.374077 
L 288.188313 43.378781 
L 288.78233 43.382598 
L 290.118869 43.364454 
L 292.049424 43.377412 
L 295.093761 43.378705 
L 295.984786 43.386182 
L 297.098568 43.376669 
L 312.394506 43.370072 
L 313.731044 43.373832 
L 316.998137 43.375367 
L 317.666406 43.38657 
L 319.89397 43.375736 
L 320.562239 43.375993 
L 321.379012 43.374976 
L 323.161063 43.377573 
L 324.868862 43.370579 
L 328.358712 43.382598 
L 329.249738 43.368879 
L 330.437772 43.369003 
L 335.115655 43.381362 
L 335.486916 43.376021 
L 335.932429 43.37166 
L 338.679757 43.380443 
L 339.793539 43.376005 
L 341.501338 43.36538 
L 341.946851 43.379327 
L 342.466615 43.378817 
L 347.812768 43.371522 
L 348.92655 43.372462 
L 349.669071 43.381425 
L 350.337341 43.368906 
L 423.475682 43.36396 
L 423.475682 43.36396 
" style="fill:none;stroke:#5eb2db;stroke-linecap:square;stroke-width:1.5;"/>
   </g>
   <g id="patch_3">
    <path d="M 33.73 66.62 
L 33.73 14.76 
" style="fill:none;stroke:#000000;stroke-linecap:square;stroke-linejoin:miter;stroke-width:0.8;"/>
   </g>
   <g id="patch_4">
    <path d="M 442.035 66.62 
L 442.035 14.76 
" style="fill:none;stroke:#000000;stroke-linecap:square;stroke-linejoin:miter;stroke-width:0.8;"/>
   </g>
   <g id="patch_5">
    <path d="M 33.73 66.62 
L 442.035 66.62 
" style="fill:none;stroke:#000000;stroke-linecap:square;stroke-linejoin:miter;stroke-width:0.8;"/>
   </g>
   <g id="patch_6">
    <path d="M 33.73 14.76 
L 442.035 14.76 
" style="fill:none;stroke:#000000;stroke-linecap:square;stroke-linejoin:miter;stroke-width:0.8;"/>
   </g>
   <g id="text_9">
    <!-- Tranmitted Pulse(Modulated) -->
    <defs>
     <path d="M -0.296875 72.90625 
L 61.375 72.90625 
L 61.375 64.59375 
L 35.5 64.59375 
L 35.5 0 
L 25.59375 0 
L 25.59375 64.59375 
L -0.296875 64.59375 
z
" id="DejaVuSans-84"/>
     <path d="M 41.109375 46.296875 
Q 39.59375 47.171875 37.8125 47.578125 
Q 36.03125 48 33.890625 48 
Q 26.265625 48 22.1875 43.046875 
Q 18.109375 38.09375 18.109375 28.8125 
L 18.109375 0 
L 9.078125 0 
L 9.078125 54.6875 
L 18.109375 54.6875 
L 18.109375 46.1875 
Q 20.953125 51.171875 25.484375 53.578125 
Q 30.03125 56 36.53125 56 
Q 37.453125 56 38.578125 55.875 
Q 39.703125 55.765625 41.0625 55.515625 
z
" id="DejaVuSans-114"/>
     <path d="M 34.28125 27.484375 
Q 23.390625 27.484375 19.1875 25 
Q 14.984375 22.515625 14.984375 16.5 
Q 14.984375 11.71875 18.140625 8.90625 
Q 21.296875 6.109375 26.703125 6.109375 
Q 34.1875 6.109375 38.703125 11.40625 
Q 43.21875 16.703125 43.21875 25.484375 
L 43.21875 27.484375 
z
M 52.203125 31.203125 
L 52.203125 0 
L 43.21875 0 
L 43.21875 8.296875 
Q 40.140625 3.328125 35.546875 0.953125 
Q 30.953125 -1.421875 24.3125 -1.421875 
Q 15.921875 -1.421875 10.953125 3.296875 
Q 6 8.015625 6 15.921875 
Q 6 25.140625 12.171875 29.828125 
Q 18.359375 34.515625 30.609375 34.515625 
L 43.21875 34.515625 
L 43.21875 35.40625 
Q 43.21875 41.609375 39.140625 45 
Q 35.0625 48.390625 27.6875 48.390625 
Q 23 48.390625 18.546875 47.265625 
Q 14.109375 46.140625 10.015625 43.890625 
L 10.015625 52.203125 
Q 14.9375 54.109375 19.578125 55.046875 
Q 24.21875 56 28.609375 56 
Q 40.484375 56 46.34375 49.84375 
Q 52.203125 43.703125 52.203125 31.203125 
z
" id="DejaVuSans-97"/>
     <path d="M 54.890625 33.015625 
L 54.890625 0 
L 45.90625 0 
L 45.90625 32.71875 
Q 45.90625 40.484375 42.875 44.328125 
Q 39.84375 48.1875 33.796875 48.1875 
Q 26.515625 48.1875 22.3125 43.546875 
Q 18.109375 38.921875 18.109375 30.90625 
L 18.109375 0 
L 9.078125 0 
L 9.078125 54.6875 
L 18.109375 54.6875 
L 18.109375 46.1875 
Q 21.34375 51.125 25.703125 53.5625 
Q 30.078125 56 35.796875 56 
Q 45.21875 56 50.046875 50.171875 
Q 54.890625 44.34375 54.890625 33.015625 
z
" id="DejaVuSans-110"/>
     <path d="M 52 44.1875 
Q 55.375 50.25 60.0625 53.125 
Q 64.75 56 71.09375 56 
Q 79.640625 56 84.28125 50.015625 
Q 88.921875 44.046875 88.921875 33.015625 
L 88.921875 0 
L 79.890625 0 
L 79.890625 32.71875 
Q 79.890625 40.578125 77.09375 44.375 
Q 74.3125 48.1875 68.609375 48.1875 
Q 61.625 48.1875 57.5625 43.546875 
Q 53.515625 38.921875 53.515625 30.90625 
L 53.515625 0 
L 44.484375 0 
L 44.484375 32.71875 
Q 44.484375 40.625 41.703125 44.40625 
Q 38.921875 48.1875 33.109375 48.1875 
Q 26.21875 48.1875 22.15625 43.53125 
Q 18.109375 38.875 18.109375 30.90625 
L 18.109375 0 
L 9.078125 0 
L 9.078125 54.6875 
L 18.109375 54.6875 
L 18.109375 46.1875 
Q 21.1875 51.21875 25.484375 53.609375 
Q 29.78125 56 35.6875 56 
Q 41.65625 56 45.828125 52.96875 
Q 50 49.953125 52 44.1875 
z
" id="DejaVuSans-109"/>
     <path d="M 9.421875 54.6875 
L 18.40625 54.6875 
L 18.40625 0 
L 9.421875 0 
z
M 9.421875 75.984375 
L 18.40625 75.984375 
L 18.40625 64.59375 
L 9.421875 64.59375 
z
" id="DejaVuSans-105"/>
     <path d="M 18.3125 70.21875 
L 18.3125 54.6875 
L 36.8125 54.6875 
L 36.8125 47.703125 
L 18.3125 47.703125 
L 18.3125 18.015625 
Q 18.3125 11.328125 20.140625 9.421875 
Q 21.96875 7.515625 27.59375 7.515625 
L 36.8125 7.515625 
L 36.8125 0 
L 27.59375 0 
Q 17.1875 0 13.234375 3.875 
Q 9.28125 7.765625 9.28125 18.015625 
L 9.28125 47.703125 
L 2.6875 47.703125 
L 2.6875 54.6875 
L 9.28125 54.6875 
L 9.28125 70.21875 
z
" id="DejaVuSans-116"/>
     <path d="M 56.203125 29.59375 
L 56.203125 25.203125 
L 14.890625 25.203125 
Q 15.484375 15.921875 20.484375 11.0625 
Q 25.484375 6.203125 34.421875 6.203125 
Q 39.59375 6.203125 44.453125 7.46875 
Q 49.3125 8.734375 54.109375 11.28125 
L 54.109375 2.78125 
Q 49.265625 0.734375 44.1875 -0.34375 
Q 39.109375 -1.421875 33.890625 -1.421875 
Q 20.796875 -1.421875 13.15625 6.1875 
Q 5.515625 13.8125 5.515625 26.8125 
Q 5.515625 40.234375 12.765625 48.109375 
Q 20.015625 56 32.328125 56 
Q 43.359375 56 49.78125 48.890625 
Q 56.203125 41.796875 56.203125 29.59375 
z
M 47.21875 32.234375 
Q 47.125 39.59375 43.09375 43.984375 
Q 39.0625 48.390625 32.421875 48.390625 
Q 24.90625 48.390625 20.390625 44.140625 
Q 15.875 39.890625 15.1875 32.171875 
z
" id="DejaVuSans-101"/>
     <path d="M 45.40625 46.390625 
L 45.40625 75.984375 
L 54.390625 75.984375 
L 54.390625 0 
L 45.40625 0 
L 45.40625 8.203125 
Q 42.578125 3.328125 38.25 0.953125 
Q 33.9375 -1.421875 27.875 -1.421875 
Q 17.96875 -1.421875 11.734375 6.484375 
Q 5.515625 14.40625 5.515625 27.296875 
Q 5.515625 40.1875 11.734375 48.09375 
Q 17.96875 56 27.875 56 
Q 33.9375 56 38.25 53.625 
Q 42.578125 51.265625 45.40625 46.390625 
z
M 14.796875 27.296875 
Q 14.796875 17.390625 18.875 11.75 
Q 22.953125 6.109375 30.078125 6.109375 
Q 37.203125 6.109375 41.296875 11.75 
Q 45.40625 17.390625 45.40625 27.296875 
Q 45.40625 37.203125 41.296875 42.84375 
Q 37.203125 48.484375 30.078125 48.484375 
Q 22.953125 48.484375 18.875 42.84375 
Q 14.796875 37.203125 14.796875 27.296875 
z
" id="DejaVuSans-100"/>
     <path id="DejaVuSans-32"/>
     <path d="M 19.671875 64.796875 
L 19.671875 37.40625 
L 32.078125 37.40625 
Q 38.96875 37.40625 42.71875 40.96875 
Q 46.484375 44.53125 46.484375 51.125 
Q 46.484375 57.671875 42.71875 61.234375 
Q 38.96875 64.796875 32.078125 64.796875 
z
M 9.8125 72.90625 
L 32.078125 72.90625 
Q 44.34375 72.90625 50.609375 67.359375 
Q 56.890625 61.8125 56.890625 51.125 
Q 56.890625 40.328125 50.609375 34.8125 
Q 44.34375 29.296875 32.078125 29.296875 
L 19.671875 29.296875 
L 19.671875 0 
L 9.8125 0 
z
" id="DejaVuSans-80"/>
     <path d="M 8.5 21.578125 
L 8.5 54.6875 
L 17.484375 54.6875 
L 17.484375 21.921875 
Q 17.484375 14.15625 20.5 10.265625 
Q 23.53125 6.390625 29.59375 6.390625 
Q 36.859375 6.390625 41.078125 11.03125 
Q 45.3125 15.671875 45.3125 23.6875 
L 45.3125 54.6875 
L 54.296875 54.6875 
L 54.296875 0 
L 45.3125 0 
L 45.3125 8.40625 
Q 42.046875 3.421875 37.71875 1 
Q 33.40625 -1.421875 27.6875 -1.421875 
Q 18.265625 -1.421875 13.375 4.4375 
Q 8.5 10.296875 8.5 21.578125 
z
M 31.109375 56 
z
" id="DejaVuSans-117"/>
     <path d="M 9.421875 75.984375 
L 18.40625 75.984375 
L 18.40625 0 
L 9.421875 0 
z
" id="DejaVuSans-108"/>
     <path d="M 44.28125 53.078125 
L 44.28125 44.578125 
Q 40.484375 46.53125 36.375 47.5 
Q 32.28125 48.484375 27.875 48.484375 
Q 21.1875 48.484375 17.84375 46.4375 
Q 14.5 44.390625 14.5 40.28125 
Q 14.5 37.15625 16.890625 35.375 
Q 19.28125 33.59375 26.515625 31.984375 
L 29.59375 31.296875 
Q 39.15625 29.25 43.1875 25.515625 
Q 47.21875 21.78125 47.21875 15.09375 
Q 47.21875 7.46875 41.1875 3.015625 
Q 35.15625 -1.421875 24.609375 -1.421875 
Q 20.21875 -1.421875 15.453125 -0.5625 
Q 10.6875 0.296875 5.421875 2 
L 5.421875 11.28125 
Q 10.40625 8.6875 15.234375 7.390625 
Q 20.0625 6.109375 24.8125 6.109375 
Q 31.15625 6.109375 34.5625 8.28125 
Q 37.984375 10.453125 37.984375 14.40625 
Q 37.984375 18.0625 35.515625 20.015625 
Q 33.0625 21.96875 24.703125 23.78125 
L 21.578125 24.515625 
Q 13.234375 26.265625 9.515625 29.90625 
Q 5.8125 33.546875 5.8125 39.890625 
Q 5.8125 47.609375 11.28125 51.796875 
Q 16.75 56 26.8125 56 
Q 31.78125 56 36.171875 55.265625 
Q 40.578125 54.546875 44.28125 53.078125 
z
" id="DejaVuSans-115"/>
     <path d="M 31 75.875 
Q 24.46875 64.65625 21.28125 53.65625 
Q 18.109375 42.671875 18.109375 31.390625 
Q 18.109375 20.125 21.3125 9.0625 
Q 24.515625 -2 31 -13.1875 
L 23.1875 -13.1875 
Q 15.875 -1.703125 12.234375 9.375 
Q 8.59375 20.453125 8.59375 31.390625 
Q 8.59375 42.28125 12.203125 53.3125 
Q 15.828125 64.359375 23.1875 75.875 
z
" id="DejaVuSans-40"/>
     <path d="M 9.8125 72.90625 
L 24.515625 72.90625 
L 43.109375 23.296875 
L 61.8125 72.90625 
L 76.515625 72.90625 
L 76.515625 0 
L 66.890625 0 
L 66.890625 64.015625 
L 48.09375 14.015625 
L 38.1875 14.015625 
L 19.390625 64.015625 
L 19.390625 0 
L 9.8125 0 
z
" id="DejaVuSans-77"/>
     <path d="M 30.609375 48.390625 
Q 23.390625 48.390625 19.1875 42.75 
Q 14.984375 37.109375 14.984375 27.296875 
Q 14.984375 17.484375 19.15625 11.84375 
Q 23.34375 6.203125 30.609375 6.203125 
Q 37.796875 6.203125 41.984375 11.859375 
Q 46.1875 17.53125 46.1875 27.296875 
Q 46.1875 37.015625 41.984375 42.703125 
Q 37.796875 48.390625 30.609375 48.390625 
z
M 30.609375 56 
Q 42.328125 56 49.015625 48.375 
Q 55.71875 40.765625 55.71875 27.296875 
Q 55.71875 13.875 49.015625 6.21875 
Q 42.328125 -1.421875 30.609375 -1.421875 
Q 18.84375 -1.421875 12.171875 6.21875 
Q 5.515625 13.875 5.515625 27.296875 
Q 5.515625 40.765625 12.171875 48.375 
Q 18.84375 56 30.609375 56 
z
" id="DejaVuSans-111"/>
     <path d="M 8.015625 75.875 
L 15.828125 75.875 
Q 23.140625 64.359375 26.78125 53.3125 
Q 30.421875 42.28125 30.421875 31.390625 
Q 30.421875 20.453125 26.78125 9.375 
Q 23.140625 -1.703125 15.828125 -13.1875 
L 8.015625 -13.1875 
Q 14.5 -2 17.703125 9.0625 
Q 20.90625 20.125 20.90625 31.390625 
Q 20.90625 42.671875 17.703125 53.65625 
Q 14.5 64.65625 8.015625 75.875 
z
" id="DejaVuSans-41"/>
    </defs>
    <g transform="translate(150.419375 8.76)scale(0.12 -0.12)">
     <use xlink:href="#DejaVuSans-84"/>
     <use x="60.865234" xlink:href="#DejaVuSans-114"/>
     <use x="101.978516" xlink:href="#DejaVuSans-97"/>
     <use x="163.257812" xlink:href="#DejaVuSans-110"/>
     <use x="226.636719" xlink:href="#DejaVuSans-109"/>
     <use x="324.048828" xlink:href="#DejaVuSans-105"/>
     <use x="351.832031" xlink:href="#DejaVuSans-116"/>
     <use x="391.041016" xlink:href="#DejaVuSans-116"/>
     <use x="430.25" xlink:href="#DejaVuSans-101"/>
     <use x="491.773438" xlink:href="#DejaVuSans-100"/>
     <use x="555.25" xlink:href="#DejaVuSans-32"/>
     <use x="587.037109" xlink:href="#DejaVuSans-80"/>
     <use x="647.324219" xlink:href="#DejaVuSans-117"/>
     <use x="710.703125" xlink:href="#DejaVuSans-108"/>
     <use x="738.486328" xlink:href="#DejaVuSans-115"/>
     <use x="790.585938" xlink:href="#DejaVuSans-101"/>
     <use x="852.109375" xlink:href="#DejaVuSans-40"/>
     <use x="891.123047" xlink:href="#DejaVuSans-77"/>
     <use x="977.402344" xlink:href="#DejaVuSans-111"/>
     <use x="1038.583984" xlink:href="#DejaVuSans-100"/>
     <use x="1102.060547" xlink:href="#DejaVuSans-117"/>
     <use x="1165.439453" xlink:href="#DejaVuSans-108"/>
     <use x="1193.222656" xlink:href="#DejaVuSans-97"/>
     <use x="1254.501953" xlink:href="#DejaVuSans-116"/>
     <use x="1293.710938" xlink:href="#DejaVuSans-101"/>
     <use x="1355.234375" xlink:href="#DejaVuSans-100"/>
     <use x="1418.710938" xlink:href="#DejaVuSans-41"/>
    </g>
   </g>
  </g>
  <g id="axes_2">
   <g id="patch_7">
    <path d="M 33.73 150.32 
L 442.035 150.32 
L 442.035 98.46 
L 33.73 98.46 
z
" style="fill:#ffffff;"/>
   </g>
   <g id="matplotlib.axis_3">
    <g id="xtick_6">
     <g id="line2d_10">
      <g>
       <use style="stroke:#000000;stroke-width:0.8;" x="89.41538" xlink:href="#m2bfe0a4ffc" y="150.32"/>
      </g>
     </g>
     <g id="text_10">
      <!-- −0.4 -->
      <g transform="translate(77.273974 164.918437)scale(0.1 -0.1)">
       <use xlink:href="#DejaVuSans-8722"/>
       <use x="83.789062" xlink:href="#DejaVuSans-48"/>
       <use x="147.412109" xlink:href="#DejaVuSans-46"/>
       <use x="179.199219" xlink:href="#DejaVuSans-52"/>
      </g>
     </g>
    </g>
    <g id="xtick_7">
     <g id="line2d_11">
      <g>
       <use style="stroke:#000000;stroke-width:0.8;" x="163.667503" xlink:href="#m2bfe0a4ffc" y="150.32"/>
      </g>
     </g>
     <g id="text_11">
      <!-- −0.2 -->
      <g transform="translate(151.526097 164.918437)scale(0.1 -0.1)">
       <use xlink:href="#DejaVuSans-8722"/>
       <use x="83.789062" xlink:href="#DejaVuSans-48"/>
       <use x="147.412109" xlink:href="#DejaVuSans-46"/>
       <use x="179.199219" xlink:href="#DejaVuSans-50"/>
      </g>
     </g>
    </g>
    <g id="xtick_8">
     <g id="line2d_12">
      <g>
       <use style="stroke:#000000;stroke-width:0.8;" x="237.919626" xlink:href="#m2bfe0a4ffc" y="150.32"/>
      </g>
     </g>
     <g id="text_12">
      <!-- 0.0 -->
      <g transform="translate(229.968064 164.918437)scale(0.1 -0.1)">
       <use xlink:href="#DejaVuSans-48"/>
       <use x="63.623047" xlink:href="#DejaVuSans-46"/>
       <use x="95.410156" xlink:href="#DejaVuSans-48"/>
      </g>
     </g>
    </g>
    <g id="xtick_9">
     <g id="line2d_13">
      <g>
       <use style="stroke:#000000;stroke-width:0.8;" x="312.171749" xlink:href="#m2bfe0a4ffc" y="150.32"/>
      </g>
     </g>
     <g id="text_13">
      <!-- 0.2 -->
      <g transform="translate(304.220187 164.918437)scale(0.1 -0.1)">
       <use xlink:href="#DejaVuSans-48"/>
       <use x="63.623047" xlink:href="#DejaVuSans-46"/>
       <use x="95.410156" xlink:href="#DejaVuSans-50"/>
      </g>
     </g>
    </g>
    <g id="xtick_10">
     <g id="line2d_14">
      <g>
       <use style="stroke:#000000;stroke-width:0.8;" x="386.423872" xlink:href="#m2bfe0a4ffc" y="150.32"/>
      </g>
     </g>
     <g id="text_14">
      <!-- 0.4 -->
      <g transform="translate(378.47231 164.918437)scale(0.1 -0.1)">
       <use xlink:href="#DejaVuSans-48"/>
       <use x="63.623047" xlink:href="#DejaVuSans-46"/>
       <use x="95.410156" xlink:href="#DejaVuSans-52"/>
      </g>
     </g>
    </g>
   </g>
   <g id="matplotlib.axis_4">
    <g id="ytick_4">
     <g id="line2d_15">
      <g>
       <use style="stroke:#000000;stroke-width:0.8;" x="33.73" xlink:href="#m03f3f46f49" y="146.752759"/>
      </g>
     </g>
     <g id="text_15">
      <!-- 0 -->
      <g transform="translate(20.3675 150.551978)scale(0.1 -0.1)">
       <use xlink:href="#DejaVuSans-48"/>
      </g>
     </g>
    </g>
    <g id="ytick_5">
     <g id="line2d_16">
      <g>
       <use style="stroke:#000000;stroke-width:0.8;" x="33.73" xlink:href="#m03f3f46f49" y="118.050406"/>
      </g>
     </g>
     <g id="text_16">
      <!-- 250 -->
      <g transform="translate(7.6425 121.849624)scale(0.1 -0.1)">
       <use xlink:href="#DejaVuSans-50"/>
       <use x="63.623047" xlink:href="#DejaVuSans-53"/>
       <use x="127.246094" xlink:href="#DejaVuSans-48"/>
      </g>
     </g>
    </g>
   </g>
   <g id="line2d_17">
    <path clip-path="url(#pdbcf4cb073)" d="M 52.289318 146.75421 
L 52.734831 146.75541 
L 88.301598 146.741372 
L 89.044119 146.756212 
L 90.009397 146.765566 
L 90.751918 146.726609 
L 91.345935 146.740792 
L 92.90523 146.7602 
L 94.093264 146.751824 
L 94.761533 146.741581 
L 95.578306 146.740222 
L 97.434609 146.755788 
L 98.325635 146.753442 
L 98.993904 146.754529 
L 99.662173 146.735971 
L 100.330442 146.750093 
L 102.335249 146.747455 
L 103.300527 146.742627 
L 104.1173 146.738147 
L 105.15683 146.761571 
L 105.750847 146.755838 
L 122.680331 146.741788 
L 123.868365 146.735438 
L 124.462382 146.763795 
L 124.833643 146.770226 
L 126.615693 146.75618 
L 132.77862 146.751246 
L 133.075628 146.764817 
L 134.115158 146.739598 
L 134.709175 146.747914 
L 135.303192 146.76105 
L 136.268469 146.759956 
L 136.862486 146.751817 
L 145.252976 146.757479 
L 145.921245 146.755651 
L 146.515262 146.760648 
L 147.48054 146.778759 
L 148.000305 146.74818 
L 149.93086 146.761861 
L 150.376373 146.754653 
L 151.415903 146.744971 
L 152.158424 146.753683 
L 153.494962 146.745693 
L 154.46024 146.75726 
L 156.465047 146.738321 
L 157.504577 146.762785 
L 158.692611 146.730672 
L 159.36088 146.764764 
L 161.514191 146.738013 
L 161.885452 146.763211 
L 162.85073 146.753957 
L 165.30105 146.758797 
L 166.637588 146.760382 
L 172.874766 146.752872 
L 173.320279 146.749798 
L 175.250834 146.738271 
L 176.958633 146.746518 
L 177.55265 146.769184 
L 179.260449 146.758832 
L 182.601794 146.738292 
L 183.121559 146.757598 
L 184.235341 146.767388 
L 184.90361 146.754733 
L 186.685661 146.734789 
L 187.056922 146.755016 
L 189.729998 146.759504 
L 189.952755 146.760511 
L 192.031814 146.749826 
L 193.888117 146.743574 
L 194.407882 146.741647 
L 195.447412 146.738657 
L 197.15521 146.749888 
L 197.674975 146.755655 
L 199.754035 146.736595 
L 201.239077 146.742009 
L 201.758842 146.763827 
L 202.278607 146.757067 
L 232.647725 146.696175 
L 233.16749 146.705278 
L 233.984264 146.91169 
L 234.429776 146.546692 
L 234.726785 146.386715 
L 234.949541 146.460798 
L 235.24655 146.996415 
L 235.692062 147.962727 
L 235.840567 147.846853 
L 235.989071 147.3047 
L 236.211827 145.12583 
L 236.508836 139.425975 
L 236.954348 125.171368 
L 237.622618 103.7854 
L 237.845374 101.00784 
L 237.919626 100.817273 
L 237.993878 101.014344 
L 238.142382 102.489606 
L 238.439391 109.388217 
L 239.701677 146.028633 
L 239.998686 147.855067 
L 240.14719 147.957428 
L 240.369946 147.593862 
L 240.889711 146.446717 
L 241.112467 146.363616 
L 241.483728 146.628056 
L 241.929241 146.921339 
L 242.226249 146.875259 
L 242.894518 146.669578 
L 245.122082 146.733354 
L 245.641847 146.7773 
L 246.532872 146.745823 
L 247.646654 146.776077 
L 248.611932 146.74577 
L 251.35926 146.743976 
L 252.621546 146.729945 
L 253.43832 146.76128 
L 255.146119 146.73829 
L 256.779665 146.769009 
L 257.373682 146.77183 
L 257.670691 146.759518 
L 258.264708 146.757599 
L 258.932977 146.756426 
L 259.601246 146.746016 
L 260.195263 146.756758 
L 261.012036 146.733231 
L 261.977314 146.746421 
L 262.348575 146.746178 
L 262.719835 146.738529 
L 263.388104 146.758129 
L 264.056373 146.75479 
L 265.244407 146.738454 
L 266.061181 146.754379 
L 267.546223 146.734516 
L 269.254022 146.762064 
L 272.001351 146.759336 
L 276.159469 146.737671 
L 281.208614 146.758248 
L 281.802631 146.754265 
L 282.322396 146.757828 
L 283.807438 146.763451 
L 284.327203 146.763156 
L 288.114061 146.737067 
L 288.78233 146.767062 
L 295.613526 146.749 
L 296.059038 146.743404 
L 296.578803 146.778598 
L 297.841089 146.744942 
L 298.360854 146.760793 
L 299.474636 146.757807 
L 300.885426 146.751746 
L 302.667477 146.766385 
L 302.964486 146.765844 
L 303.484251 146.77415 
L 304.004016 146.744396 
L 304.746537 146.742064 
L 306.008823 146.745669 
L 307.271109 146.751071 
L 307.716622 146.762721 
L 309.424421 146.75125 
L 310.241194 146.738621 
L 312.691514 146.755533 
L 315.884355 146.758546 
L 316.998137 146.75441 
L 317.814911 146.754269 
L 327.319182 146.753553 
L 327.764695 146.7552 
L 328.28446 146.746411 
L 329.175485 146.743014 
L 423.475682 146.747344 
L 423.475682 146.747344 
" style="fill:none;stroke:#5eb2db;stroke-linecap:square;stroke-width:1.5;"/>
   </g>
   <g id="patch_8">
    <path d="M 33.73 150.32 
L 33.73 98.46 
" style="fill:none;stroke:#000000;stroke-linecap:square;stroke-linejoin:miter;stroke-width:0.8;"/>
   </g>
   <g id="patch_9">
    <path d="M 442.035 150.32 
L 442.035 98.46 
" style="fill:none;stroke:#000000;stroke-linecap:square;stroke-linejoin:miter;stroke-width:0.8;"/>
   </g>
   <g id="patch_10">
    <path d="M 33.73 150.32 
L 442.035 150.32 
" style="fill:none;stroke:#000000;stroke-linecap:square;stroke-linejoin:miter;stroke-width:0.8;"/>
   </g>
   <g id="patch_11">
    <path d="M 33.73 98.46 
L 442.035 98.46 
" style="fill:none;stroke:#000000;stroke-linecap:square;stroke-linejoin:miter;stroke-width:0.8;"/>
   </g>
   <g id="text_17">
    <!-- Received Pulse(Demodulated) -->
    <defs>
     <path d="M 44.390625 34.1875 
Q 47.5625 33.109375 50.5625 29.59375 
Q 53.5625 26.078125 56.59375 19.921875 
L 66.609375 0 
L 56 0 
L 46.6875 18.703125 
Q 43.0625 26.03125 39.671875 28.421875 
Q 36.28125 30.8125 30.421875 30.8125 
L 19.671875 30.8125 
L 19.671875 0 
L 9.8125 0 
L 9.8125 72.90625 
L 32.078125 72.90625 
Q 44.578125 72.90625 50.734375 67.671875 
Q 56.890625 62.453125 56.890625 51.90625 
Q 56.890625 45.015625 53.6875 40.46875 
Q 50.484375 35.9375 44.390625 34.1875 
z
M 19.671875 64.796875 
L 19.671875 38.921875 
L 32.078125 38.921875 
Q 39.203125 38.921875 42.84375 42.21875 
Q 46.484375 45.515625 46.484375 51.90625 
Q 46.484375 58.296875 42.84375 61.546875 
Q 39.203125 64.796875 32.078125 64.796875 
z
" id="DejaVuSans-82"/>
     <path d="M 48.78125 52.59375 
L 48.78125 44.1875 
Q 44.96875 46.296875 41.140625 47.34375 
Q 37.3125 48.390625 33.40625 48.390625 
Q 24.65625 48.390625 19.8125 42.84375 
Q 14.984375 37.3125 14.984375 27.296875 
Q 14.984375 17.28125 19.8125 11.734375 
Q 24.65625 6.203125 33.40625 6.203125 
Q 37.3125 6.203125 41.140625 7.25 
Q 44.96875 8.296875 48.78125 10.40625 
L 48.78125 2.09375 
Q 45.015625 0.34375 40.984375 -0.53125 
Q 36.96875 -1.421875 32.421875 -1.421875 
Q 20.0625 -1.421875 12.78125 6.34375 
Q 5.515625 14.109375 5.515625 27.296875 
Q 5.515625 40.671875 12.859375 48.328125 
Q 20.21875 56 33.015625 56 
Q 37.15625 56 41.109375 55.140625 
Q 45.0625 54.296875 48.78125 52.59375 
z
" id="DejaVuSans-99"/>
     <path d="M 2.984375 54.6875 
L 12.5 54.6875 
L 29.59375 8.796875 
L 46.6875 54.6875 
L 56.203125 54.6875 
L 35.6875 0 
L 23.484375 0 
z
" id="DejaVuSans-118"/>
     <path d="M 19.671875 64.796875 
L 19.671875 8.109375 
L 31.59375 8.109375 
Q 46.6875 8.109375 53.6875 14.9375 
Q 60.6875 21.78125 60.6875 36.53125 
Q 60.6875 51.171875 53.6875 57.984375 
Q 46.6875 64.796875 31.59375 64.796875 
z
M 9.8125 72.90625 
L 30.078125 72.90625 
Q 51.265625 72.90625 61.171875 64.09375 
Q 71.09375 55.28125 71.09375 36.53125 
Q 71.09375 17.671875 61.125 8.828125 
Q 51.171875 0 30.078125 0 
L 9.8125 0 
z
" id="DejaVuSans-68"/>
    </defs>
    <g transform="translate(147.186875 92.46)scale(0.12 -0.12)">
     <use xlink:href="#DejaVuSans-82"/>
     <use x="69.419922" xlink:href="#DejaVuSans-101"/>
     <use x="130.943359" xlink:href="#DejaVuSans-99"/>
     <use x="185.923828" xlink:href="#DejaVuSans-101"/>
     <use x="247.447266" xlink:href="#DejaVuSans-105"/>
     <use x="275.230469" xlink:href="#DejaVuSans-118"/>
     <use x="334.410156" xlink:href="#DejaVuSans-101"/>
     <use x="395.933594" xlink:href="#DejaVuSans-100"/>
     <use x="459.410156" xlink:href="#DejaVuSans-32"/>
     <use x="491.197266" xlink:href="#DejaVuSans-80"/>
     <use x="551.484375" xlink:href="#DejaVuSans-117"/>
     <use x="614.863281" xlink:href="#DejaVuSans-108"/>
     <use x="642.646484" xlink:href="#DejaVuSans-115"/>
     <use x="694.746094" xlink:href="#DejaVuSans-101"/>
     <use x="756.269531" xlink:href="#DejaVuSans-40"/>
     <use x="795.283203" xlink:href="#DejaVuSans-68"/>
     <use x="872.285156" xlink:href="#DejaVuSans-101"/>
     <use x="933.808594" xlink:href="#DejaVuSans-109"/>
     <use x="1031.220703" xlink:href="#DejaVuSans-111"/>
     <use x="1092.402344" xlink:href="#DejaVuSans-100"/>
     <use x="1155.878906" xlink:href="#DejaVuSans-117"/>
     <use x="1219.257812" xlink:href="#DejaVuSans-108"/>
     <use x="1247.041016" xlink:href="#DejaVuSans-97"/>
     <use x="1308.320312" xlink:href="#DejaVuSans-116"/>
     <use x="1347.529297" xlink:href="#DejaVuSans-101"/>
     <use x="1409.052734" xlink:href="#DejaVuSans-100"/>
     <use x="1472.529297" xlink:href="#DejaVuSans-41"/>
    </g>
   </g>
  </g>
  <g id="axes_3">
   <g id="patch_12">
    <path d="M 33.73 234.02 
L 442.035 234.02 
L 442.035 182.16 
L 33.73 182.16 
z
" style="fill:#ffffff;"/>
   </g>
   <g id="matplotlib.axis_5">
    <g id="xtick_11">
     <g id="line2d_18">
      <g>
       <use style="stroke:#000000;stroke-width:0.8;" x="89.407955" xlink:href="#m2bfe0a4ffc" y="234.02"/>
      </g>
     </g>
     <g id="text_18">
      <!-- −2000 -->
      <g transform="translate(72.493111 248.618437)scale(0.1 -0.1)">
       <use xlink:href="#DejaVuSans-8722"/>
       <use x="83.789062" xlink:href="#DejaVuSans-50"/>
       <use x="147.412109" xlink:href="#DejaVuSans-48"/>
       <use x="211.035156" xlink:href="#DejaVuSans-48"/>
       <use x="274.658203" xlink:href="#DejaVuSans-48"/>
      </g>
     </g>
    </g>
    <g id="xtick_12">
     <g id="line2d_19">
      <g>
       <use style="stroke:#000000;stroke-width:0.8;" x="163.645227" xlink:href="#m2bfe0a4ffc" y="234.02"/>
      </g>
     </g>
     <g id="text_19">
      <!-- −1000 -->
      <defs>
       <path d="M 12.40625 8.296875 
L 28.515625 8.296875 
L 28.515625 63.921875 
L 10.984375 60.40625 
L 10.984375 69.390625 
L 28.421875 72.90625 
L 38.28125 72.90625 
L 38.28125 8.296875 
L 54.390625 8.296875 
L 54.390625 0 
L 12.40625 0 
z
" id="DejaVuSans-49"/>
      </defs>
      <g transform="translate(146.730384 248.618437)scale(0.1 -0.1)">
       <use xlink:href="#DejaVuSans-8722"/>
       <use x="83.789062" xlink:href="#DejaVuSans-49"/>
       <use x="147.412109" xlink:href="#DejaVuSans-48"/>
       <use x="211.035156" xlink:href="#DejaVuSans-48"/>
       <use x="274.658203" xlink:href="#DejaVuSans-48"/>
      </g>
     </g>
    </g>
    <g id="xtick_13">
     <g id="line2d_20">
      <g>
       <use style="stroke:#000000;stroke-width:0.8;" x="237.8825" xlink:href="#m2bfe0a4ffc" y="234.02"/>
      </g>
     </g>
     <g id="text_20">
      <!-- 0 -->
      <g transform="translate(234.70125 248.618437)scale(0.1 -0.1)">
       <use xlink:href="#DejaVuSans-48"/>
      </g>
     </g>
    </g>
    <g id="xtick_14">
     <g id="line2d_21">
      <g>
       <use style="stroke:#000000;stroke-width:0.8;" x="312.119773" xlink:href="#m2bfe0a4ffc" y="234.02"/>
      </g>
     </g>
     <g id="text_21">
      <!-- 1000 -->
      <g transform="translate(299.394773 248.618437)scale(0.1 -0.1)">
       <use xlink:href="#DejaVuSans-49"/>
       <use x="63.623047" xlink:href="#DejaVuSans-48"/>
       <use x="127.246094" xlink:href="#DejaVuSans-48"/>
       <use x="190.869141" xlink:href="#DejaVuSans-48"/>
      </g>
     </g>
    </g>
    <g id="xtick_15">
     <g id="line2d_22">
      <g>
       <use style="stroke:#000000;stroke-width:0.8;" x="386.357045" xlink:href="#m2bfe0a4ffc" y="234.02"/>
      </g>
     </g>
     <g id="text_22">
      <!-- 2000 -->
      <g transform="translate(373.632045 248.618437)scale(0.1 -0.1)">
       <use xlink:href="#DejaVuSans-50"/>
       <use x="63.623047" xlink:href="#DejaVuSans-48"/>
       <use x="127.246094" xlink:href="#DejaVuSans-48"/>
       <use x="190.869141" xlink:href="#DejaVuSans-48"/>
      </g>
     </g>
    </g>
   </g>
   <g id="matplotlib.axis_6">
    <g id="ytick_6">
     <g id="line2d_23">
      <g>
       <use style="stroke:#000000;stroke-width:0.8;" x="33.73" xlink:href="#m03f3f46f49" y="231.663947"/>
      </g>
     </g>
     <g id="text_23">
      <!-- 0 -->
      <g transform="translate(20.3675 235.463166)scale(0.1 -0.1)">
       <use xlink:href="#DejaVuSans-48"/>
      </g>
     </g>
    </g>
    <g id="ytick_7">
     <g id="line2d_24">
      <g>
       <use style="stroke:#000000;stroke-width:0.8;" x="33.73" xlink:href="#m03f3f46f49" y="184.609685"/>
      </g>
     </g>
     <g id="text_24">
      <!-- 1 -->
      <g transform="translate(20.3675 188.408904)scale(0.1 -0.1)">
       <use xlink:href="#DejaVuSans-49"/>
      </g>
     </g>
    </g>
   </g>
   <g id="line2d_25">
    <path clip-path="url(#p944200eea4)" d="M 52.289318 231.646653 
L 52.437822 231.58688 
L 52.586327 231.613425 
L 55.630664 231.64186 
L 55.927672 231.617567 
L 56.150429 231.553113 
L 56.298933 231.6415 
L 56.521689 231.586698 
L 56.744446 231.621482 
L 56.967202 231.585994 
L 57.26421 231.631553 
L 57.338463 231.541301 
L 57.412715 231.624181 
L 58.30374 231.660487 
L 58.526497 231.63133 
L 58.749253 231.590202 
L 58.897757 231.576625 
L 59.046261 231.616109 
L 59.640278 231.603129 
L 60.308547 231.554759 
L 60.531304 231.619274 
L 61.051069 231.586966 
L 61.348077 231.638995 
L 61.496581 231.590013 
L 61.79359 231.606341 
L 62.016346 231.575297 
L 62.164851 231.572802 
L 64.392414 231.566435 
L 64.466666 231.639495 
L 64.540919 231.560516 
L 64.763675 231.600585 
L 65.060683 231.662727 
L 65.134935 231.537694 
L 65.209188 231.642957 
L 65.28344 231.587716 
L 65.431944 231.611837 
L 65.877457 231.637438 
L 66.025961 231.551414 
L 66.248717 231.62549 
L 66.322969 231.570288 
L 66.397222 231.654652 
L 66.545726 231.6061 
L 67.065491 231.643166 
L 67.288247 231.576424 
L 67.436751 231.644483 
L 67.808012 231.570518 
L 68.10502 231.608932 
L 68.179273 231.499122 
L 68.253525 231.642061 
L 68.327777 231.538033 
L 68.476281 231.608645 
L 69.070298 231.627651 
L 69.293054 231.600617 
L 69.590063 231.644485 
L 69.887071 231.590941 
L 70.258332 231.638191 
L 70.703845 231.624718 
L 82.138672 231.579423 
L 82.287176 231.646382 
L 82.584184 231.628598 
L 82.881193 231.638344 
L 83.029697 231.551466 
L 83.178201 231.614947 
L 83.47521 231.553803 
L 83.623714 231.626617 
L 84.217731 231.612104 
L 84.440488 231.629163 
L 85.108757 231.62272 
L 85.405765 231.642831 
L 85.628521 231.56917 
L 85.777026 231.614918 
L 85.851278 231.499609 
L 85.92553 231.646975 
L 85.999782 231.578909 
L 86.222538 231.596963 
L 86.371043 231.575733 
L 86.593799 231.629205 
L 86.742303 231.57985 
L 86.96506 231.626255 
L 87.633329 231.560009 
L 87.856085 231.658324 
L 88.821363 231.575505 
L 89.192623 231.652402 
L 89.563884 231.554865 
L 89.712388 231.624175 
L 89.935145 231.57732 
L 91.123179 231.607763 
L 91.271683 231.599937 
L 91.494439 231.630568 
L 91.8657 231.646222 
L 92.014204 231.556862 
L 92.23696 231.629947 
L 92.459717 231.577455 
L 92.608221 231.634326 
L 92.979482 231.554458 
L 93.127986 231.63896 
L 94.687281 231.564454 
L 94.835785 231.568171 
L 95.207045 231.593662 
L 95.429802 231.613238 
L 95.652558 231.576805 
L 96.023819 231.64293 
L 96.172323 231.587964 
L 96.395079 231.609794 
L 97.360357 231.597065 
L 97.434609 231.653216 
L 97.508861 231.548788 
L 97.583113 231.619466 
L 99.662173 231.624817 
L 99.810677 231.593805 
L 100.107685 231.617701 
L 101.963989 231.608395 
L 102.186745 231.609521 
L 102.70651 231.593209 
L 102.855014 231.606699 
L 103.003518 231.608621 
L 103.374779 231.62589 
L 103.597535 231.617007 
L 103.820292 231.553012 
L 103.968796 231.61084 
L 104.191552 231.59333 
L 104.488561 231.631601 
L 105.305334 231.633055 
L 105.899351 231.64664 
L 105.973603 231.539848 
L 106.047855 231.61059 
L 106.270612 231.590148 
L 106.56762 231.648251 
L 106.790377 231.593607 
L 107.235889 231.594821 
L 107.532898 231.613616 
L 107.681402 231.583666 
L 107.829906 231.609737 
L 108.720932 231.575977 
L 108.869436 231.593238 
L 109.240697 231.594432 
L 109.537705 231.595215 
L 109.908966 231.611853 
L 110.280226 231.604329 
L 110.502983 231.597387 
L 111.022748 231.59557 
L 112.285034 231.594967 
L 112.50779 231.585819 
L 114.364093 231.598024 
L 114.512597 231.622954 
L 114.661102 231.617551 
L 114.809606 231.619532 
L 115.255119 231.52113 
L 115.477875 231.651299 
L 115.626379 231.55386 
L 115.849136 231.629773 
L 116.517405 231.583027 
L 116.665909 231.610788 
L 117.03717 231.592699 
L 117.259926 231.626293 
L 117.40843 231.623051 
L 120.749776 231.643503 
L 121.269541 231.609813 
L 121.418045 231.593262 
L 121.640801 231.628263 
L 121.789305 231.596757 
L 122.160566 231.621618 
L 122.30907 231.609572 
L 122.531827 231.559654 
L 122.754583 231.598644 
L 122.903087 231.656141 
L 123.051592 231.582006 
L 123.868365 231.604036 
L 131.813342 231.584192 
L 131.961846 231.576071 
L 132.184603 231.612989 
L 142.728404 231.577683 
L 142.802656 231.451067 
L 142.951161 231.635189 
L 143.099665 231.624613 
L 146.292506 231.62221 
L 146.812271 231.62974 
L 147.035027 231.618847 
L 148.594322 231.507113 
L 148.668574 231.651314 
L 148.742826 231.607049 
L 149.5596 231.410361 
L 149.708104 231.250087 
L 149.782356 231.206578 
L 150.005112 230.913515 
L 150.227869 230.619309 
L 150.302121 230.395611 
L 150.376373 230.435735 
L 150.524877 230.183367 
L 152.158424 226.027304 
L 153.643466 220.42018 
L 154.905752 214.657109 
L 156.019534 209.28457 
L 156.687803 205.963001 
L 159.806393 192.059 
L 160.77167 188.798276 
L 160.994426 188.323032 
L 161.291435 187.488142 
L 162.405217 185.479001 
L 163.073486 184.728869 
L 163.147738 184.819873 
L 163.444747 184.593484 
L 163.593251 184.612642 
L 163.667503 184.517273 
L 163.816007 184.654831 
L 164.038764 184.561831 
L 164.484276 184.975849 
L 164.632781 185.073427 
L 164.929789 185.4787 
L 165.004041 185.469931 
L 165.375302 186.111567 
L 165.746562 186.861318 
L 165.895067 187.156537 
L 166.266327 188.041929 
L 166.489084 188.684507 
L 166.860344 189.747375 
L 167.305857 191.229525 
L 168.196882 194.693578 
L 168.345387 195.245207 
L 174.508313 223.694891 
L 175.325086 226.469354 
L 175.696347 227.649089 
L 175.844851 228.039257 
L 177.404146 231.105199 
L 177.478398 231.067688 
L 177.775406 231.3578 
L 178.740684 231.632433 
L 179.111945 231.585766 
L 179.186197 231.643504 
L 179.334701 231.565094 
L 182.007777 231.625286 
L 182.156282 231.637008 
L 182.527542 231.608979 
L 182.676046 231.563501 
L 182.824551 231.580285 
L 182.973055 231.574939 
L 183.195811 231.619579 
L 183.567072 231.614148 
L 184.086837 231.631649 
L 184.161089 231.531008 
L 184.235341 231.608925 
L 184.90361 231.548994 
L 185.052114 231.606119 
L 185.200619 231.588353 
L 185.349123 231.600986 
L 185.94314 231.532213 
L 186.091644 231.625838 
L 186.537157 231.570434 
L 186.685661 231.640562 
L 186.834165 231.587045 
L 187.131174 231.64777 
L 187.428182 231.633267 
L 187.725191 231.641536 
L 187.873695 231.61256 
L 198.714505 231.549411 
L 198.863009 231.588123 
L 199.308522 231.64074 
L 199.382774 231.57361 
L 199.457026 231.658864 
L 199.605531 231.58534 
L 200.422304 231.638486 
L 200.570808 231.598794 
L 200.867817 231.626478 
L 201.981598 231.606913 
L 202.278607 231.605764 
L 202.501363 231.564118 
L 202.575615 231.642616 
L 202.649868 231.546611 
L 202.72412 231.639788 
L 202.872624 231.573402 
L 202.946876 231.644882 
L 203.021128 231.527252 
L 203.169632 231.595382 
L 203.540893 231.611921 
L 204.13491 231.543583 
L 204.283414 231.642333 
L 204.580423 231.609979 
L 205.025936 231.595451 
L 205.248692 231.634098 
L 205.694205 231.639831 
L 205.916961 231.571291 
L 206.139717 231.62452 
L 206.510978 231.61034 
L 207.253499 231.607314 
L 207.476256 231.620878 
L 207.62476 231.631264 
L 207.921768 231.633278 
L 208.144525 231.605261 
L 210.743349 231.59374 
L 210.817601 231.527899 
L 211.040357 231.659503 
L 211.188862 231.611308 
L 212.228391 231.538649 
L 212.451148 231.646877 
L 213.193669 231.619126 
L 214.010442 231.613981 
L 214.158947 231.620826 
L 214.381703 231.587269 
L 214.901468 231.602459 
L 216.312258 231.585202 
L 216.38651 231.505871 
L 216.460762 231.581766 
L 216.535015 231.534019 
L 216.683519 231.641632 
L 217.054779 231.64403 
L 217.648796 231.560639 
L 217.797301 231.60498 
L 217.945805 231.532582 
L 218.539822 231.637923 
L 219.133839 231.577759 
L 219.282343 231.612124 
L 219.579352 231.625037 
L 219.653604 231.649714 
L 219.802108 231.594319 
L 220.024864 231.622134 
L 220.321873 231.589524 
L 220.841638 231.611222 
L 221.509907 231.589913 
L 221.806915 231.64439 
L 222.772193 231.555803 
L 222.994949 231.647286 
L 223.217706 231.579412 
L 223.440462 231.616161 
L 223.588966 231.578618 
L 224.257235 231.618834 
L 224.479992 231.569297 
L 225.371017 231.63678 
L 225.593774 231.606337 
L 225.742278 231.617746 
L 225.81653 231.557373 
L 225.965034 231.623674 
L 226.336295 231.647678 
L 226.484799 231.613773 
L 227.004564 231.649188 
L 227.153068 231.591983 
L 227.301572 231.624343 
L 227.895589 231.630778 
L 228.118346 231.611982 
L 228.341102 231.620093 
L 228.489606 231.618998 
L 229.67764 231.582453 
L 230.568666 231.52954 
L 230.642918 231.644152 
L 230.71717 231.588099 
L 230.865674 231.595564 
L 231.014179 231.602381 
L 231.459691 231.579948 
L 231.830952 231.622377 
L 232.424969 231.591212 
L 232.647725 231.600572 
L 232.870482 231.594012 
L 233.018986 231.526001 
L 233.093238 231.641409 
L 233.16749 231.57909 
L 233.315994 231.633434 
L 233.613003 231.575639 
L 233.835759 231.583213 
L 234.058516 231.601586 
L 234.281272 231.624547 
L 235.023793 231.622456 
L 235.098045 231.546275 
L 235.24655 231.609206 
L 235.395054 231.614354 
L 235.543558 231.586808 
L 236.211827 231.596944 
L 236.286079 231.563405 
L 236.434584 231.624794 
L 236.583088 231.525194 
L 236.805844 231.638338 
L 237.845374 231.635001 
L 238.365139 231.633892 
L 238.439391 231.532824 
L 238.513643 231.591254 
L 239.033408 231.638338 
L 239.404669 231.624794 
L 239.478921 231.654985 
L 239.627425 231.596944 
L 242.746014 231.641409 
L 242.894518 231.525386 
L 243.117275 231.636281 
L 243.414283 231.591212 
L 244.825074 231.602381 
L 244.973578 231.595564 
L 245.196334 231.644152 
L 245.270586 231.52954 
L 245.344838 231.61165 
L 246.829881 231.585564 
L 247.49815 231.620093 
L 247.795158 231.65495 
L 247.943663 231.630778 
L 248.760436 231.555554 
L 248.834688 231.649188 
L 248.90894 231.576663 
L 249.651462 231.65381 
L 249.874218 231.623674 
L 249.94847 231.65388 
L 250.022722 231.557373 
L 250.096974 231.617746 
L 250.690991 231.646064 
L 250.839495 231.62543 
L 253.141311 231.607267 
L 253.364068 231.589263 
L 255.814388 231.622134 
L 255.962892 231.570739 
L 256.2599 231.625037 
L 256.482657 231.592075 
L 256.92817 231.632195 
L 257.225178 231.626505 
L 257.670691 231.626249 
L 257.967699 231.527448 
L 258.116204 231.633926 
L 258.264708 231.610665 
L 258.413212 231.587441 
L 258.561716 231.595128 
L 258.858725 231.620398 
L 261.457549 231.587269 
L 261.754558 231.657802 
L 261.977314 231.595409 
L 262.125818 231.576035 
L 262.274322 231.595278 
L 262.422827 231.648665 
L 262.645583 231.619126 
L 263.536609 231.618964 
L 263.685113 231.561021 
L 263.982121 231.642017 
L 264.501886 231.572574 
L 264.798895 231.659503 
L 265.021651 231.527899 
L 265.244407 231.601255 
L 265.467164 231.630526 
L 265.764172 231.592802 
L 265.986929 231.633798 
L 266.135433 231.590154 
L 266.432441 231.634213 
L 266.580946 231.640047 
L 268.437249 231.589141 
L 268.585753 231.607314 
L 269.848039 231.623966 
L 269.922291 231.571291 
L 269.996543 231.65689 
L 270.070795 231.581081 
L 270.2193 231.609304 
L 271.036073 231.581049 
L 271.184577 231.623076 
L 271.778594 231.595912 
L 272.149855 231.643178 
L 272.298359 231.611921 
L 272.446863 231.579716 
L 272.66962 231.595382 
L 272.743872 231.624139 
L 272.818124 231.527252 
L 272.892376 231.644882 
L 272.966628 231.573402 
L 273.04088 231.545613 
L 273.115132 231.639788 
L 273.189385 231.546611 
L 273.263637 231.642616 
L 273.337889 231.564118 
L 273.560645 231.605764 
L 273.709149 231.568672 
L 273.931906 231.622171 
L 274.303166 231.64965 
L 274.377419 231.647629 
L 274.451671 231.520589 
L 274.600175 231.642521 
L 274.897183 231.618461 
L 275.713957 231.606735 
L 276.010965 231.601421 
L 276.382226 231.658864 
L 276.456478 231.57361 
L 276.53073 231.64074 
L 276.827739 231.587256 
L 276.976243 231.588123 
L 277.124747 231.549411 
L 277.347503 231.649361 
L 277.867268 231.536521 
L 278.015773 231.615966 
L 278.238529 231.636004 
L 278.387033 231.617799 
L 278.461285 231.552555 
L 278.60979 231.652388 
L 280.243336 231.651887 
L 280.466093 231.59156 
L 280.911605 231.564774 
L 281.06011 231.620683 
L 281.208614 231.612325 
L 281.505622 231.608935 
L 281.802631 231.585533 
L 282.099639 231.618712 
L 282.322396 231.608643 
L 282.545152 231.580412 
L 282.693656 231.63169 
L 285.143976 231.560754 
L 285.292481 231.602266 
L 285.515237 231.659057 
L 285.663741 231.559301 
L 285.812245 231.647168 
L 286.183506 231.597866 
L 286.554767 231.56348 
L 286.777523 231.618995 
L 287.445792 231.621047 
L 287.668549 231.631623 
L 287.891305 231.612727 
L 297.841089 231.481243 
L 298.21235 231.247952 
L 298.583611 230.894463 
L 300.29141 227.135346 
L 300.811174 225.562795 
L 301.850704 221.671459 
L 302.444721 219.130609 
L 303.484251 214.370312 
L 304.301024 210.338107 
L 304.523781 209.202174 
L 308.236387 192.282747 
L 308.459143 191.5484 
L 308.978908 189.747375 
L 309.572925 188.041929 
L 309.869933 187.402769 
L 310.241194 186.482599 
L 310.389698 186.3165 
L 310.760959 185.573285 
L 311.280724 184.977419 
L 311.429228 184.871757 
L 311.800489 184.561831 
L 311.874741 184.685652 
L 311.948993 184.603885 
L 312.097497 184.625361 
L 312.171749 184.517273 
L 312.320253 184.654867 
L 312.394506 184.593484 
L 312.691514 184.819873 
L 312.840018 184.762914 
L 313.062775 184.983157 
L 314.102304 186.540776 
L 314.547817 187.488142 
L 315.141834 189.108787 
L 315.216086 189.162997 
L 315.587347 190.534843 
L 315.884355 191.497695 
L 317.517902 198.102172 
L 318.557432 203.079756 
L 319.299953 206.653828 
L 319.968222 210.039105 
L 320.413735 212.166988 
L 321.379012 216.831865 
L 322.195786 220.42018 
L 322.567046 222.010454 
L 322.789803 222.87233 
L 323.680828 226.027304 
L 324.052089 227.196903 
L 324.42335 228.193129 
L 324.497602 228.294918 
L 324.868862 229.330052 
L 325.091619 229.706121 
L 325.83414 230.913515 
L 325.982644 231.030858 
L 326.131148 231.250087 
L 326.2054 231.236091 
L 326.353905 231.404293 
L 326.428157 231.417626 
L 326.502409 231.57316 
L 326.576661 231.53678 
L 326.947922 231.583769 
L 328.878477 231.62385 
L 329.175485 231.590975 
L 329.472494 231.637416 
L 330.215015 231.595878 
L 330.660528 231.584575 
L 331.106041 231.571618 
L 331.477301 231.599781 
L 331.551553 231.549625 
L 331.700058 231.6137 
L 332.14557 231.619443 
L 332.813839 231.573108 
L 332.962344 231.63099 
L 333.036596 231.451067 
L 333.1851 231.621867 
L 333.556361 231.61874 
L 333.779117 231.587039 
L 334.744395 231.596126 
L 335.041403 231.634155 
L 335.115655 231.555781 
L 335.189907 231.634234 
L 335.412664 231.566275 
L 335.709672 231.63268 
L 336.080933 231.582199 
L 336.229437 231.604479 
L 345.956465 231.589617 
L 346.030717 231.52791 
L 346.179222 231.610836 
L 346.327726 231.629823 
L 346.47623 231.586363 
L 346.624734 231.643315 
L 346.995995 231.578362 
L 347.218751 231.610965 
L 349.743324 231.622068 
L 349.891828 231.507215 
L 350.114584 231.621905 
L 350.337341 231.590953 
L 350.782853 231.593524 
L 351.228366 231.620867 
L 351.525374 231.635544 
L 351.896635 231.603403 
L 360.138621 231.612589 
L 360.287125 231.556731 
L 360.361377 231.651299 
L 360.584134 231.52113 
L 360.80689 231.621486 
L 361.029646 231.619532 
L 361.17815 231.617551 
L 361.475159 231.598024 
L 361.697915 231.582313 
L 364.222488 231.617551 
L 364.370992 231.655895 
L 367.266825 231.592569 
L 367.341077 231.501738 
L 367.489581 231.612098 
L 367.712337 231.560571 
L 367.860842 231.618486 
L 368.306354 231.613616 
L 368.900371 231.629291 
L 369.123128 231.597285 
L 370.385414 231.613183 
L 370.756674 231.63409 
L 370.830927 231.517872 
L 370.905179 231.588658 
L 371.053683 231.570207 
L 371.350691 231.631601 
L 371.721952 231.619516 
L 371.870456 231.61084 
L 371.944708 231.649688 
L 372.093213 231.591359 
L 372.68723 231.601763 
L 372.835734 231.608621 
L 373.05849 231.531961 
L 373.355499 231.639213 
L 373.504003 231.620615 
L 374.766289 231.581121 
L 374.840541 231.526404 
L 374.989045 231.632949 
L 375.360306 231.592042 
L 375.880071 231.645375 
L 376.399836 231.575008 
L 376.54834 231.599396 
L 381.894493 231.608177 
L 382.042997 231.622233 
L 382.191501 231.541523 
L 382.340006 231.583989 
L 382.711266 231.63896 
L 383.750796 231.614541 
L 383.8993 231.54749 
L 384.047804 231.624489 
L 384.196309 231.652525 
L 385.310091 231.547521 
L 385.458595 231.60514 
L 386.201116 231.648115 
L 386.275368 231.554865 
L 386.423872 231.603028 
L 386.869385 231.592016 
L 387.38915 231.630496 
L 387.611906 231.523031 
L 387.983167 231.658324 
L 388.205923 231.560009 
L 388.42868 231.613557 
L 388.79994 231.6148 
L 389.393957 231.622817 
L 389.616714 231.596963 
L 389.765218 231.621386 
L 389.987974 231.499609 
L 390.136479 231.598246 
L 390.359235 231.584121 
L 390.507739 231.624982 
L 390.879 231.616088 
L 391.101756 231.640042 
L 391.547269 231.652173 
L 391.770025 231.567389 
L 391.918529 231.626972 
L 392.215538 231.626617 
L 392.28979 231.648428 
L 392.438294 231.519816 
L 392.735303 231.639506 
L 392.883807 231.570753 
L 393.032311 231.568546 
L 393.552076 231.646382 
L 397.858699 231.607251 
L 398.081456 231.611537 
L 398.304212 231.619388 
L 398.526968 231.542052 
L 399.492246 231.596982 
L 399.64075 231.610527 
L 400.309019 231.647075 
L 400.531776 231.562465 
L 400.68028 231.628475 
L 400.903036 231.607107 
L 401.200045 231.606633 
L 401.868314 231.603989 
L 402.09107 231.606295 
L 402.239575 231.651843 
L 402.313827 231.522877 
L 402.388079 231.567863 
L 402.685087 231.613866 
L 403.279104 231.631468 
L 403.427609 231.586068 
L 403.724617 231.652498 
L 403.873121 231.589153 
L 404.17013 231.599813 
L 404.838399 231.616292 
L 404.986903 231.594329 
L 405.358164 231.647716 
L 405.58092 231.638191 
L 406.546198 231.600617 
L 406.768954 231.627651 
L 406.99171 231.633327 
L 407.734232 231.608932 
L 407.956988 231.606948 
L 408.253997 231.541507 
L 408.476753 231.645438 
L 408.625257 231.614485 
L 409.887543 231.550853 
L 410.036048 231.642165 
L 410.258804 231.569833 
L 410.48156 231.659426 
L 410.704317 231.537694 
L 410.852821 231.621762 
L 411.075577 231.600585 
L 423.475682 231.549815 
L 423.475682 231.549815 
" style="fill:none;stroke:#5eb2db;stroke-linecap:square;stroke-width:1.5;"/>
   </g>
   <g id="patch_13">
    <path d="M 33.73 234.02 
L 33.73 182.16 
" style="fill:none;stroke:#000000;stroke-linecap:square;stroke-linejoin:miter;stroke-width:0.8;"/>
   </g>
   <g id="patch_14">
    <path d="M 442.035 234.02 
L 442.035 182.16 
" style="fill:none;stroke:#000000;stroke-linecap:square;stroke-linejoin:miter;stroke-width:0.8;"/>
   </g>
   <g id="patch_15">
    <path d="M 33.73 234.02 
L 442.035 234.02 
" style="fill:none;stroke:#000000;stroke-linecap:square;stroke-linejoin:miter;stroke-width:0.8;"/>
   </g>
   <g id="patch_16">
    <path d="M 33.73 182.16 
L 442.035 182.16 
" style="fill:none;stroke:#000000;stroke-linecap:square;stroke-linejoin:miter;stroke-width:0.8;"/>
   </g>
   <g id="text_25">
    <!-- Freq Response of Tranmitted Pulse(Modulated) -->
    <defs>
     <path d="M 9.8125 72.90625 
L 51.703125 72.90625 
L 51.703125 64.59375 
L 19.671875 64.59375 
L 19.671875 43.109375 
L 48.578125 43.109375 
L 48.578125 34.8125 
L 19.671875 34.8125 
L 19.671875 0 
L 9.8125 0 
z
" id="DejaVuSans-70"/>
     <path d="M 14.796875 27.296875 
Q 14.796875 17.390625 18.875 11.75 
Q 22.953125 6.109375 30.078125 6.109375 
Q 37.203125 6.109375 41.296875 11.75 
Q 45.40625 17.390625 45.40625 27.296875 
Q 45.40625 37.203125 41.296875 42.84375 
Q 37.203125 48.484375 30.078125 48.484375 
Q 22.953125 48.484375 18.875 42.84375 
Q 14.796875 37.203125 14.796875 27.296875 
z
M 45.40625 8.203125 
Q 42.578125 3.328125 38.25 0.953125 
Q 33.9375 -1.421875 27.875 -1.421875 
Q 17.96875 -1.421875 11.734375 6.484375 
Q 5.515625 14.40625 5.515625 27.296875 
Q 5.515625 40.1875 11.734375 48.09375 
Q 17.96875 56 27.875 56 
Q 33.9375 56 38.25 53.625 
Q 42.578125 51.265625 45.40625 46.390625 
L 45.40625 54.6875 
L 54.390625 54.6875 
L 54.390625 -20.796875 
L 45.40625 -20.796875 
z
" id="DejaVuSans-113"/>
     <path d="M 18.109375 8.203125 
L 18.109375 -20.796875 
L 9.078125 -20.796875 
L 9.078125 54.6875 
L 18.109375 54.6875 
L 18.109375 46.390625 
Q 20.953125 51.265625 25.265625 53.625 
Q 29.59375 56 35.59375 56 
Q 45.5625 56 51.78125 48.09375 
Q 58.015625 40.1875 58.015625 27.296875 
Q 58.015625 14.40625 51.78125 6.484375 
Q 45.5625 -1.421875 35.59375 -1.421875 
Q 29.59375 -1.421875 25.265625 0.953125 
Q 20.953125 3.328125 18.109375 8.203125 
z
M 48.6875 27.296875 
Q 48.6875 37.203125 44.609375 42.84375 
Q 40.53125 48.484375 33.40625 48.484375 
Q 26.265625 48.484375 22.1875 42.84375 
Q 18.109375 37.203125 18.109375 27.296875 
Q 18.109375 17.390625 22.1875 11.75 
Q 26.265625 6.109375 33.40625 6.109375 
Q 40.53125 6.109375 44.609375 11.75 
Q 48.6875 17.390625 48.6875 27.296875 
z
" id="DejaVuSans-112"/>
     <path d="M 37.109375 75.984375 
L 37.109375 68.5 
L 28.515625 68.5 
Q 23.6875 68.5 21.796875 66.546875 
Q 19.921875 64.59375 19.921875 59.515625 
L 19.921875 54.6875 
L 34.71875 54.6875 
L 34.71875 47.703125 
L 19.921875 47.703125 
L 19.921875 0 
L 10.890625 0 
L 10.890625 47.703125 
L 2.296875 47.703125 
L 2.296875 54.6875 
L 10.890625 54.6875 
L 10.890625 58.5 
Q 10.890625 67.625 15.140625 71.796875 
Q 19.390625 75.984375 28.609375 75.984375 
z
" id="DejaVuSans-102"/>
    </defs>
    <g transform="translate(96.422188 176.16)scale(0.12 -0.12)">
     <use xlink:href="#DejaVuSans-70"/>
     <use x="57.410156" xlink:href="#DejaVuSans-114"/>
     <use x="98.492188" xlink:href="#DejaVuSans-101"/>
     <use x="160.015625" xlink:href="#DejaVuSans-113"/>
     <use x="223.492188" xlink:href="#DejaVuSans-32"/>
     <use x="255.279297" xlink:href="#DejaVuSans-82"/>
     <use x="324.699219" xlink:href="#DejaVuSans-101"/>
     <use x="386.222656" xlink:href="#DejaVuSans-115"/>
     <use x="438.322266" xlink:href="#DejaVuSans-112"/>
     <use x="501.798828" xlink:href="#DejaVuSans-111"/>
     <use x="562.980469" xlink:href="#DejaVuSans-110"/>
     <use x="626.359375" xlink:href="#DejaVuSans-115"/>
     <use x="678.458984" xlink:href="#DejaVuSans-101"/>
     <use x="739.982422" xlink:href="#DejaVuSans-32"/>
     <use x="771.769531" xlink:href="#DejaVuSans-111"/>
     <use x="832.951172" xlink:href="#DejaVuSans-102"/>
     <use x="868.15625" xlink:href="#DejaVuSans-32"/>
     <use x="899.943359" xlink:href="#DejaVuSans-84"/>
     <use x="960.808594" xlink:href="#DejaVuSans-114"/>
     <use x="1001.921875" xlink:href="#DejaVuSans-97"/>
     <use x="1063.201172" xlink:href="#DejaVuSans-110"/>
     <use x="1126.580078" xlink:href="#DejaVuSans-109"/>
     <use x="1223.992188" xlink:href="#DejaVuSans-105"/>
     <use x="1251.775391" xlink:href="#DejaVuSans-116"/>
     <use x="1290.984375" xlink:href="#DejaVuSans-116"/>
     <use x="1330.193359" xlink:href="#DejaVuSans-101"/>
     <use x="1391.716797" xlink:href="#DejaVuSans-100"/>
     <use x="1455.193359" xlink:href="#DejaVuSans-32"/>
     <use x="1486.980469" xlink:href="#DejaVuSans-80"/>
     <use x="1547.267578" xlink:href="#DejaVuSans-117"/>
     <use x="1610.646484" xlink:href="#DejaVuSans-108"/>
     <use x="1638.429688" xlink:href="#DejaVuSans-115"/>
     <use x="1690.529297" xlink:href="#DejaVuSans-101"/>
     <use x="1752.052734" xlink:href="#DejaVuSans-40"/>
     <use x="1791.066406" xlink:href="#DejaVuSans-77"/>
     <use x="1877.345703" xlink:href="#DejaVuSans-111"/>
     <use x="1938.527344" xlink:href="#DejaVuSans-100"/>
     <use x="2002.003906" xlink:href="#DejaVuSans-117"/>
     <use x="2065.382812" xlink:href="#DejaVuSans-108"/>
     <use x="2093.166016" xlink:href="#DejaVuSans-97"/>
     <use x="2154.445312" xlink:href="#DejaVuSans-116"/>
     <use x="2193.654297" xlink:href="#DejaVuSans-101"/>
     <use x="2255.177734" xlink:href="#DejaVuSans-100"/>
     <use x="2318.654297" xlink:href="#DejaVuSans-41"/>
    </g>
   </g>
  </g>
  <g id="axes_4">
   <g id="patch_17">
    <path d="M 33.73 317.72 
L 442.035 317.72 
L 442.035 265.86 
L 33.73 265.86 
z
" style="fill:#ffffff;"/>
   </g>
   <g id="matplotlib.axis_7">
    <g id="xtick_16">
     <g id="line2d_26">
      <g>
       <use style="stroke:#000000;stroke-width:0.8;" x="89.407955" xlink:href="#m2bfe0a4ffc" y="317.72"/>
      </g>
     </g>
     <g id="text_26">
      <!-- −2000 -->
      <g transform="translate(72.493111 332.318437)scale(0.1 -0.1)">
       <use xlink:href="#DejaVuSans-8722"/>
       <use x="83.789062" xlink:href="#DejaVuSans-50"/>
       <use x="147.412109" xlink:href="#DejaVuSans-48"/>
       <use x="211.035156" xlink:href="#DejaVuSans-48"/>
       <use x="274.658203" xlink:href="#DejaVuSans-48"/>
      </g>
     </g>
    </g>
    <g id="xtick_17">
     <g id="line2d_27">
      <g>
       <use style="stroke:#000000;stroke-width:0.8;" x="163.645227" xlink:href="#m2bfe0a4ffc" y="317.72"/>
      </g>
     </g>
     <g id="text_27">
      <!-- −1000 -->
      <g transform="translate(146.730384 332.318437)scale(0.1 -0.1)">
       <use xlink:href="#DejaVuSans-8722"/>
       <use x="83.789062" xlink:href="#DejaVuSans-49"/>
       <use x="147.412109" xlink:href="#DejaVuSans-48"/>
       <use x="211.035156" xlink:href="#DejaVuSans-48"/>
       <use x="274.658203" xlink:href="#DejaVuSans-48"/>
      </g>
     </g>
    </g>
    <g id="xtick_18">
     <g id="line2d_28">
      <g>
       <use style="stroke:#000000;stroke-width:0.8;" x="237.8825" xlink:href="#m2bfe0a4ffc" y="317.72"/>
      </g>
     </g>
     <g id="text_28">
      <!-- 0 -->
      <g transform="translate(234.70125 332.318437)scale(0.1 -0.1)">
       <use xlink:href="#DejaVuSans-48"/>
      </g>
     </g>
    </g>
    <g id="xtick_19">
     <g id="line2d_29">
      <g>
       <use style="stroke:#000000;stroke-width:0.8;" x="312.119773" xlink:href="#m2bfe0a4ffc" y="317.72"/>
      </g>
     </g>
     <g id="text_29">
      <!-- 1000 -->
      <g transform="translate(299.394773 332.318437)scale(0.1 -0.1)">
       <use xlink:href="#DejaVuSans-49"/>
       <use x="63.623047" xlink:href="#DejaVuSans-48"/>
       <use x="127.246094" xlink:href="#DejaVuSans-48"/>
       <use x="190.869141" xlink:href="#DejaVuSans-48"/>
      </g>
     </g>
    </g>
    <g id="xtick_20">
     <g id="line2d_30">
      <g>
       <use style="stroke:#000000;stroke-width:0.8;" x="386.357045" xlink:href="#m2bfe0a4ffc" y="317.72"/>
      </g>
     </g>
     <g id="text_30">
      <!-- 2000 -->
      <g transform="translate(373.632045 332.318437)scale(0.1 -0.1)">
       <use xlink:href="#DejaVuSans-50"/>
       <use x="63.623047" xlink:href="#DejaVuSans-48"/>
       <use x="127.246094" xlink:href="#DejaVuSans-48"/>
       <use x="190.869141" xlink:href="#DejaVuSans-48"/>
      </g>
     </g>
    </g>
   </g>
   <g id="matplotlib.axis_8">
    <g id="ytick_8">
     <g id="line2d_31">
      <g>
       <use style="stroke:#000000;stroke-width:0.8;" x="33.73" xlink:href="#m03f3f46f49" y="315.362727"/>
      </g>
     </g>
     <g id="text_31">
      <!-- 0 -->
      <g transform="translate(20.3675 319.161946)scale(0.1 -0.1)">
       <use xlink:href="#DejaVuSans-48"/>
      </g>
     </g>
    </g>
    <g id="ytick_9">
     <g id="line2d_32">
      <g>
       <use style="stroke:#000000;stroke-width:0.8;" x="33.73" xlink:href="#m03f3f46f49" y="268.309677"/>
      </g>
     </g>
     <g id="text_32">
      <!-- 2 -->
      <g transform="translate(20.3675 272.108896)scale(0.1 -0.1)">
       <use xlink:href="#DejaVuSans-50"/>
      </g>
     </g>
    </g>
   </g>
   <g id="line2d_33">
    <path clip-path="url(#p931a1c5703)" d="M 52.289318 315.362727 
L 200.125295 315.331818 
L 200.199548 315.22308 
L 200.348052 315.343492 
L 200.64506 315.291862 
L 200.793564 315.318829 
L 201.090573 315.289784 
L 201.313329 315.310567 
L 202.055851 315.309354 
L 202.278607 315.315006 
L 207.921768 315.299774 
L 208.144525 315.294231 
L 209.481063 315.341439 
L 209.629567 315.312967 
L 210.000828 315.326753 
L 210.149332 315.309678 
L 213.490678 315.29415 
L 213.787686 315.331739 
L 214.455955 315.356504 
L 214.678712 315.309819 
L 215.124224 315.309245 
L 215.421233 315.304969 
L 215.940998 315.345426 
L 216.238006 315.296654 
L 216.535015 315.349782 
L 216.832023 315.281794 
L 216.980527 315.295425 
L 217.054779 315.226996 
L 217.203284 315.298616 
L 218.46557 315.324035 
L 218.911083 315.282018 
L 219.059587 315.285938 
L 222.178176 315.302007 
L 222.400932 315.332144 
L 223.588966 315.22947 
L 223.737471 315.098999 
L 223.811723 315.083174 
L 223.960227 314.951482 
L 224.331488 314.566236 
L 224.702748 314.015645 
L 225.371017 312.606229 
L 225.965034 311.108185 
L 227.524329 305.729399 
L 228.044094 303.45179 
L 229.232128 298.048598 
L 232.499221 282.187404 
L 233.613003 277.406025 
L 235.098045 272.387069 
L 235.989071 270.211665 
L 236.137575 269.991031 
L 236.508836 269.302315 
L 236.954348 268.777397 
L 237.251357 268.489905 
L 237.474113 268.396039 
L 237.69687 268.298687 
L 237.845374 268.318996 
L 237.919626 268.217273 
L 238.06813 268.354846 
L 238.142382 268.298687 
L 238.365139 268.396039 
L 239.478921 269.584538 
L 240.14719 270.861801 
L 241.854989 275.971169 
L 242.671762 279.231086 
L 246.45862 297.316333 
L 248.092167 304.741806 
L 250.096974 311.727518 
L 251.433512 314.480979 
L 252.101782 315.098999 
L 252.250286 315.22947 
L 252.621546 315.322467 
L 253.289816 315.300769 
L 253.512572 315.292826 
L 253.80958 315.32972 
L 254.84911 315.334276 
L 255.517379 315.328665 
L 257.076674 315.309879 
L 257.225178 315.299977 
L 260.566524 315.325916 
L 261.234793 315.332341 
L 261.457549 315.347253 
L 262.645583 315.303055 
L 263.016844 315.316979 
L 263.759365 315.310255 
L 263.907869 315.30228 
L 264.27913 315.344763 
L 265.31866 315.307475 
L 265.541416 315.307781 
L 267.620475 315.30164 
L 268.437249 315.312596 
L 268.734257 315.337837 
L 268.957014 315.305159 
L 269.17977 315.335537 
L 270.367804 315.349826 
L 270.59056 315.345222 
L 271.184577 315.320249 
L 271.555838 315.349442 
L 271.778594 315.302408 
L 271.927098 315.351848 
L 272.372611 315.315229 
L 272.66962 315.334969 
L 273.04088 315.281223 
L 273.263637 315.322631 
L 273.560645 315.315006 
L 273.783402 315.309354 
L 274.006158 315.302978 
L 274.228914 315.306713 
L 275.11994 315.341266 
L 275.268444 315.340034 
L 276.159469 315.32143 
L 276.679234 315.325279 
L 277.050495 315.306057 
L 349.297811 315.358404 
L 351.228366 315.362727 
L 423.475682 315.362727 
L 423.475682 315.362727 
" style="fill:none;stroke:#5eb2db;stroke-linecap:square;stroke-width:1.5;"/>
   </g>
   <g id="patch_18">
    <path d="M 33.73 317.72 
L 33.73 265.86 
" style="fill:none;stroke:#000000;stroke-linecap:square;stroke-linejoin:miter;stroke-width:0.8;"/>
   </g>
   <g id="patch_19">
    <path d="M 442.035 317.72 
L 442.035 265.86 
" style="fill:none;stroke:#000000;stroke-linecap:square;stroke-linejoin:miter;stroke-width:0.8;"/>
   </g>
   <g id="patch_20">
    <path d="M 33.73 317.72 
L 442.035 317.72 
" style="fill:none;stroke:#000000;stroke-linecap:square;stroke-linejoin:miter;stroke-width:0.8;"/>
   </g>
   <g id="patch_21">
    <path d="M 33.73 265.86 
L 442.035 265.86 
" style="fill:none;stroke:#000000;stroke-linecap:square;stroke-linejoin:miter;stroke-width:0.8;"/>
   </g>
   <g id="text_33">
    <!-- Freq Response of Received Pulse -->
    <g transform="translate(138.5075 259.86)scale(0.12 -0.12)">
     <use xlink:href="#DejaVuSans-70"/>
     <use x="57.410156" xlink:href="#DejaVuSans-114"/>
     <use x="98.492188" xlink:href="#DejaVuSans-101"/>
     <use x="160.015625" xlink:href="#DejaVuSans-113"/>
     <use x="223.492188" xlink:href="#DejaVuSans-32"/>
     <use x="255.279297" xlink:href="#DejaVuSans-82"/>
     <use x="324.699219" xlink:href="#DejaVuSans-101"/>
     <use x="386.222656" xlink:href="#DejaVuSans-115"/>
     <use x="438.322266" xlink:href="#DejaVuSans-112"/>
     <use x="501.798828" xlink:href="#DejaVuSans-111"/>
     <use x="562.980469" xlink:href="#DejaVuSans-110"/>
     <use x="626.359375" xlink:href="#DejaVuSans-115"/>
     <use x="678.458984" xlink:href="#DejaVuSans-101"/>
     <use x="739.982422" xlink:href="#DejaVuSans-32"/>
     <use x="771.769531" xlink:href="#DejaVuSans-111"/>
     <use x="832.951172" xlink:href="#DejaVuSans-102"/>
     <use x="868.15625" xlink:href="#DejaVuSans-32"/>
     <use x="899.943359" xlink:href="#DejaVuSans-82"/>
     <use x="969.363281" xlink:href="#DejaVuSans-101"/>
     <use x="1030.886719" xlink:href="#DejaVuSans-99"/>
     <use x="1085.867188" xlink:href="#DejaVuSans-101"/>
     <use x="1147.390625" xlink:href="#DejaVuSans-105"/>
     <use x="1175.173828" xlink:href="#DejaVuSans-118"/>
     <use x="1234.353516" xlink:href="#DejaVuSans-101"/>
     <use x="1295.876953" xlink:href="#DejaVuSans-100"/>
     <use x="1359.353516" xlink:href="#DejaVuSans-32"/>
     <use x="1391.140625" xlink:href="#DejaVuSans-80"/>
     <use x="1451.427734" xlink:href="#DejaVuSans-117"/>
     <use x="1514.806641" xlink:href="#DejaVuSans-108"/>
     <use x="1542.589844" xlink:href="#DejaVuSans-115"/>
     <use x="1594.689453" xlink:href="#DejaVuSans-101"/>
    </g>
   </g>
  </g>
 </g>
 <defs>
  <clipPath id="p4d24d68791">
   <rect height="51.86" width="408.305" x="33.73" y="14.76"/>
  </clipPath>
  <clipPath id="pdbcf4cb073">
   <rect height="51.86" width="408.305" x="33.73" y="98.46"/>
  </clipPath>
  <clipPath id="p944200eea4">
   <rect height="51.86" width="408.305" x="33.73" y="182.16"/>
  </clipPath>
  <clipPath id="p931a1c5703">
   <rect height="51.86" width="408.305" x="33.73" y="265.86"/>
  </clipPath>
 </defs>
</svg>
